<?xml version="1.0" standalone="no"?>
<!DOCTYPE svg PUBLIC "-//W3C//DTD SVG 1.1//EN" "http://www.w3.org/Graphics/SVG/1.1/DTD/svg11.dtd" >
<svg xmlns="http://www.w3.org/2000/svg">
<metadata>
This is a custom SVG webfont generated by Font Squirrel.
Copyright   :  2007 Adobe Systems Incorporated All Rights Reserved
Designer    : Robert Slimbach
Foundry URL : httpwwwadobecomtype
</metadata>
<defs>
<font id="ArnoProBold" horiz-adv-x="1040" >
<font-face units-per-em="2048" ascent="1389" descent="-659" />
<missing-glyph horiz-adv-x="362" />
<glyph unicode=" "  horiz-adv-x="362" />
<glyph unicode="&#x09;" horiz-adv-x="362" />
<glyph unicode="&#xa0;" horiz-adv-x="362" />
<glyph unicode="!" horiz-adv-x="657" d="M183 1130q0 13 11 31q13 25 29 33q39 16 123 26q69 8 110 7h17q37 0 66 -23q0 -45 -51.5 -349t-79.5 -443q-12 -2 -47 4t-42 12l-39 195l-63 309q-34 171 -34 198zM215 131q0 66 53 115q47 41 109 41q63 0 104 -35q51 -49 51 -125q0 -61 -45 -111q-43 -43 -125 -43 q-61 0 -104 41q-43 45 -43 117z" />
<glyph unicode="&#x22;" horiz-adv-x="716" d="M102 1270q14 10 80 43t92 35l23 -7q12 -14 12 -86q0 -94 -17.5 -222t-31.5 -159q-18 -43 -82 -90q-2 -2 -26 -2q-15 402 -50 488zM406 1270q14 12 84.5 50t87.5 38q2 0 12 -2l12 -2q12 -18 12 -88q0 -100 -18 -219t-35 -152q-20 -47 -80 -92q0 -2 -7 -2h-13q-6 0 -6 2 q-12 379 -49 467z" />
<glyph unicode="#" horiz-adv-x="964" d="M31 420q-4 12 17.5 85t31.5 77q47 -6 176 -7l47 211q-143 0 -184 9q-2 18 18.5 82.5t32.5 70.5q94 -4 162 -4l51 242q0 2 40 14t46 12t10 -8l-53 -250q0 -8 6 -12l184 -2l58 266q12 12 84 27q10 0 10 -6l-61 -279q0 -8 8 -8q143 0 200 10q1 -7 1 -13q0 -30 -15 -63 q-70 -82 -217 -88q-12 0 -12 -8l-43 -194q0 -10 8 -11q127 0 197 13q2 -6 -3.5 -37t-11.5 -39q-78 -96 -219 -98q-8 0 -8 -11q-8 -45 -30.5 -152.5t-26.5 -131.5q-2 -6 -15 -6q-4 0 -35.5 18t-33.5 23l59 260h-191q-8 0 -8 -9q-63 -274 -67 -288q-2 -6 -15 -6 q-10 4 -38.5 21t-30.5 22l30 126q23 93 31 134q-153 0 -190 8zM344 588q0 -12 6 -13h187l49 211h-187q-6 0 -12 -10z" />
<glyph unicode="$" d="M86 340q2 6 31.5 15.5t40.5 9.5q53 -150 113.5 -203t152.5 -72q6 -4 10 4l37 363q-4 12 -10 14q-88 49 -136.5 81t-98.5 80t-70.5 103.5t-20.5 126.5q0 156 109.5 248t290.5 96q8 0 10 4l14 142q8 6 39 11q22 4 34 4q5 0 9 -1l-16 -152q0 -8 10 -8q37 -2 164 -22 q51 -8 110 -13q-27 -117 -43 -270q-4 -4 -35.5 -6t-35.5 2q-10 119 -45 169t-127 64q-6 0 -9 -6l-34 -366q2 -10 10 -15q184 -94 241 -143q113 -96 113 -238q0 -158 -113.5 -250t-316.5 -106q-8 0 -10 -8l-15 -145q-8 -6 -39 -12q-18 -3 -29 -3q-9 0 -13 2l14 154 q0 10 -8 10q-127 12 -271 55q-39 60 -57 281zM362 961q0 -102 132 -177q6 -6 10 4l31 338q-2 6 -9 7q-164 -25 -164 -172zM512 94q4 -8 8 -8q66 2 118 42t52 118q0 63 -30.5 102t-106.5 84q-2 1 -4 1q-4 0 -4 -7z" />
<glyph unicode="%" horiz-adv-x="1484" d="M84 842q0 178 106 278q96 92 244 92q125 0 192.5 -89t67.5 -212q0 -199 -123 -297q-102 -84 -227 -84q-117 0 -188.5 85.5t-71.5 226.5zM289 897q0 -145 38 -216t89 -71q109 0 108 226q0 305 -135 305q-53 0 -76.5 -74t-23.5 -170zM295 31l817 1212q39 23 94 29 q12 -6 13 -17q-45 -55 -431 -628l-442 -656q-6 -4 -11 -3q-4 0 -7 1q-6 4 -18.5 28t-14.5 34zM791 338q0 180 106 280q100 92 246 93q119 0 188.5 -91.5t69.5 -211.5q0 -205 -119 -299q-100 -82 -227 -82q-119 0 -191.5 88t-72.5 223zM997 395q0 -145 38 -215.5t89 -70.5 q109 0 109 223q0 133 -35 218t-102 85q-99 0 -99 -240z" />
<glyph unicode="&#x26;" horiz-adv-x="1501" d="M84 338q0 86 51 149.5t209 161.5q8 9 0 13q-109 119 -108 266q0 135 106.5 229t261.5 94q139 0 228.5 -74.5t89.5 -185.5q0 -82 -57.5 -138t-190.5 -130q-4 -4 0 -8q129 -113 344 -266q2 -2 6 -1t6 3q66 102 96 198q5 17 5 31q0 36 -35 49q-33 12 -90 21q-8 2 -6.5 35.5 t8.5 37.5q12 0 83.5 -3t120.5 -3q59 0 108.5 1t77 3t36.5 2q4 -4 4 -20q0 -8 -1 -19q-3 -33 -12 -36q-10 -2 -79 -21q-59 -18 -84 -63q-51 -74 -101.5 -158t-62.5 -101q-4 -4 2 -12q260 -176 301 -229q0 -39 -59.5 -134.5t-88.5 -119.5q-9 -4 -18 -4l-18 4q-16 27 -72 74 q-160 129 -230 180q-6 4 -10 0q-197 -197 -409 -197q-178 0 -295 101.5t-117 269.5zM342 440q0 -111 91 -196.5t224 -85.5q115 0 181 59q3 1 3 3t-3 5q-274 217 -432 371q-6 6 -13 0q-51 -66 -51 -156zM455 1024q0 -129 153 -254q2 -4 6 -4t9 4q86 94 86 227q0 76 -37 128.5 t-101 52.5q-49 0 -82.5 -41t-33.5 -113z" />
<glyph unicode="'" horiz-adv-x="413" d="M102 1270q12 10 84 41.5t90 34.5q23 0 23 -5q12 -14 12 -86q0 -92 -18.5 -219t-34.5 -157q-16 -45 -84 -95q-8 -2 -27 -2q-2 139 -15.5 294t-29.5 194z" />
<glyph unicode="(" horiz-adv-x="817" d="M154 555q0 330 147.5 587t372.5 408q8 0 26.5 -21.5t16.5 -29.5q-174 -164 -269.5 -379t-95.5 -534q0 -604 342 -946q2 -8 -17.5 -30t-31.5 -26q-59 27 -136 103.5t-160 195.5t-139 298t-56 374z" />
<glyph unicode=")" horiz-adv-x="817" d="M372 33q93 211 93 516q0 317 -84 545.5t-260 404.5q-2 4 20.5 27.5t26.5 23.5q66 -31 144.5 -107.5t160.5 -194.5t136.5 -297t54.5 -376q0 -330 -145.5 -584.5t-373.5 -406.5q-12 2 -30 25q-15 18 -15 27q0 44 130 206.5t142 190.5z" />
<glyph unicode="*" horiz-adv-x="778" d="M51 874q41 90 55 95q16 6 77 26.5t102 36.5q-84 63 -162 152q-20 20 -2 41q55 41 98 41q57 -68 137 -142q31 154 45 195q16 29 125 29q6 -6 6 -15q-10 -20 -65 -237q186 72 246 100q4 -2 10 -12q5 -8 5 -12q0 -26 -22.5 -53.5t-37.5 -37.5q-102 -51 -174 -77 q145 -125 206 -152q2 -2 1 -11.5t-5 -13.5q-16 -12 -58 -16t-60 4q-35 18 -91.5 57t-60.5 41q-39 -174 -43 -245l-14 -4q-33 0 -59 36q-22 32 -22 64q0 47 27 172q-109 -39 -247 -82q-11 4 -17 20z" />
<glyph unicode="+" horiz-adv-x="1120" d="M88 440q2 16 12.5 64.5t14.5 58.5q14 -4 233 -4h135v127q0 205 -4 262q14 6 67.5 15.5t64 9.5t10.5 -72v-321q0 -20 12 -21h393q4 -2 4 -24q0 -18 -13 -62.5t-23.5 -46.5t-68.5 -2h-147q-88 0 -143 -2q-14 0 -14 -19v-149q0 -98 1 -149v-30q0 -28 -1 -46 q-2 -10 -50.5 -24.5t-70.5 -16.5q-16 0 -17 4v81v155v194q-152 -2 -391 -2q-4 4 -4 20z" />
<glyph unicode="," horiz-adv-x="499" d="M16 -303q88 82 130 152q38 64 39 140q0 7 -1 15q0 61 -82 170q16 27 82 82t95 68q14 6 26 6t23 -6q23 -20 43 -71.5t22 -107.5q0 -8 1 -16q0 -137 -97 -273q-102 -144 -205 -196q-3 -1 -8 -1q-9 0 -25 4q-25 7 -36 15q-7 7 -8 14q0 3 1 5z" />
<glyph unicode="-" horiz-adv-x="620" d="M76 358q2 33 13 86.5t17 53.5l439 12v-25q-2 -27 -15.5 -80t-21.5 -55q-12 -4 -195.5 -9t-234.5 -5q-2 18 -2 22z" />
<glyph unicode="." horiz-adv-x="499" d="M90 139q0 68 49 117t113 49q66 0 106 -41q51 -43 52 -129q0 -72 -43 -112q-47 -49 -125 -50q-59 0 -105 45q-47 45 -47 121z" />
<glyph unicode="/" horiz-adv-x="942" d="M88 -227q96 207 331.5 799.5t307.5 791.5q2 6 48 17.5t63 11.5q10 -4 10 -15q-14 -57 -286.5 -743t-348.5 -825q-6 -12 -47 -29t-62 -23q-16 5 -16 15z" />
<glyph unicode="0" d="M61 606q0 158 48.5 297t148.5 221q115 96 287 97q201 0 301 -136q131 -152 131 -458q0 -428 -232 -584q-102 -68 -235 -68q-160 0 -252 70q-197 145 -197 561zM356 647q0 -299 50.5 -443.5t136.5 -144.5q39 0 63 25q84 80 84 506q0 268 -47 409.5t-133 141.5 q-35 0 -57 -23q-97 -92 -97 -471z" />
<glyph unicode="1" d="M195 28.5q0 28.5 6 34.5l62.5 8.5t51.5 6.5q41 10 55.5 42t16.5 89q2 41 6 385q0 309 -6 364q-4 59 -51 70q-27 6 -107 16q-6 8 -3 38t10 34q186 12 423 105q2 1 4 0q6 0 15 -4q12 -6 12 -13q-10 -98 -10 -321q0 -539 6 -666q4 -63 17.5 -95t48.5 -40q49 -12 112 -16 q3 -4 3 -19q0 -7 -1 -17q-2 -30 -10 -36q-43 0 -162 3t-184 3q-76 0 -175 -3t-134 -3q-6 6 -6 34.5z" />
<glyph unicode="2" d="M68 936q84 137 197.5 211t232.5 74q145 0 248.5 -103.5t103.5 -269.5q0 -102 -52.5 -196.5t-168.5 -211.5q-45 -45 -217 -192l-2 -6q0 -4 2 -7.5t8 -3.5q82 -12 235 -11q58 0 125 1q80 4 162 172q8 4 36 -6t32 -18q-18 -78 -59.5 -196t-73.5 -157q-14 -20 -103 -22 q-38 -2 -99 -2q-77 0 -190 3q-203 5 -260 5q-70 0 -139 -4q-6 31 -6 63q217 160 358 344q133 182 133 353q0 111 -54 180.5t-157 69.5q-129 0 -243 -123q-8 -2 -29.5 20.5t-19.5 32.5z" />
<glyph unicode="3" d="M84 180q2 6 25.5 18.5t33.5 14.5q53 -117 162 -172q70 -37 168 -37q80 0 138.5 59.5t58.5 172.5q0 123 -82 203.5t-217 80.5q-27 0 -66 -4q-2 10 17.5 59.5t27.5 55.5q133 27 189.5 72t56.5 124q0 84 -52 144.5t-151 60.5q-113 0 -231 -106q-6 0 -15.5 11t-14.5 26.5 t-5 21.5q63 86 169.5 161t227.5 75q143 0 230.5 -82t87.5 -207q0 -74 -50.5 -129t-144.5 -115q-6 -4 -2 -8q297 -92 297 -324q0 -100 -56.5 -190t-152.5 -152q-154 -100 -344 -100q-117 0 -196 35q-45 23 -72 78q-31 83 -37 153z" />
<glyph unicode="4" d="M29 330q-2 10 -2 20q0 31 14 64q401 563 573 784q94 18 181 23l4 -742q0 -10 8 -10q166 4 213 8q-20 -70 -27 -151q-29 0 -90 1t-92 1q-8 0 -8 -11q0 -59 1 -176.5t1 -177.5q-141 0 -295 -26l4 382q0 10 -8 11l-264 2q-162 0 -213 -2zM205 483q0 -12 4 -12q57 -4 174 -4 h123q8 0 8 10l8 457q-2 2 -8 2q-35 -41 -143.5 -201t-165.5 -252z" />
<glyph unicode="5" d="M86 88q0 55 61 141q12 12 29 13q154 -219 361 -219q74 0 117.5 48t43.5 117q0 145 -159 248q-59 41 -200.5 106.5t-154.5 73.5q-4 10 -5 37t1 39q27 96 94.5 256t114.5 226q33 35 57 34q184 -12 252 -12q74 0 119 31q6 0 18.5 -10.5t12.5 -16.5q0 -18 -31 -87t-69 -114 q-41 -51 -105 -51q-74 0 -162 8.5t-90 8.5q-16 0 -20 -13q-20 -39 -35 -84q-2 -4 2 -12t8 -10q20 -10 101 -45l158 -71q77 -36 122 -60q104 -59 156.5 -133t52.5 -187q0 -190 -169 -313t-368 -123q-180 0 -284 104q-29 37 -29 70z" />
<glyph unicode="6" d="M66 434q0 293 238.5 535.5t600.5 330.5q8 -2 19.5 -31.5t7.5 -33.5q-397 -190 -514 -494q-2 -4 0 -8t6 -2q154 74 235 74q127 0 222.5 -97.5t95.5 -267.5q0 -139 -70.5 -250.5t-199.5 -173.5q-100 -45 -205 -45q-217 0 -326.5 134t-109.5 329zM358 449q0 -190 58.5 -290 t148.5 -100q61 0 103.5 65.5t42.5 186.5q0 164 -68 258.5t-178 94.5q-31 0 -59 -13q-18 -8 -29 -39q-19 -57 -19 -163z" />
<glyph unicode="7" d="M55 811q80 266 99 399q63 -14 168 -14h434q174 0 225 4q4 -2 9 -16q4 -10 4 -16q0 -23 -14 -63.5t-45.5 -107.5l-62 -127.5l-85 -167.5l-92.5 -184q-255 -516 -279 -579q-6 -8 -15 -13q-47 4 -86 35q-4 8 -3 21.5t3 19.5l145 279l203 391q91 178 123 258q0 14 -4 14 q-416 0 -499 -6q-49 -4 -77 -32.5t-81 -123.5q-8 -4 -36 7.5t-34 21.5z" />
<glyph unicode="8" d="M90 289q0 68 54.5 129t193.5 139q6 6 0 10q-201 145 -201 310q0 160 127 253q113 90 281 91q156 0 254 -83t98 -216q0 -121 -201 -244q-4 -4 2 -8q133 -86 192.5 -158t59.5 -176q0 -143 -128 -251t-326 -108q-205 0 -305.5 93.5t-100.5 218.5zM313 315q0 -98 68 -177 t164 -79q74 0 117 42t43 112q0 78 -61.5 141.5t-229.5 163.5q-6 6 -15 -2q-86 -90 -86 -201zM362 989q0 -76 55.5 -131t207.5 -145q2 -2 3 -2q3 0 7 4q68 82 67 190q0 100 -52 168t-142 68q-63 0 -104.5 -45.5t-41.5 -106.5z" />
<glyph unicode="9" d="M57 766q0 268 244 397q109 57 236 58q209 0 323.5 -144.5t114.5 -351.5q0 -283 -216 -512t-583 -315q-10 4 -22.5 31.5t-8.5 39.5q377 172 500 512q2 10 -8 11q-70 -43 -145.5 -70t-114.5 -27q-143 0 -231.5 110.5t-88.5 260.5zM319 889q0 -168 71 -253t175 -85 q39 0 84 20q18 12 23 33q16 80 16 139q0 172 -53 284t-160 112q-63 0 -109.5 -66.5t-46.5 -183.5z" />
<glyph unicode=":" horiz-adv-x="636" d="M162 133q0 63 47 115q49 43 110.5 43t104.5 -39q51 -47 51 -123q0 -70 -43 -106q-45 -47 -121 -48q-57 0 -106 43q-43 41 -43 115zM162 629q0 72 47 114q45 43 110 43q68 0 107 -38q49 -43 49 -125q0 -63 -43 -105q-45 -47 -119 -47q-59 0 -106 41q-45 43 -45 117z" />
<glyph unicode=";" horiz-adv-x="636" d="M78 -303q88 82 130 152q40 67 40 147q0 71 -82 178q14 27 80.5 82t95.5 68q27 12 47 0q23 -20 43.5 -71.5t22.5 -107.5v-15q0 -132 -97 -272q-102 -148 -204 -198q-2 -1 -7 -1q-8 0 -25 4q-26 7 -38 15q-7 7 -7 14q0 3 1 5zM162 631q0 63 49 112q47 41 111 41 q66 0 104 -34q51 -45 51 -123q0 -68 -43 -105q-45 -47 -123 -47q-57 0 -104 41q-45 43 -45 115z" />
<glyph unicode="&#x3c;" horiz-adv-x="1120" d="M129 432q-2 10 10.5 54t18.5 51q154 72 458 230.5t351 197.5q8 0 12 -11q0 -27 -12.5 -80t-22.5 -61q-12 -10 -65 -40l-130 -71l-149 -76l-148 -76q-77 -40 -104 -52q-10 -6 -2 -15q20 -12 177 -88l300 -149l30 -15q137 -70 137 -85q0 -11 -15 -51q-18 -48 -29 -64 q-4 -8 -16 -8q-63 49 -362.5 201.5t-438.5 207.5z" />
<glyph unicode="=" horiz-adv-x="1120" d="M90 254q12 92 27 123q14 -4 233 -4h680q2 -4 2 -21q-29 -111 -35 -112l-901 -4q-6 2 -6 18zM90 625q6 78 25 123q14 -4 235 -5h680q3 -7 3 -13q0 -32 -9 -62t-18 -44l-9 -14l-899 -4q-8 5 -8 19z" />
<glyph unicode="&#x3e;" horiz-adv-x="1120" d="M131 838q-2 2 -1 5q0 12 13 47q18 46 29 66q4 8 16 9q68 -49 367 -203t436 -207q2 -10 -11 -55t-17 -49q-154 -72 -458 -231t-351 -197q-6 0 -13 10q0 27 11.5 80t21.5 61q20 18 130 76l288 147q178 90 180 92q10 6 2 15q-20 12 -177 88l-300 149q-143 74 -166 97z" />
<glyph unicode="?" horiz-adv-x="792" d="M160 1057q0 23 29.5 82t54.5 75q25 20 63 21q143 0 262 -90q137 -100 138 -227q0 -92 -37 -125q-14 -14 -41 -33t-49 -31l-61 -32q-38 -19 -54 -29q-33 -18 -33 -47q0 -43 57 -107q4 -4 1 -16.5t-7 -16.5q-12 -12 -69.5 -38.5t-73.5 -30.5q-25 -4 -51 4q-49 20 -78 61 t-29 78q0 53 25 72q20 12 113.5 58t115.5 58q51 29 51 76q0 115 -247 182q-16 6 -54 15q-26 6 -26 41zM223 131q0 66 49 113q49 43 113 43q61 0 107 -35q49 -49 49 -125q0 -61 -45 -111q-43 -43 -125 -43q-61 0 -105 41q-43 45 -43 117z" />
<glyph unicode="@" horiz-adv-x="1714" d="M98 256q0 371 258 653q274 299 662 299q184 0 325.5 -91t209 -223t67.5 -276q0 -162 -60.5 -291.5t-153.5 -204.5t-194.5 -114t-195.5 -39q-59 0 -83 43q-16 30 -17 74q0 19 4 41q8 74 12 98q0 4 -5 6t-7 -2q-74 -98 -179.5 -178t-175.5 -80q-63 0 -89.5 61.5 t-26.5 143.5q0 119 51 246t131 211q61 66 192 133.5t232 67.5q129 0 225 -31q-27 -63 -41 -139q-74 -369 -76 -447q0 -94 58 -94h2q84 0 175 104.5t91 294.5q0 150 -48 264.5t-129 181t-176.5 100.5t-201.5 34q-82 0 -168 -24.5t-178 -86t-163 -152.5t-117 -237.5 t-46 -327.5q0 -145 32 -262.5t84 -187.5t104.5 -110t105.5 -52q60 -16 112 -16q16 0 31 2q8 -8 0 -31q-43 -45 -156 -45q-33 0 -85 20.5t-121.5 71.5t-129 125t-100.5 197t-41 270zM696 311q0 -122 58 -123q88 0 182 181q29 57 59 190l35 137q-35 25 -104 25 q-117 0 -181 -150q-49 -135 -49 -260z" />
<glyph unicode="A" horiz-adv-x="1284" d="M-46 36q0 21 5 27q109 16 146.5 44t76.5 120q158 373 330 869q35 86 41 143q61 -4 106.5 -4t102.5 4l35 -119l135 -380l168 -466q51 -131 85 -161.5t146 -49.5q2 -4 3 -14q0 -8 -2 -20q-3 -29 -9 -35q-12 0 -109.5 3t-189.5 3q-98 0 -192.5 -3t-120.5 -3q-4 10 -4 36.5 t4 32.5q82 16 100 29q29 16 20 39q-29 115 -94 281q-14 14 -20 14h-156q-135 0 -164 -2q-12 0 -22 -19q-78 -225 -78 -253q4 -57 57 -68q45 -10 101 -21q4 -6 1 -34.5t-7 -34.5q-23 0 -107 3t-152 3q-39 0 -117.5 -3t-113.5 -3q-5 10 -5 42zM428 561q-1 -5 -1 -8q0 -6 5 -6 q23 -2 117 -2q117 0 137 2q6 0 6 10q-80 250 -129 383h-8l-69 -203z" />
<glyph unicode="B" horiz-adv-x="1288" d="M33 31.5q0 27.5 6 31.5q94 12 131 27q43 14 51 92q4 53 4 441q0 330 -4 440q-2 41 -14 59.5t-41 28.5q-41 16 -107 20q-6 8 -5 37t5 33q10 0 106.5 -3t186.5 -3q92 0 219 3t142 3q401 0 401 -280q0 -86 -59.5 -156t-167.5 -100q-2 -2 -2 -6.5t2 -6.5q315 -63 315 -305 q0 -233 -246 -344q-133 -59 -350 -59q-39 0 -266 5t-303 5q-4 10 -4 37.5zM514 610q0 -365 4 -428q0 -33 29 -65q25 -27 65.5 -40.5t67.5 -13.5q96 0 152.5 73t56.5 206t-79 208t-222 75q-47 0 -64 -2q-10 -1 -10 -13zM514 723q0 -10 10 -10q18 -2 97 -2q106 0 137 18 q78 47 78 168q0 119 -64.5 188.5t-193.5 69.5q-20 0 -46 -8q-10 -4 -14 -27q-4 -59 -4 -397z" />
<glyph unicode="C" horiz-adv-x="1370" d="M102 631q0 178 86 326.5t250 228.5q172 86 416 86q92 0 242.5 -15.5t173.5 -17.5q-33 -170 -33 -342q-6 -8 -40 -11t-36 5q-12 74 -21.5 108.5t-33 74.5t-62.5 63q-94 53 -239 53q-170 0 -268.5 -135t-98.5 -404q0 -111 25.5 -209t77 -183t141.5 -135t209 -50 q129 0 199 63q76 66 155 205q43 -10 62 -43q-20 -70 -72.5 -165t-93.5 -122q-162 -49 -307 -49q-350 0 -541 170t-191 498z" />
<glyph unicode="D" horiz-adv-x="1488" d="M27 32.5q0 28.5 6 30.5q59 6 121 21q57 14 67 94q6 84 6 469q0 319 -6 414q-4 41 -14 58.5t-43 29.5q-31 12 -115 22q-4 8 -2 36t6 34q20 0 147.5 -3t159.5 -3q63 0 179 4t206 4q270 0 431 -127q100 -82 154 -206t54 -263q0 -307 -204 -485q-205 -176 -574 -176 q-66 0 -234.5 4t-260.5 4h-78q-6 10 -6 38.5zM518 614q0 -358 6 -419q4 -39 31 -66q57 -55 172 -55q131 0 225 116q117 160 117 426q0 145 -54 273.5t-151 197.5q-98 72 -260 72q-53 0 -67 -10q-10 -2 -17 -27q-2 -82 -2 -508z" />
<glyph unicode="E" horiz-adv-x="1200" d="M12 30.5q0 24.5 4 32.5q117 16 152 27q57 16 57 98q6 117 6 494q0 311 -6 385q-2 41 -14 58.5t-43 27.5t-107 18q-6 8 -4 37t9 33q37 0 146.5 -3t162.5 -3h411q180 0 267 12q6 0 6 -8q-16 -70 -29 -309q-8 -6 -38.5 -8t-39.5 2q-18 109 -39 151q-25 49 -84 53 q-39 4 -150 6h-41q-75 0 -93 -4q-6 -2 -13.5 -15t-7.5 -21v-398q0 -16 15 -16q227 0 260 2q57 2 73 72q4 12 9.5 38.5t7.5 34.5q8 4 41 3t41 -7q0 -8 -5 -83.5t-5 -114.5q0 -92 4 -207q-8 -4 -40 -5t-40 3l-21 84q-20 51 -69 59q-37 4 -256 4q-4 0 -9.5 -7t-5.5 -11v-361 q0 -57 43 -67q68 -14 254 -15q70 0 101.5 11.5t64.5 50.5q55 63 109 188q10 2 39.5 -8t35.5 -18q-45 -209 -94 -301q-14 -33 -106 -33q-80 0 -275.5 4t-310.5 4q-53 0 -183 -3t-186 -3q-4 12 -4 36.5z" />
<glyph unicode="F" horiz-adv-x="1144" d="M43 1209q2 28 6 32q27 0 134.5 -3t178.5 -3h457q176 0 248 14q11 -5 11 -12q0 -36 -16 -144t-20 -182q-12 -6 -37.5 -8t-33.5 4q-25 129 -49 172q-23 41 -82 49q-45 4 -159 4.5t-140 -4.5q-20 -4 -21 -34q-2 -104 -2 -426q0 -12 12 -13q213 0 277 2q63 4 82 58 q16 43 26 94q8 4 39 3t41 -7q-10 -129 -10 -209q0 -41 2 -110.5t2 -100.5q-6 -6 -35.5 -8t-42.5 2q-6 37 -24 98q-18 51 -68 55q-74 6 -291 7q-10 0 -10 -15q0 -242 2 -338q0 -88 60 -102q16 -4 36 -7l51 -7q30 -4 48 -7q2 -12 0 -37.5t-8 -31.5q-55 0 -160 3t-162 3 q-53 0 -157.5 -3t-166.5 -3q-6 10 -7 35.5t5 31.5q14 2 48 6.5t49 8.5q37 8 49 29.5t14 68.5q6 72 6 453q0 352 -4 432q-2 49 -14 66.5t-45 25.5t-115 20q-5 8 -5 26q0 5 1 12z" />
<glyph unicode="G" horiz-adv-x="1460" d="M104 625q0 201 97.5 351t271.5 222q170 74 414 74q111 0 259 -21.5t165 -23.5q-35 -154 -35 -325v-36q-8 -8 -41 -11t-41 3q-23 193 -92 248q-98 82 -277 82q-168 0 -276.5 -123t-108.5 -408q0 -270 120 -439t317 -169q57 0 81 23q25 14 29 61q7 59 8 123q0 42 -4 86 q-4 55 -17 81t-54 38q-8 2 -132 20q-6 10 -5 39t5 35q18 0 141.5 -3t207.5 -3q129 0 258 6q4 -6 4 -36t-4 -38q-47 -10 -62 -14q-31 -10 -41 -30.5t-10 -86.5q-1 -27 -1 -70v-47q1 -76 3 -94q6 -25 45 -49q0 -33 -12 -49q-252 -78 -477 -78q-352 0 -544 165t-192 497z" />
<glyph unicode="H" horiz-adv-x="1546" d="M52 36q0 23 5 27l95 19q41 8 55 35.5t18 95.5q2 31 2 399q0 379 -2 441q-4 49 -14 70.5t-41 29.5q-35 8 -107 18q-6 4 -5 35t8 35q8 0 105 -3t196 -3q92 0 190 3t111 3q6 -8 6 -36.5t-8 -33.5q-70 -8 -95 -18q-29 -10 -39 -32.5t-10 -69.5q-2 -49 -2 -336q4 -12 10 -15 q18 -4 265 -4q195 0 221 2q12 6 12 15q0 291 -4 366q-4 59 -41 72q-27 10 -113 20q-8 6 -7 35t9 35q33 0 127.5 -3t184.5 -3q98 0 186 3t105 3q6 -6 6 -33.5t-8 -36.5q-80 -14 -97 -20q-29 -10 -39 -29.5t-12 -66.5q-4 -92 -4 -475q0 -297 4 -387q4 -84 43 -103 q18 -6 131 -27q2 -3 2 -12t-2 -23q-4 -30 -10 -34q-14 0 -116.5 3t-186.5 3q-80 0 -190.5 -3t-121.5 -3q-8 6 -8 33.5t8 35.5q41 6 99 19q51 14 53 102q2 49 2 373q0 14 -10 14q-41 2 -232 2q-254 -2 -262 -6q-4 -4 -4 -12q0 -266 2 -358q0 -49 10.5 -74t45.5 -35 q18 -6 112 -25q6 -8 2 -35.5t-10 -33.5q-10 0 -53 1t-116 3t-155 2q-94 0 -193 -3t-106 -3q-7 5 -7 42z" />
<glyph unicode="I" horiz-adv-x="743" d="M49 28.5q0 28.5 8 34.5q18 2 95 17q41 10 54 29.5t17 80.5q4 72 4 474q0 315 -6 403q-4 68 -51 84q-43 12 -113 20q-4 8 -4 36t6 34q29 0 127.5 -3t178.5 -3q119 0 214 3t97 3q4 -6 5 -33.5t-5 -36.5q-78 -12 -107 -20q-31 -12 -39 -32.5t-10 -71.5q-2 -31 -2 -385 q0 -436 2 -478q4 -84 62 -98q10 -4 29.5 -7t46 -8t40.5 -8q2 -4 2 -13t-2 -23q-4 -29 -10 -33q-252 6 -307 6q-106 0 -202.5 -3t-121.5 -3q-8 6 -8 34.5z" />
<glyph unicode="J" horiz-adv-x="739" d="M-162 -348q20 104 66 182q170 -117 248 -117q39 0 65 29q27 35 33 188q5 280 5 525q0 326 -9 590q-6 86 -62 102q-37 10 -118 20q-6 10 -5.5 37t7.5 33q18 0 116.5 -3t212.5 -3q94 0 188.5 3t110.5 3q4 -8 4 -34.5t-4 -35.5q-63 -8 -96 -20q-25 -12 -36 -31.5t-11 -66.5 q0 -12 -2 -346t-10 -476q-10 -215 -92 -352q-86 -143 -213 -231t-240 -88q-123 0 -158 55v37z" />
<glyph unicode="K" horiz-adv-x="1380" d="M51 27.5q0 25.5 4 33.5l107 21q37 10 48 35.5t13 91.5q3 130 3 283q0 77 -1 159q0 334 -2 404q-4 82 -47 94q-29 10 -110 22q-8 6 -7.5 35t7.5 35q4 0 102 -3t203 -3q55 0 152.5 3t138.5 3q4 -8 4 -33.5t-4 -36.5q-63 -10 -91 -18q-51 -14 -53 -100q-4 -209 -4 -435 q0 -340 4 -440q2 -76 60 -92q12 -4 110 -23q4 -8 0 -36.5t-10 -32.5q-258 6 -309 6q-96 0 -197.5 -3t-116.5 -3q-4 8 -4 33.5zM526 578q0 37 9 36q143 76 348 351q76 102 75 147q0 27 -34 37q-35 14 -119 22q-4 10 -4 37t6 33q33 0 109.5 -3t136.5 -3q139 2 272 6 q6 -6 6 -33.5t-8 -36.5q-70 -10 -100.5 -19t-71.5 -34.5t-84 -77.5l-274 -321v-10q68 -115 210 -293t236 -271q53 -49 88 -61q47 -16 111 -21q2 -5 2 -15q0 -8 -1 -19q-3 -27 -9 -35q-51 -6 -151 -6q-37 0 -81 1q-162 3 -203 19q-49 20 -112 94q-131 147 -324 441 q-6 15 -33 35z" />
<glyph unicode="L" horiz-adv-x="1161" d="M37 30.5q0 26.5 6 32.5q78 10 119 21q49 16 57 84q8 90 8 475q0 346 -4 426q-4 70 -59 84q-12 4 -109 18q-6 10 -3 38t9 32q31 0 122 -3t186 -3q76 0 303 6q6 -6 5 -33.5t-5 -36.5q-76 -12 -99 -18q-33 -10 -42 -27.5t-11 -60.5q-4 -66 -4 -373q-1 -110 -1 -199 q0 -223 7 -315q2 -49 39 -63q51 -11 180 -11h80q66 0 115 68q74 94 139 246q8 4 40 -6.5t34 -20.5q-6 -47 -49 -183t-76 -190q-10 -29 -121 -28q-84 0 -276.5 5t-270.5 5q-90 0 -188 -3t-125 -3q-6 10 -6 36.5z" />
<glyph unicode="M" horiz-adv-x="1718" d="M-24 37q0 21 6 26q84 14 102 19q45 12 65.5 40t28.5 95q55 475 70 823v11q0 69 -51 88q-35 12 -148 32q-4 8 0 38t8 32q74 0 231.5 -3t260.5 -3q6 -63 39 -131q223 -498 289 -627q6 -6 12 0q45 84 148.5 305.5t146.5 327.5q37 90 39 125q129 0 267 3t185 3q6 -4 6 -33.5 t-6 -36.5q-78 -10 -125 -24q-35 -12 -45 -36t-10 -69v-50q0 -117 6 -367q8 -313 17 -424q4 -47 18 -76t53 -37q39 -10 117 -25q5 -6 5 -22q0 -6 -1 -12q-2 -27 -10 -35q-16 0 -124 3t-224 3q-59 0 -153.5 -3t-137.5 -3q-6 8 -5 35.5t5 33.5q96 20 108 25q41 14 43 102 q2 80 2 738h-10q-354 -803 -393 -916q-8 -4 -46 -4t-46 2q-43 145 -365 920q-4 0 -12 -4q-35 -453 -35 -717q0 -55 15.5 -80t58.5 -39q63 -18 131 -27q6 -4 4 -32.5t-8 -36.5q-25 0 -116 3t-167 3q-41 0 -123 -3t-120 -3q-6 10 -6 43z" />
<glyph unicode="N" horiz-adv-x="1464" d="M29 63q82 14 118 27q61 18 70 117q20 178 21 799q0 43 -19.5 81.5t-56.5 51.5q-68 27 -127 30q-4 6 -4 37t4 35q12 1 31 1q39 0 106 -3q100 -4 164 -4q96 0 153 4q20 -43 76 -113q526 -668 592 -745q2 0 4 1t4 1q0 541 -10 651q-4 53 -23.5 79t-68.5 38q-45 10 -123 20 q-6 6 -5 36t5 34q16 0 108.5 -3t168.5 -3q68 0 148.5 3t90.5 3q6 -4 6 -34.5t-6 -35.5q-53 -8 -80 -16q-47 -14 -65.5 -39.5t-22.5 -89.5q-18 -229 -18 -756q0 -135 4 -282q-27 2 -100.5 2t-104.5 -4l-717 946q-10 10 -10 -2q-3 -181 -3 -331q0 -225 7 -382q4 -63 26.5 -92 t67.5 -39q18 -4 58.5 -11t60.5 -12q6 -4 6 -32.5t-8 -36.5q-35 0 -123 3t-137 3q-59 0 -149.5 -3t-118.5 -3q-5 7 -6 29q1 35 6 40z" />
<glyph unicode="O" horiz-adv-x="1550" d="M102 618q0 295 189 461q193 193 504 193q307 0 479 -182.5t172 -452.5q0 -252 -123 -414q-195 -260 -549 -260q-317 0 -500 187q-172 183 -172 468zM432 684q0 -158 47 -311.5t148 -239.5q94 -78 209 -78q90 0 155 66q125 119 125 446q0 168 -45 315.5t-135 227.5 q-86 74 -195 74q-96 0 -155 -47q-154 -113 -154 -453z" />
<glyph unicode="P" horiz-adv-x="1220" d="M51 30.5q0 26.5 4 32.5q84 12 109 19q33 8 44 33.5t13 74.5q4 160 4 463q0 326 -4 389q-2 53 -14 79t-51 34q-53 12 -101 16q-4 10 -3 37t5 33q25 0 123.5 -3t157.5 -3q307 4 403 4q174 0 269 -70q139 -98 139 -288q0 -225 -178 -332q-119 -72 -260 -72q-47 0 -93 8 q-29 16 -36 62q0 14 8 22q16 -4 57 -4q61 0 103 27q98 63 98 244q-2 143 -70.5 230t-187.5 87q-35 0 -55 -10q-12 -12 -13 -29q-4 -61 -4 -452q0 -397 4 -474q4 -88 62 -102q35 -12 135 -23q6 -6 3 -33.5t-11 -35.5q-39 0 -155 3t-177 3q-55 0 -162.5 -3t-161.5 -3 q-4 10 -4 36.5z" />
<glyph unicode="Q" horiz-adv-x="1550" d="M104 614q0 231 111 390q201 268 588 268q207 0 356.5 -92.5t218 -232.5t68.5 -306q0 -279 -150 -444q-92 -102 -262 -177q63 -18 264 -112q227 -106 354.5 -106.5t213.5 40.5q6 -10 12 -36.5t4 -38.5q-92 -90 -219 -134.5t-240 -44.5q-117 0 -239 68q-70 39 -201 133 l-164 117q-68 43 -143 55q-201 37 -316 117q-256 174 -256 536zM432 682q0 -172 41 -309t139.5 -229.5t245.5 -92.5q84 0 144.5 72t88 186.5t27.5 257.5q0 111 -19.5 214.5t-62.5 196.5t-120.5 149.5t-182.5 56.5q-152 0 -226.5 -137.5t-74.5 -364.5z" />
<glyph unicode="R" horiz-adv-x="1310" d="M55 1209q2 30 11 32q20 0 131.5 -3t154.5 -3q82 0 208 3t181 3q184 0 287 -86t103 -227q0 -215 -240 -310q-6 -6 -2 -16q35 -68 146.5 -225.5t178.5 -222.5q53 -53 82 -66.5t107 -21.5q2 -2 2 -8q0 -9 -4 -29q-6 -33 -12 -37q-46 -4 -100 -4q-59 0 -127 5q-128 9 -187 36 q-68 33 -103 86q-29 35 -65.5 89t-61.5 96l-64 110l-52 88q-23 35 -60 37h-49q-8 0 -8 -13q0 -166 4 -342q2 -45 14.5 -66.5t43 -29.5t108.5 -21q8 -2 6 -34.5t-10 -34.5q-8 0 -108.5 3t-196.5 3q-100 0 -199.5 -3t-105.5 -3q-6 6 -8.5 34.5t6.5 34.5q45 4 94 17 q33 8 45 29.5t14 70.5q6 94 6 467q0 324 -4 414q-2 80 -57 92q-51 12 -105 18q-5 6 -4 25q-1 6 0 13zM512 647q0 -16 12 -16q33 -2 62 -2q114 0 159 26q92 45 93 209q0 129 -68 209t-184 80q-37 0 -56 -8q-14 -10 -14 -31q-4 -45 -4 -467z" />
<glyph unicode="S" horiz-adv-x="1021" d="M74 358q4 8 32.5 17.5t38.5 5.5q61 -193 174 -279q76 -55 187 -55q76 0 124 43t48 117q0 76 -46 133t-183 141q-84 53 -127 84t-96.5 83t-76 113.5t-22.5 139.5q0 174 125 272.5t311 98.5q92 0 209 -16.5t133 -18.5q-25 -129 -35 -303q-8 -8 -35.5 -8t-35.5 4 q-25 170 -94 219q-57 47 -154 47q-80 0 -128 -49t-48 -123q0 -113 127 -199l227 -139q117 -72 168 -147.5t51 -184.5q0 -170 -131 -280.5t-360 -110.5q-190 0 -318 66q-16 23 -39.5 147.5t-25.5 181.5z" />
<glyph unicode="T" horiz-adv-x="1314" d="M45 901q31 154 43 348q0 4 7 9q5 4 9 4h2q78 -27 189 -27h725q152 0 231 25q12 0 13 -17q-33 -135 -50 -356q-6 -6 -38.5 -7t-36.5 3q-16 111 -41 182q-23 57 -80 63q-51 6 -112 6q-49 0 -103 -4q-8 -4 -8 -16q0 -846 4 -932q4 -76 51 -94q25 -8 137 -25q6 -6 4 -34.5 t-8 -34.5q-33 0 -143.5 3t-188.5 3q-109 0 -225.5 -3t-134.5 -3q-8 8 -8 35.5t8 33.5q106 12 131 21q41 10 56.5 34.5t19.5 90.5q6 156 6 903q0 16 -10 16q-27 2 -94.5 2t-102.5 -2q-63 -2 -100 -73q-43 -84 -74 -174q-6 -4 -40 3t-38 17z" />
<glyph unicode="U" horiz-adv-x="1449" d="M31 1241q31 0 139.5 -3t175.5 -3q74 0 181.5 3t142.5 3q6 -8 6 -34.5t-6 -35.5q-23 -2 -57.5 -9t-37.5 -7q-66 -16 -69 -113q-2 -49 -2 -438q0 -162 16 -260q41 -236 324 -235q57 0 104 12t93 45t75 100.5t37 165.5q8 109 9 309v55q0 157 -5 224q-4 61 -21.5 91t-66.5 40 q-53 14 -121 20q-4 8 -4 34t6 36q35 0 120 -3t134 -3q92 0 165 3t83 3q8 -8 8 -34.5t-8 -35.5q-74 -14 -86 -18q-39 -10 -54.5 -39t-19.5 -104q-4 -51 -16 -490q-12 -301 -150.5 -429t-392.5 -128q-471 0 -514 379q-6 53 -10 146.5t-4 166t-1 208.5t-1 186q-4 84 -68 102 q-41 14 -106 20q-3 7 -4 25q1 34 6 45z" />
<glyph unicode="V" horiz-adv-x="1308" d="M-46 1208q3 29 9 33q29 0 140.5 -3t170.5 -3q78 0 191 3t123 3q8 -4 8 -33.5t-4 -36.5q-84 -16 -109 -32q-20 -16 -8 -56q29 -84 140.5 -363.5t150.5 -369.5q6 -6 12 0q43 92 136.5 335t119.5 337q11 33 11 57q0 52 -50 68q-63 16 -129 24q-4 10 -1 39t9 33q4 0 85 -4 t169 -4q78 0 155 3t89 3q4 -4 6 -32q1 -7 1 -12q0 -17 -5 -26q-82 -14 -106 -28q-37 -20 -61.5 -55t-57.5 -111l-291 -698q-66 -162 -106 -295q-42 4 -86.5 4t-92.5 -4q-47 145 -104 286q-213 547 -264 666q-51 117 -82 159t-80 56q-33 10 -88 18q-2 6 -2 18q0 9 1 21z" />
<glyph unicode="W" horiz-adv-x="1812" d="M-63 1208q2 31 8 33q35 0 128 -3t187 -3q96 0 186.5 3t120.5 3q6 -4 6 -32.5t-6 -37.5q-61 -12 -100 -26q-31 -16 -21 -53q86 -307 209 -668q6 -10 13 2q57 143 136 377.5t114 367.5q31 -6 67 -6t78 6q35 -111 146.5 -398.5t156.5 -389.5q8 -4 12 2q143 428 187 639 q4 23 4 42q0 21 -5 36q-9 29 -51 41q-29 12 -133 28q-6 6 -5 36t7 34q14 0 101.5 -3t156.5 -3q80 0 157 3t87 3q4 -4 4 -32.5t-4 -37.5l-86 -22q-66 -25 -102 -125q-98 -262 -353 -1044q-41 2 -71 2q-52 0 -78 -7q-43 127 -147.5 405.5t-145.5 369.5q-4 8 -10 -2 q-201 -524 -277 -768q-44 6 -81 6t-68 -6q-43 186 -150.5 526t-173.5 514q-41 104 -92 125q-43 16 -110 26q-3 4 -3 20q0 7 1 17z" />
<glyph unicode="X" horiz-adv-x="1271" d="M-29 29.5q0 29.5 4 33.5q78 14 117 27q70 20 150 117q123 147 268 358q2 4 2 10.5t-2 8.5q-127 227 -236 401q-57 94 -85.5 125t-77.5 43q-49 14 -95 18q-8 6 -6 37t8 35q33 0 127.5 -4t155.5 -4q170 0 326 8q4 -6 4 -36.5t-4 -35.5q-31 -4 -74 -16q-33 -14 -16 -45 q43 -88 174 -313q6 -6 12 0q186 270 186 315q0 29 -32 37q-31 10 -101 20q-4 10 0 38t8 32q31 0 105 -2t121 -2q74 0 146.5 3t94.5 3q2 -4 2 -32.5t-2 -37.5q-66 -10 -108 -24q-45 -14 -78 -44t-86 -97q-66 -86 -205 -287q-4 -10 -2 -14q145 -252 223 -375 q92 -147 126 -187.5t85 -56.5q68 -18 107 -23q3 -5 3 -23q0 -37 -9 -46q-37 0 -166 3t-197 3q-82 0 -145.5 -2t-98 -3t-45.5 -1q-6 4 -8 33.5t2 35.5q88 18 113 29q6 2 8 15.5t-2 17.5q-74 150 -199 350q-2 4 -7 4t-7 -4q-207 -311 -211 -332q-2 -7 -1 -14q0 -37 48 -47 l96 -19q2 -6 -2 -34.5t-6 -34.5q-33 0 -125 4q-61 3 -103 3q-21 0 -36 -1q-47 0 -240 -8q-4 8 -4 37.5z" />
<glyph unicode="Y" horiz-adv-x="1183" d="M-51 1209q2 26 8 32q31 0 127 -3t156 -3q203 0 313 6q6 -6 7 -34.5t-5 -35.5q-10 -2 -63 -14q-22 -6 -22 -28q0 -13 7 -31q27 -59 109 -222t106 -204q8 -4 15 0q55 96 122.5 229t83.5 184q2 10 3 19q0 38 -46 49q-39 10 -106 18q-4 12 -1 39t9 31q18 0 103.5 -3t144.5 -3 q57 0 130 3t99 3q6 -4 6 -33.5t-6 -36.5q-82 -14 -92 -18q-45 -16 -75.5 -42t-73.5 -93q-147 -246 -242 -434q-23 -47 -23 -99q0 -74 5 -282q2 -37 5 -56.5t18 -38t44 -24.5q29 -8 115 -23q4 -4 1 -33.5t-7 -35.5q-29 0 -152 4t-190 4q-92 0 -185.5 -4t-128.5 -4 q-6 6 -5 35.5t5 33.5q92 12 125 23q37 8 48.5 35.5t11.5 79.5q4 96 4 266q0 41 -27 104q-88 184 -231 435q-51 86 -81 114.5t-73 40.5q-57 12 -92 15q-5 8 -5 24q0 5 1 11z" />
<glyph unicode="Z" horiz-adv-x="1224" d="M66 887q51 225 65 368q18 6 30 7q7 0 13 -2q49 -25 174 -25h406q115 0 354 6q2 -2 5 -19.5t1 -25.5q-406 -707 -635 -1073q-2 -2 -1 -8t5 -9q61 -14 379 -14q53 0 105 45q61 57 155 254q8 4 39 -6t37 -20q-8 -55 -43 -176t-59 -173q-18 -29 -131 -28l-689 12 q-20 0 -61 -1t-74.5 -2t-54.5 -3q-4 4 -7 23.5t-1 25.5q96 125 355 545t319 538q4 12 -7 13q-29 1 -68 1q-59 0 -143 -2q-140 -3 -198 -10q-66 -12 -105 -73q-23 -37 -88 -191q-6 -2 -39.5 8.5t-37.5 14.5z" />
<glyph unicode="[" horiz-adv-x="792" d="M227 -354v1859q0 12 11 13h432q1 -17 0 -31q0 -78 -19 -80q-131 -4 -289 -4q-12 0 -12 -14q-10 -102 -10 -801q0 -643 10 -801q6 -37 21 -41q35 -10 315 -10q2 -5 2 -16q0 -16 -4 -45q-6 -48 -20 -48q-119 -3 -204 -3t-136 3q-74 7 -97 19z" />
<glyph unicode="\" horiz-adv-x="907" d="M82 1339q6 10 43 38t51 34q4 0 8 -1t6 -1q496 -1348 627 -1630q0 -6 -16 -12q-25 2 -71 19t-52 30q-37 68 -156 373l-257 673q-138 366 -183 477z" />
<glyph unicode="]" horiz-adv-x="792" d="M106 1403q-2 5 -1 15q0 16 4 45q6 48 20 48q176 4 406 5q6 0 10 -1.5t7 -3.5t5 -4l4 -4l4 -4v-1861q0 -12 -10 -13q-76 0 -215 -2t-217 -2q-1 17 -1 32q0 79 19 79q227 0 291 6q12 0 12 14q8 82 9 799q0 729 -7 805q-6 39 -20 41q-66 6 -320 6z" />
<glyph unicode="^" horiz-adv-x="935" d="M84 528q31 41 168 324t164 358q2 2 45 12.5t49 10.5q53 -123 180 -376t164 -304q0 -10 -8 -12q-14 -8 -70 -23q-48 -13 -57 -12h-2q-12 14 -51 86l-76 146l-79 162l-48 99l-12 2l-2 -2q-176 -401 -224 -456q-20 -29 -119 -29q-6 0 -14 5t-8 9z" />
<glyph unicode="_" horiz-adv-x="1024" d="M-25 -373h1166v-104h-1166v104z" />
<glyph unicode="`" horiz-adv-x="819" d="M172 1198q-4 18 10 29q18 8 103 15q53 5 79 5q15 0 21 -2q8 -18 48 -143t52 -174q-4 -6 -29 -20q-22 -12 -32 -11h-2q-33 31 -126 143.5t-124 157.5z" />
<glyph unicode="a" horiz-adv-x="905" d="M70 227q0 20 11 63.5t23 59.5q33 20 196 68.5t194 60.5q12 2 16 23q2 12 2 26q0 66 -31 107q-47 63 -139 63q-76 0 -100 -28q-14 -14 -68 -121q-8 -6 -42 10t-32 25q0 14 16.5 69.5t26.5 63.5q76 55 173.5 93t148.5 38q158 0 244 -125q51 -76 51 -207q0 -49 -2 -160.5 t-2 -152.5q0 -78 55 -78q33 0 68 10q2 -2 1 -10q0 -10 -2 -30q-5 -36 -10 -42q-39 -35 -103.5 -57.5t-119.5 -22.5q-104 0 -125 64q-6 16 -10 35q-2 4 -8 2q-68 -45 -133.5 -72t-94.5 -27q-70 0 -124 50q-80 73 -80 202zM315 276q0 -72 41 -110.5t93 -38.5q33 0 45 12 q12 8 12 37q4 63 4 223q0 10 -6 11l-59 -20q-46 -15 -74.5 -26.5t-38.5 -19.5q-17 -17 -17 -68z" />
<glyph unicode="b" horiz-adv-x="1064" d="M2 1286q86 2 213 25.5t195 48.5q4 -2 9 -17.5t5 -21.5q-23 -41 -23 -256v-152q0 -90 -2 -149q2 -8 11 -4q180 88 256 88q137 0 227 -100q96 -104 96 -271q0 -242 -170 -371q-59 -47 -169.5 -89t-176.5 -42q-100 0 -201 27q-33 9 -63 9q-34 0 -66 -11q-4 -2 -12 6t-8 12 q11 91 10 410v113q-4 573 -8 610q-6 43 -47 55l-80 13q-3 5 -3 23q0 37 7 44zM401 659q-2 -114 -2 -204q1 -151 7 -236q0 -61 32 -86q57 -53 131 -53q53 0 93 53q57 74 57 232q0 166 -64 251q-59 86 -172 86q-41 0 -69 -14q-13 -4 -13 -29z" />
<glyph unicode="c" horiz-adv-x="878" d="M74 403q0 102 55 203t152 154q55 35 144 61.5t161 26.5q102 0 176 -27q59 -31 72 -59q8 -18 0 -41q-12 -31 -45 -72t-52 -51q-4 -2 -16 -1t-14 3q-4 4 -29 33t-41 43l-43 37q-27 23 -54.5 33t-56.5 10q-70 0 -111.5 -67.5t-41.5 -184.5q0 -139 63 -234q78 -109 221 -108 q121 0 220 82q10 -4 12 -15q2 -5 2 -13q0 -10 -3 -26q-5 -27 -14 -36q-72 -92 -169 -135.5t-191 -43.5q-199 0 -309 142q-88 108 -88 286z" />
<glyph unicode="d" horiz-adv-x="1083" d="M74 383q0 104 44 195.5t115 144.5q61 49 174 87t203 38h56q10 0 10 8q0 219 -6 277q-4 63 -43 77q-47 16 -111 23q-4 8 -2 35.5t10 29.5q88 0 228.5 20.5t199.5 41.5q14 -10 15 -37q-16 -23 -19.5 -58.5t-5.5 -162.5q-2 -125 -2 -553q0 -250 2 -332t35 -86q23 -4 88 -4 q2 -6 -4 -36t-10 -34q-55 -29 -187.5 -59.5t-171.5 -30.5q-10 0 -16 19q-2 8 -2 24.5t-1 40t-1 35.5q0 8 -10 4q-162 -111 -273 -110q-133 0 -221 110q-94 115 -94 293zM348 500q0 -164 66.5 -261.5t173.5 -97.5q41 0 69 19q14 10 17 37q3 110 3 212.5t-3 198.5 q-2 74 -55.5 113t-116.5 39q-51 0 -94 -43q-60 -65 -60 -217z" />
<glyph unicode="e" horiz-adv-x="917" d="M74 410q0 121 53 217t139 151q117 70 246 70q106 0 181 -53.5t104.5 -115t40.5 -128.5q2 -18 30 -29q2 -4 -3 -28.5t-9 -26.5q-78 -27 -508 -45q-8 -4 -8 -21q8 -98 78 -168q72 -70 194 -69q131 0 236 80q11 -11 10 -21q0 -20 -10 -61q-68 -84 -172.5 -135.5 t-204.5 -51.5q-172 0 -274 99q-123 117 -123 336zM336 528q0 -12 12 -12q55 -2 97 -2q85 0 122 8q12 4 13 19q-4 102 -38 163.5t-91 61.5q-51 0 -83 -67t-32 -171z" />
<glyph unicode="f" horiz-adv-x="612" d="M35 29.5q0 27.5 6 33.5q70 14 78 19q35 12 35 70q2 164 2 530q0 14 -11 14l-100 6q0 10 7 38t11 34q47 12 87 37q8 6 8 14q8 297 243 457q117 78 226 78q127 0 176 -68q3 -10 3 -27q0 -7 -1 -12q-10 -27 -47 -81t-56 -64q-4 -2 -16 -3t-16 1q-113 131 -181 131 q-29 0 -45 -23q-31 -41 -30 -233q0 -86 4 -147q0 -14 14 -15l197 6q-14 -76 -21 -129q-31 0 -91 1t-89 1q-10 0 -10 -12q4 -401 8 -514q2 -74 51 -88q35 -10 105 -21q4 -6 0 -35.5t-11 -33.5q-12 0 -99 3t-196 3q-57 0 -138 -3t-97 -3q-6 8 -6 35.5z" />
<glyph unicode="g" horiz-adv-x="968" d="M39 -279q0 53 12 80q14 14 185 117q4 4 0 8q-131 57 -138 172q6 27 8 33q143 78 177 102q2 2 2 6.5t-2 6.5q-211 68 -211 284q0 156 127 240q111 78 268 78q98 0 225 -41q72 -20 127 -21q53 0 77 7.5t48 33.5q4 2 17.5 -6t15.5 -12q0 -18 -18.5 -66.5t-34.5 -64.5 q-25 -25 -74 -25q-27 0 -41 2q-4 0 -4 -8q12 -29 12 -82q0 -162 -119 -252q-88 -68 -241 -75q-8 -2 -76 -2q-6 2 -17.5 -10.5t-11.5 -20.5q0 -45 70 -55q293 -27 354 -44q66 -18 116 -73.5t50 -143.5q0 -117 -75.5 -209t-200.5 -151q-113 -53 -252 -53q-150 0 -248 57 q-127 77 -127 188zM240 -217q0 -66 53 -119q76 -76 223 -76q115 0 171 44t56 108q0 74 -73 110q-92 49 -316 50q-39 0 -57 -15q-57 -41 -57 -102zM326 592q0 -143 38.5 -212t102.5 -69q39 0 65 33q41 45 41 166q0 117 -33.5 190.5t-105.5 73.5q-47 0 -77.5 -48t-30.5 -134z " />
<glyph unicode="h" horiz-adv-x="1087" d="M16 1286q227 12 402 74q6 -2 12 -15.5t4 -23.5q-27 -41 -26 -195v-378q0 -14 8 -7q156 106 262 107q127 0 196.5 -87t69.5 -251q0 -338 2 -379q0 -29 15 -35q35 -23 98 -33q3 -4 3 -15q0 -8 -1 -19q-4 -29 -12 -35q-4 0 -82 3t-160 3q-139 0 -219 -6q-8 8 -8 35.5t8 33.5 q33 6 53 15q35 12 37 86q4 120 4 207q0 157 -12 207q-10 53 -53.5 84.5t-100.5 31.5q-53 0 -94 -20q-12 -4 -12 -25q0 -440 2 -471q0 -4 1 -16t1 -16.5t1 -13.5t2 -13t3 -10.5t5 -9.5l7 -7q4 -4 9 -7t12 -5q27 -10 63 -17q8 -8 6 -33.5t-8 -35.5q-23 0 -98.5 3t-147.5 3 q-74 0 -147.5 -3t-85.5 -3q-8 10 -8 36.5t8 32.5q35 6 69 19q37 10 39 113q4 80 4 342q0 532 -8 612q-6 41 -37 53q-14 6 -86 19q-7 5 -7 28q0 32 7 37z" />
<glyph unicode="i" horiz-adv-x="563" d="M36 37q0 21 5 26q55 10 76 19q33 8 35 80q2 45 2 270q0 152 -2 186q0 37 -15 52q-20 23 -82 47q-4 8 -2 32.5t6 30.5q47 0 170 21.5t193 50.5q0 -39 -1 -163t-1 -185q0 -242 2 -336q0 -70 37 -86l78 -19q4 -4 3 -15q0 -8 -1 -18q-4 -28 -13 -36q-8 0 -89 3t-156 3 q-66 0 -144 -3t-96 -3q-5 10 -5 43zM133 1116q2 35 14 49q55 47 154 47q63 0 96 -26q16 -27 17 -78q0 -72 -58 -121q-14 -12 -72 -17q-22 -2 -40 -2q-27 0 -39 5q-51 20 -68 92q-5 12 -4 35q-1 7 0 16z" />
<glyph unicode="j" horiz-adv-x="567" d="M8 -440q92 45 123 123.5t31 261.5q0 565 -6 667q-4 59 -37 76q-20 14 -88 31q-6 12 -5 36.5t5 32.5q256 12 403 60v-319q0 -214 -2 -316q0 -178 -22 -272q-39 -170 -143.5 -289t-186.5 -154q-49 2 -72 35q-4 9 -4 16t4 11zM140 1125q3 30 16 42q53 53 157 54q59 0 90 -31 q18 -25 19 -76q0 -33 -16.5 -68.5t-40.5 -52.5q-14 -10 -74 -19q-31 -5 -51 -5q-17 0 -25 4q-59 31 -72 106q-4 11 -4 28q0 8 1 18z" />
<glyph unicode="k" horiz-adv-x="1026" d="M23 1263.5q0 24.5 4 30.5q92 2 216 23.5t179 42.5q4 -2 10 -17.5t4 -19.5q-23 -37 -24 -217q-4 -242 -4 -662q41 6 90 45q57 47 113.5 115t56.5 92q0 27 -35 37l-35 6l-40 7q-17 3 -19 4q-4 10 -1 37.5t9 31.5q42 -1 83 -1q184 0 337 16q6 -4 7 -33t-7 -39 q-113 -20 -166 -72q-133 -133 -168 -174v-10q29 -55 141.5 -204.5t163.5 -195.5q27 -25 48.5 -31.5t80.5 -11.5q4 -4 4 -15q0 -8 -2 -19q-4 -29 -12 -35q-59 -10 -269 -10q-80 2 -124 51q-51 53 -201 289q-37 55 -55 61q2 -109 2 -217q2 -49 13 -65.5t42 -24.5 q41 -10 65 -15q4 -8 0 -35.5t-12 -33.5q-16 0 -94 3t-152 3q-63 0 -140 -3t-99 -3q-8 8 -8 35.5t8 33.5q43 6 69 15q33 14 39 82q4 53 4 321q0 629 -4 668q-4 51 -37 61q-25 10 -77 21q-4 8 -4 32.5z" />
<glyph unicode="l" horiz-adv-x="555" d="M25 1282q92 8 218 32.5t175 45.5q6 -2 12 -12.5t4 -18.5q-18 -37 -22 -180q-2 -51 -2 -225v-271q0 -432 4 -491q4 -43 11 -57.5t36 -22.5q25 -8 71 -19q2 -4 2.5 -12.5t-2.5 -20.5q-4 -26 -10 -36q-8 0 -43 1t-93 3t-126 2q-72 0 -145.5 -3t-79.5 -3q-6 8 -7 33.5t5 35.5 q45 10 76 21q31 12 34 102q2 74 2 478q0 387 -6 487q-4 39 -28 49q-20 10 -88 19q-5 5 -6 23q1 28 8 40z" />
<glyph unicode="m" horiz-adv-x="1622" d="M38 39q0 21 5 24q35 6 68 19q37 12 41 90q4 59 4 220t-4 216q-4 31 -13 41q-14 23 -88 56q-4 10 0 34.5t10 28.5q92 12 200 39t155 49q10 -4 10 -14q-6 -37 -6 -119q0 -4 5 -5t9 1q166 129 273 129q141 0 211 -135q2 -8 12 0q176 135 289 135q119 0 189.5 -89t70.5 -243 q0 -297 2 -381q0 -20 8 -28q16 -18 110 -43q2 -5 3 -16q0 -8 -1 -19q-3 -27 -10 -35q-18 0 -101 3t-138 3q-199 -4 -232 -6q-4 8 -5 33.5t5 35.5q35 8 51 15q23 8 29 24.5t8 63.5q3 104 3 183q0 139 -9 204q-8 49 -43 86t-100 37q-61 0 -113 -39q-2 -2 -2 -12 q10 -51 10 -150v-330q0 -39 23 -53q29 -18 84 -29q4 -6 2 -34.5t-10 -34.5q-246 6 -256 6q-43 0 -209 -6q-4 10 -5 35.5t5 33.5q14 4 36.5 8.5t30.5 8.5q25 8 29 65q4 129 4 222q0 147 -10 198q-10 49 -43 84t-96 35q-55 0 -99 -33q-18 -12 -18 -39q0 -76 1 -230.5t1 -227.5 q0 -37 9 -52.5t38 -25.5q6 -2 25.5 -5t29.5 -8q4 -6 2 -33.5t-8 -35.5q-246 6 -248 6q-43 0 -227 -6q-7 12 -7 45z" />
<glyph unicode="n" horiz-adv-x="1097" d="M40 39q0 18 3 24q18 2 63 15q37 8 44 80q4 123 4 313q0 139 -4 160q-10 45 -97 76q0 45 10 61q211 25 345 90q8 -8 8 -16v-113q0 -4 4 -6t6 0q158 125 262 125q139 0 211 -111q55 -82 55 -241v-363q0 -23 17 -35q37 -27 98 -35q2 -5 2 -15q0 -8 -1 -19q-3 -27 -11 -35 q-2 0 -77 3t-159 3q-18 0 -227 -6q-4 10 -5 36.5t5 32.5l53 15q31 10 35 57q4 43 4 210t-10 222q-14 63 -62 95q-33 23 -88 22q-49 0 -94 -27q-16 -10 -16 -32q0 -63 1 -240.5t3 -234.5q2 -61 45 -74q14 -4 57 -13q4 -6 2 -33.5t-6 -35.5q-240 6 -244 6q-96 0 -231 -6 q-5 13 -5 45z" />
<glyph unicode="o" horiz-adv-x="1064" d="M74 416q0 231 184 350q127 82 289 82q209 0 326.5 -121t117.5 -307q0 -250 -186 -367q-125 -78 -281 -78q-223 0 -336.5 123t-113.5 318zM365 477q0 -205 55 -313.5t141 -108.5q41 0 64 23q72 63 71 284q0 186 -51 295t-145 109q-27 0 -56 -18q-79 -60 -79 -271z" />
<glyph unicode="p" horiz-adv-x="1075" d="M-3 -451q-1 9 -1 16q0 14 4 21q70 12 100 25q37 12 41 96q4 72 4 463q0 332 -6 426q-4 51 -35 68q-29 12 -84 24q-4 8 -2 34t7 34q72 10 186.5 47t181.5 67l1 1q3 0 9 -7q8 -8 9 -12q0 -6 -1 -48t-1 -63q0 -4 4 -6t6 0q176 113 268 113q129 0 213 -94q98 -111 98 -277 q0 -229 -165 -368q-74 -63 -180.5 -99.5t-194.5 -36.5q-35 0 -43 2q-6 0 -6 -10l-2 -86q0 -86 6 -168q2 -39 14 -57.5t45 -26.5q16 -4 117 -18q4 -10 0 -36t-10 -34h-54q-281 0 -520 -26q-6 9 -9 36zM405 439q2 -148 5 -210q4 -74 53 -114q47 -39 115 -39q57 0 96 47 q59 76 59 233q0 172 -65 252q-59 76 -154 76q-53 0 -88 -22q-18 -8 -21 -33q-1 -20 -1 -68t1 -122z" />
<glyph unicode="q" horiz-adv-x="1079" d="M74 389q0 104 48 193.5t128 146.5q74 53 186.5 86t214.5 33q160 0 314 -45q-12 -51 -19 -115q-6 -70 -6 -307q-1 -112 -1 -211q0 -249 7 -422q2 -66 14.5 -88t43.5 -33q31 -6 100 -14q2 -4 2 -15q0 -9 -1 -22q-3 -31 -9 -37h-174q-111 -2 -248 -13t-156 -11q-4 8 -5 34.5 t3 34.5q66 12 105 25q27 10 35 30.5t12 69.5q6 100 6 338q0 2 -3 6t-5 2q-51 -33 -130 -57.5t-122 -24.5q-141 0 -240.5 114t-99.5 302zM352 483q0 -182 78 -272t178 -90q39 0 58 10q8 4 8 16q0 453 -10 517q0 31 -25 47q-53 39 -133 39q-154 -1 -154 -267z" />
<glyph unicode="r" horiz-adv-x="770" d="M33 30.5q0 26.5 4 32.5q53 8 80 19q31 10 33 65q5 52 5 174q0 61 -1 140q0 133 -4 166q-2 14 -7.5 25.5t-29 27.5t-66.5 31q-2 10 2 32.5t8 24.5q68 6 178.5 32.5t165.5 57.5q10 0 17 -12q-8 -98 -8 -156q2 -8 10 -4q63 70 119 115q55 47 114 47q88 0 117 -62q3 -6 3 -17 t-3 -28q-4 -27 -34.5 -92t-55.5 -94q-4 -4 -14.5 -6t-14.5 0q-78 86 -162 86q-39 0 -59 -21q-12 -8 -12 -30q-1 -53 -2 -140q0 -43 1 -95q1 -155 3 -175q4 -49 13 -65.5t42 -24.5q29 -10 105 -21q4 -6 -0.5 -34.5t-10.5 -34.5q-8 0 -106 3t-189 3q-55 0 -135 -3t-102 -3 q-4 10 -4 36.5z" />
<glyph unicode="s" horiz-adv-x="782" d="M66 274q4 4 32.5 13.5t36.5 7.5q47 -158 133 -209q49 -31 111 -31q49 0 77.5 23.5t28.5 60.5q0 41 -28.5 70t-100.5 63q-156 74 -213 140.5t-57 162.5q0 117 90 194t256 77q78 0 146 -10q78 -12 100 -13q-12 -57 -25 -245q-8 -4 -34.5 -5.5t-32.5 0.5q-27 135 -90 177 q-39 23 -88 22q-43 0 -72 -24.5t-29 -61.5q0 -45 36 -78t163 -92q119 -53 166 -110.5t47 -143.5q0 -129 -107.5 -207t-259.5 -78q-131 0 -258 41q-20 102 -28 256z" />
<glyph unicode="t" horiz-adv-x="655" d="M29 705q0 43 18 83q63 14 82 23q6 0 10 16v174q47 14 125 51.5t103 57.5q20 5 34 5q7 0 13 -1q-8 -63 -8 -278q0 -16 8 -17q2 0 223 8q-18 -106 -21 -133q-61 2 -202 2q-8 0 -8 -12q0 -37 -1.5 -152.5t-1.5 -166.5q0 -113 9 -154q4 -35 31.5 -57.5t72.5 -22.5 q63 0 111 29q4 -6 3 -33t-5 -39q-84 -111 -246 -111q-154 0 -211 99q-20 39 -25.5 82t-5.5 145q0 53 1 192.5t1 180.5q0 16 -12 20q-14 2 -49 4.5t-49 4.5z" />
<glyph unicode="u" horiz-adv-x="1067" d="M26 769q3 26 9 34q297 12 381 33q-12 -92 -13 -371q0 -197 11 -232q23 -84 127 -83q57 0 98 32q14 14 14 31q4 35 4 143.5t-4 290.5q0 53 -35 64q-35 12 -106 22q-4 19 -4 34q0 23 10 36q219 0 410 31q-4 -37 -4 -213v-412q4 -63 37 -70q27 -2 83 -2q0 -55 -10 -71 q-57 -27 -189 -60t-167 -33q-6 4 -12 15q-10 37 -11 112q0 4 -4 5t-6 -1q-152 -125 -272 -124q-117 0 -174.5 69.5t-59.5 186.5v201q0 151 -2 202q-2 37 -9 53.5t-30 22.5q-53 14 -71 16q-2 7 -3 19q1 8 2 19z" />
<glyph unicode="v" horiz-adv-x="933" d="M-14 756q-4 10 0 37.5t10 31.5q215 -6 252 -6q80 0 227 6q6 -8 7 -34.5t-5 -34.5q-70 -16 -71 -19q-14 -6 -11 -24q37 -113 158 -416q2 -2 4 -1t2 3q104 244 139 360q20 61 -20 76q-45 14 -90 21q-6 10 -3 37.5t9 31.5q10 0 76.5 -3t109.5 -3t185 6q6 -6 5 -32.5 t-7 -36.5q-49 -8 -72 -19q-43 -16 -82 -100q-86 -178 -197 -451q-49 -129 -69 -190q-27 4 -76 3t-76 -5q-18 59 -63 176q-39 109 -154 381q-49 115 -69.5 145.5t-55.5 42.5q-12 5 -63 17z" />
<glyph unicode="w" horiz-adv-x="1347" d="M-35 793q2 27 6 32q20 0 107.5 -3t152.5 -3q61 0 242 8q8 -6 9 -34.5t-3 -36.5q-66 -16 -76 -21q-20 -14 -12 -37q31 -154 111 -385q2 -2 8 0q37 86 90 234.5t76 230.5q20 -4 71.5 -4t67.5 4q10 -39 47 -143l137 -336q8 0 9 2q78 195 114 365q1 8 2 15q0 35 -34 50 q-29 12 -109 25q-4 8 -1 36.5t9 32.5q2 0 74 -3t131 -3q55 0 197 6q5 -8 5 -42q0 -22 -5 -27q-53 -10 -80 -23q-49 -18 -80 -94q-106 -252 -238 -645q-30 4 -63 3q-41 0 -86 -5q-29 88 -92.5 247.5t-85.5 202.5q-6 6 -9 0q-147 -358 -180 -450q-23 4 -76 4t-73 -4 q-111 393 -187 598q-20 55 -28.5 74.5t-22.5 41t-35 29.5q-14 8 -88 21q-3 7 -2 21q-1 7 0 16z" />
<glyph unicode="x" horiz-adv-x="890" d="M-37 31q-1 9 -1 15q0 13 3 17q84 14 114 30t81 73q76 84 162 201q6 6 0 16q-80 143 -156 260q-39 61 -66.5 79.5t-111.5 31.5q-4 8 -3 37.5t9 33.5q4 0 44 -1t99.5 -3t110.5 -2q66 0 150.5 3t86.5 3q4 -6 5.5 -36.5t-3.5 -34.5q-43 -8 -51 -15q-20 -6 -8 -32 q47 -100 90 -158q2 -6 8 0q84 104 97 153q8 25 -13 35q-31 14 -67 17q-2 20 -2 35q0 30 8 36q12 0 71.5 -3t90.5 -3q92 0 178 6q6 -6 8 -32.5t-2 -38.5q-74 -14 -100.5 -26.5t-59.5 -47.5q-25 -27 -160 -205q-6 -4 -2 -14l132 -221q78 -117 106.5 -140.5t118.5 -36.5 q2 -8 -2 -35.5t-10 -33.5q-23 0 -114 3t-140 3q-178 -2 -238 -6q-4 8 -7 34.5t1 34.5q55 12 61 27q6 10 0 27q-61 109 -102 172q-2 8 -10 0q-106 -156 -107 -172q-4 -25 23 -37q10 -2 73 -17q2 -12 2 -22q0 -26 -10 -47q-18 0 -82.5 3t-97.5 3q-115 0 -201 -6q-4 10 -6 37z " />
<glyph unicode="y" horiz-adv-x="929" d="M-27 756q0 49 13 69l92 -2q92 -4 172 -4q59 0 237 6q4 -8 5.5 -33.5t-0.5 -35.5q-49 -12 -62 -19q-20 -10 -14 -39q43 -135 153 -393h9q106 233 127 361q8 53 -35 67q-31 14 -92 23q0 55 10 69q18 0 81.5 -3t104.5 -3q14 0 199 6q10 -33 2 -69q-45 -8 -76 -23 q-51 -23 -88 -121q-156 -414 -451 -952l-71 -131l-25 -8q-29 2 -78 21.5t-63 41.5q-8 27 2 43q215 246 287 387q-8 12 -29 54l-201 475q-45 111 -69.5 145.5t-65.5 48.5q-6 3 -74 19z" />
<glyph unicode="z" horiz-adv-x="856" d="M47 559q20 92 53 283q61 -23 166 -23h307q96 0 187 4q4 -2 7 -17t1 -22q-25 -61 -156 -304.5l-209 -377.5q-3 -4 3 -10q61 -12 182 -12q82 0 172 201q12 12 71 12l5 -2q4 -4 6 -4q-23 -119 -88 -267q-16 -31 -70 -30q-63 0 -316 6q-190 5 -265 5q-25 0 -37 -1 q-12 31 -9 41q27 47 98 162l116 190l99.5 172t82.5 158q6 10 -7 10q-111 0 -141 -2q-74 -6 -104.5 -37.5t-83.5 -154.5q-10 -4 -36 4t-34 16z" />
<glyph unicode="{" horiz-adv-x="892" d="M102 535q-2 4 -1 11q0 9 2 24q5 28 14 32q154 6 189 80q23 47 23 129q0 47 -7 104q-14 129 -15 187q0 201 121 305t332 121q4 -2 8 -32t0 -38q-154 -31 -213 -97.5t-59 -187.5q0 -47 13 -161.5t13 -167.5q0 -213 -237 -273v-10q254 -27 254 -270q0 -66 -12.5 -180.5 t-12.5 -159.5q0 -129 74 -184.5t196 -69.5q2 -2 2 -9q0 -10 -4 -29q-6 -32 -12 -36h-25q-161 0 -285 75q-134 81 -136 245q0 53 14 204q11 154 11 198q0 73 -53 121q-57 51 -194 69z" />
<glyph unicode="|" horiz-adv-x="608" d="M221 -635v2089h166v-2089h-166z" />
<glyph unicode="}" horiz-adv-x="892" d="M106 1448q-2 10 4.5 40t10.5 34h24q161 0 286 -76q134 -82 136 -244q0 -53 -14 -205q-9 -116 -9 -178q0 -35 3 -53q20 -109 149 -148q41 -12 97 -20q2 -10 -4.5 -36.5t-14.5 -33.5q-106 -2 -157.5 -43t-54.5 -108q-1 -16 -1 -33q0 -57 8 -129q14 -129 15 -172 q0 -201 -121 -305.5t-332 -120.5q-6 4 -10 34t2 36q156 35 214 97t58 187q0 47 -13 154.5t-13 161.5q0 213 239 276v12q-256 27 -256 265q0 66 12.5 186.5t12.5 167.5q0 129 -74 184.5t-197 69.5z" />
<glyph unicode="~" horiz-adv-x="1120" d="M92 352q0 18 9.5 60.5t13.5 48.5q43 55 138 111.5t159 56.5q72 0 200 -62q111 -51 162 -51q119 0 234 131h4q6 0 12 -2t8 -4q0 -57 -14 -100q-35 -61 -121 -120t-180 -59q-63 0 -205 74q-92 43 -164 43q-51 0 -127 -48t-112 -89q-2 -2 -5 -2t-6 2q-6 4 -6 10z" />
<glyph unicode="&#xa1;" horiz-adv-x="612" d="M111 -377q0 45 49 342t80 451q12 2 47 -4t41 -13l27.5 -132l25 -120l21 -103l19 -92.5l15.5 -75.5t12.5 -65t8.5 -49.5t5.5 -39.5t1.5 -24q0 -12 -9 -31q-12 -26 -29 -34q-39 -16 -123 -25q-69 -8 -110 -8q-9 0 -17 1q-38 -1 -65 22zM117 700q0 61 45 111q43 43 123 43 q63 0 106 -41q41 -47 41 -117q0 -68 -51 -114q-47 -41 -109 -41q-63 0 -104 34q-51 47 -51 125z" />
<glyph unicode="&#xa2;" d="M125 584q0 106 59.5 202.5t163.5 151.5q109 63 256 80l14 160q37 12 87 12l-19 -168q96 0 168 -27q66 -29 78 -55q1 -6 1 -12q0 -13 -5 -27q-8 -18 -34 -50t-40 -40q-14 -4 -27 0q-8 8 -26.5 28.5l-31.5 34t-36.5 30t-48.5 24.5q-6 2 -10 -8l-53 -590q10 0 28.5 -1 t26.5 -1q131 0 239 92q10 -14 10 -42q0 -12 -1 -26q-117 -147 -312 -188q-10 0 -10 -10l-16 -166q-31 -8 -86 -8l18 172q0 8 -8 8q-190 16 -295 137q-90 101 -90 287zM387 649q0 -231 150 -297l57 576q0 10 -8 10q-82 -10 -140.5 -85t-58.5 -204z" />
<glyph unicode="&#xa3;" d="M39 -14q4 23 25.5 91t27.5 75q31 25 82 51q20 10 30.5 21.5t22.5 90.5q7 48 8 119q0 47 -4 105q-111 0 -151 4q-4 4 -4 14q6 47 26 72q4 0 48.5 -1t78.5 -1v20q0 255 101 381q80 100 190.5 145.5t172 45.5t106.5 -12.5t62.5 -27t17.5 -24.5q0 -31 -17.5 -79t-36.5 -72 q-2 -6 -14 -6.5t-16 3.5l-27 27q-27 29 -38 38l-36 29q-25 19 -47 26t-45 7q-35 0 -53 -36q-33 -61 -33 -455q0 -10 10 -10q154 0 238 6q2 -4 1 -17.5t-5 -17.5q-35 -43 -80 -51q-66 -10 -162 -10q-10 0 -10 -9q-45 -195 -201 -305q23 4 58 5q63 0 163 -15q147 -23 189 -23 q90 0 134 31t91 146q2 2 9 3t10 -1q31 -31 32 -50q-53 -178 -142 -275t-192 -97q-74 0 -217 45q-164 49 -227 49q-76 0 -145 -74q-4 0 -16.5 7.5t-14.5 11.5z" />
<glyph unicode="&#xa4;" d="M113 211q-2 17 -2 29q0 17 4 22q23 31 57.5 65.5t44.5 47.5v14q-43 86 -43 180q0 123 59 211l-106 123q-4 12 -4 27q0 8 22.5 52t38.5 62q2 2 13.5 2.5t15.5 -2.5q84 -109 123 -145q6 -6 16 0q82 61 205 62q88 0 168 -50q2 -2 6 -2t6 2q78 88 101 103q20 10 110 10 q8 -8 8 -25q-70 -76 -145 -174q55 -82 55 -202q0 -127 -67 -224q-4 -10 0 -20q113 -129 149 -164q0 -18 -10 -29q-25 -8 -77 -14t-62 0q-90 76 -121 113q-80 -59 -193 -60q-111 0 -190 68l-145 -146q-1 -1 -4.5 -1t-8.5 1q-10 2 -12 5q-8 16 -12 59zM319 614 q0 -127 65 -193.5t159 -66.5q176 0 176 226q0 109 -61.5 185.5t-155.5 76.5q-90 0 -136.5 -65t-46.5 -163z" />
<glyph unicode="&#xa5;" d="M-4 1168q2 26 8 34q31 0 118 -3t144 -3q150 0 260 6q6 -8 6 -36.5t-4 -32.5q-29 -4 -55 -13q-25 -7 -24 -31q0 -12 6 -28q49 -133 145 -338q2 -4 12 0q94 188 144 328q3 12 3 21q0 32 -36 42q-27 10 -90 19q-2 12 0 38.5t8 30.5q6 0 71.5 -4t123.5 -4q55 0 118.5 4 t75.5 4q4 -6 4 -35.5t-4 -33.5q-45 -6 -67 -15q-45 -16 -74 -42.5t-64 -94.5q-125 -246 -176 -369q-2 -4 1 -8t7 -4q43 0 81 1t57.5 2t27.5 1q1 -8 1 -17q0 -27 -9 -61q-10 0 -59 1t-99 1q-8 0 -8 -8v-104q0 -12 8 -13q31 0 94.5 1.5t69.5 1.5q2 -11 2 -23q0 -29 -12 -55 q-8 0 -56 1t-98 1q-8 0 -8 -11q0 -27 1 -65.5t1 -56.5q2 -35 5 -53.5t18.5 -36t42.5 -23.5q8 -2 108 -21q4 -6 1 -33.5t-7 -35.5q-39 0 -154.5 3t-177.5 3q-53 0 -144 -3t-146 -3q-6 4 -6.5 35.5t6.5 33.5q78 8 110 19q61 14 62 111q2 37 2 129q0 8 -6 8q-66 -2 -110 -3 t-60 -1q0 66 14 80h37q39 -2 117 -3q8 0 8 9v100q0 14 -13 14q-51 0 -100 -1t-57 -1q6 70 14 78q4 0 51 -1t90 -1q4 0 5.5 5t-1.5 9q-74 193 -174 379q-33 70 -59.5 94.5t-65.5 34.5q-20 4 -63 11q-3 7 -3 20q0 6 1 15z" />
<glyph unicode="&#xa6;" horiz-adv-x="610" d="M219 260h170v-727h-170v727zM219 580v712h170v-712h-170z" />
<glyph unicode="&#xa7;" horiz-adv-x="976" d="M82 686q0 221 145 381q51 59 134 103t151 44q145 0 238 -88q31 -25 30 -57q0 -45 -37 -100l-14 -4q-35 31 -110.5 76.5t-106.5 45.5q-35 0 -39 -45q0 -39 31 -110q29 -61 217 -352q131 -195 131 -347q0 -150 -84 -280q-61 -104 -167.5 -174t-188.5 -70q-156 0 -265 101 q-31 31 -30 59q0 10 13 52t26 59q8 4 12 4q66 -76 146.5 -112t121.5 -36q35 0 35 41q0 45 -49 119q-8 14 -160 233q-180 269 -180 457zM205 821q0 -180 164 -436q8 -14 61 -91t79 -119t53.5 -106.5t27.5 -107.5q1 -11 1 -22q0 -48 -16 -84q139 74 140 256q0 76 -25.5 153.5 t-51.5 122.5l-83 137q-6 10 -34.5 52.5t-39 60.5l-34 57t-35 63.5t-25.5 59.5t-20.5 66.5t-8.5 62.5q-1 12 -1 25q0 54 22 114q-76 -12 -125 -92t-49 -172z" />
<glyph unicode="&#xa8;" horiz-adv-x="819" d="M109 1065q-3 23 -3 41q0 35 11 47q45 45 131 45q57 0 78 -27q14 -27 14 -67q0 -57 -49 -107q-10 -10 -60 -14q-20 -2 -33 -2q-21 0 -30 4q-45 27 -59 80zM475 1065q-3 22 -3 39q0 34 11 49q18 18 58.5 31.5t72.5 13.5q53 0 80 -27q12 -23 13 -67q0 -61 -50 -107 q-10 -10 -59 -14q-20 -2 -34 -2q-21 0 -29 4q-42 27 -60 80z" />
<glyph unicode="&#xa9;" horiz-adv-x="1492" d="M100 627q0 272 189.5 463.5t458.5 191.5q272 0 459.5 -190.5t187.5 -465t-189.5 -467t-457.5 -192.5q-270 0 -459 190.5t-189 469.5zM186 626.5q0 -241.5 166 -411.5t400 -170q229 0 393 172t164 410q0 242 -165 411.5t-396.5 169.5t-396.5 -170t-165 -411.5zM371 627 q0 164 113.5 274.5t324.5 110.5q61 0 143 -11q66 -8 111 -8q-14 -88 -19 -213q-4 -4 -28.5 -6t-28.5 2q-14 104 -67 144q-47 35 -111 34q-98 0 -152.5 -89t-54.5 -226q0 -78 18.5 -146.5t74 -123t141.5 -54.5q94 0 192 144q6 0 24.5 -12.5t18.5 -18.5q-10 -37 -46 -95.5 t-50 -66.5q-72 -23 -174 -22q-201 0 -315.5 101.5t-114.5 281.5z" />
<glyph unicode="&#xaa;" horiz-adv-x="647" d="M45 604q0 49 23 80q23 14 137 47t139 45q10 10 10 17q2 8 2 22q0 51 -18 76q-35 47 -98 47q-47 0 -64 -20q-20 -20 -45 -78q-4 -4 -33.5 6t-29.5 16q0 8 13 48t19 46q53 39 121 65t105 26q55 0 107 -27t75 -66q41 -57 41 -147q0 -33 -3 -100.5t-3 -96.5q0 -57 51 -57 q23 0 55 8q2 -3 2 -10q0 -9 -3 -25q-5 -29 -11 -34q-27 -29 -81 -46.5t-101 -17.5q-78 0 -95 53q-4 4 -8 25l-8 2q-113 -78 -158 -78q-51 0 -88 37q-53 49 -53 137zM233 635q0 -84 80 -84q14 0 27 8q10 6 10 23q4 94 4 137q0 8 -6 8q-78 -31 -100 -53q-15 -6 -15 -39z" />
<glyph unicode="&#xab;" horiz-adv-x="1374" d="M145 360q6 41 17 60q141 59 317 168.5t252 171.5q8 -4 10 -12q0 -16 -6 -53.5t-8 -39.5q-35 -39 -144.5 -118.5t-195.5 -133.5q-8 -8 -2 -14q78 -47 185.5 -132t142.5 -128q6 -6 8 -44t0 -52q-2 -4 -14 -10q-49 49 -259.5 176.5t-302.5 160.5zM633 360q8 45 18 60 q137 61 316.5 171.5t251.5 168.5l10 -12q0 -16 -6 -53.5t-9 -39.5q-33 -39 -142 -117.5t-198 -134.5q-8 -8 -2 -14q78 -47 185.5 -132t142.5 -128q6 -6 9 -43t1 -53q-6 -10 -14 -10q-53 49 -262 176.5t-301 160.5z" />
<glyph unicode="&#xac;" horiz-adv-x="1120" d="M102 573q20 104 35 129q23 -4 389 -4h164q76 0 123 1t81 1h52h21q2 0 7 -5t5 -9q0 -10 -1 -160.5t-1 -226.5q0 -133 4 -186q-68 -23 -131 -23q-4 0 -9 6t-5 10q-2 88 -2 394q0 59 -35 59h-625q-72 0 -72 14z" />
<glyph unicode="&#xad;" horiz-adv-x="620" d="M76 358q2 33 13 86.5t17 53.5l439 12v-25q-2 -27 -15.5 -80t-21.5 -55q-12 -4 -195.5 -9t-234.5 -5q-2 18 -2 22z" />
<glyph unicode="&#xae;" horiz-adv-x="665" d="M51 963q0 119 83 201.5t200 82.5q119 0 200.5 -81t81.5 -203q0 -119 -81.5 -202t-200.5 -83t-201 81t-82 204zM113 963q0 -94 64.5 -162t156.5 -68q94 0 157.5 67.5t63.5 162.5q0 96 -64.5 163.5t-156.5 67.5q-96 0 -158.5 -66.5t-62.5 -164.5zM188 866q41 6 41 27v156 q0 23 -36 24q-2 2 -2.5 15.5t4.5 15.5q6 0 32.5 -1t38.5 -1h109q82 0 82 -68q0 -47 -56 -65q33 -57 54 -78q3 -3 15.5 -10.5t23.5 -13t11 -6.5q0 -3 -2 -10q-3 -11 -7 -13q-3 -1 -13 -1t-27 1q-34 2 -48 4q-18 6 -33 24q-10 14 -24 38l-19 34q-6 16 -17 16v-59q0 -18 35 -27 q2 -4 2 -14t-2 -14q-6 0 -34.5 2t-43.5 2q-12 0 -45.5 -2t-38.5 -2q-2 7 -2 13.5t2 12.5zM315 981q27 0 41 6q20 10 21 35q0 49 -49 49q-12 0 -13 -12v-78z" />
<glyph unicode="&#xaf;" horiz-adv-x="819" d="M164 997q2 16 16.5 77t18.5 65q37 -4 98 -4h358q0 -23 -14 -78.5t-20 -57.5q-29 -6 -385 -6q-60 0 -72 4z" />
<glyph unicode="&#xb0;" horiz-adv-x="612" d="M49 985q0 119 72 185.5t174 66.5q111 0 172 -69.5t61 -178.5q0 -100 -71.5 -168.5t-167.5 -68.5q-102 0 -171 64.5t-69 168.5zM154 999q0 -70 41 -105.5t98 -35.5q59 0 96 32t37 97q0 57 -38 100t-103 43q-55 0 -93 -38t-38 -93z" />
<glyph unicode="&#xb1;" horiz-adv-x="1120" d="M90 33q6 86 25 123q14 -4 233 -4h678l4 -19q0 -18 -11 -65.5t-20 -49.5l-907 -6q-2 1 -2 21zM90 641q12 92 25 123q20 -6 239 -6h129v127q0 168 -4 225q14 6 66.5 16.5t64.5 10.5q10 0 11 -72v-289q0 -18 12 -18h391q8 -4 8 -21q-23 -109 -37 -110q-10 -2 -67.5 -2 t-150.5 -1t-144 -1q-12 0 -12 -17q0 -51 -1 -136q-2 -85 -2 -142v-64q-2 -8 -47 -22.5t-69 -18.5q-16 0 -17 8v65q0 52 -1 148.5t-1 178.5q-143 -2 -387 -2q-6 0 -6 20z" />
<glyph unicode="&#xb2;" horiz-adv-x="731" d="M51 1327q59 94 139 145.5t162 51.5q102 0 171 -69t69 -169q0 -66 -32 -120t-109 -126q-12 -12 -134 -104q0 -10 5 -12q41 -4 208 -4q57 4 111 108q4 4 27.5 -5t27.5 -15q-51 -188 -80 -230q-16 -31 -81 -35q-18 -1 -46 0q-54 0 -142 2q-132 4 -187 5q-66 0 -94 -2 q-2 6 -3 57q158 109 242 207q78 98 78 209q0 59 -34 100t-97 41q-78 0 -162 -82q-6 -2 -22.5 18.5t-16.5 28.5z" />
<glyph unicode="&#xb3;" horiz-adv-x="714" d="M63 889q2 8 21.5 18.5t26.5 7.5q37 -76 104 -114q43 -25 104 -25q115 0 115 125q0 76 -54 123t-134 47q-23 0 -41 -2q-2 6 12 42t21 42q156 29 155 111q0 49 -34.5 83.5t-90.5 34.5q-78 0 -155 -69q-4 0 -16.5 21.5t-12.5 29.5q133 160 274 160q96 0 154.5 -52.5 t58.5 -130.5q0 -86 -120 -153q-4 -4 0 -6q190 -55 190 -201q0 -129 -145 -215q-109 -63 -228 -64q-86 0 -131 23q-29 16 -45 47q-21 64 -29 117z" />
<glyph unicode="&#xb4;" horiz-adv-x="819" d="M326 938q100 274 116 309q16 8 102 13q34 2 57 1q35 0 46 -4q2 -2 5 -13q2 -7 2 -11q0 -6 -5.5 -16.5t-19 -28l-25.5 -32l-36 -42.5l-39 -46q-108 -130 -144 -165q-1 -1 -3 -1q-8 0 -29 12q-25 16 -27 24z" />
<glyph unicode="&#xb5;" horiz-adv-x="1007" d="M117 774q14 14 102 40t127 28q27 0 43 -4q0 -25 -9 -240t-9 -285q0 -41 8 -63q23 -61 84 -62q53 0 93 39t56 103q10 51 11 82v368q12 14 96 37t127 25q29 0 41 -6q-29 -158 -29 -385q0 -20 -1 -81t-1 -67q0 -119 57 -119q33 0 86 27q2 -2 4.5 -26.5t0.5 -34.5 q-39 -80 -111 -128.5t-131 -48.5q-66 0 -100.5 42t-36.5 175q0 2 -4.5 2.5t-6.5 -2.5q-55 -117 -120.5 -167t-114.5 -50q-74 0 -100 50q-6 -57 -5 -173q4 -98 66.5 -150t173.5 -77q2 -4 -4 -29.5t-10 -29.5q-25 -25 -97.5 -53.5t-119.5 -28.5q-117 0 -136 248 q-8 141 -12 495z" />
<glyph unicode="&#xb6;" horiz-adv-x="1204" d="M96 752q0 106 42 191t113 139.5t149.5 86t164.5 43.5q106 14 314 24.5t217 10.5q5 -6 4 -24v-13q-2 -29 -6 -39q-10 -2 -31 -4t-38 -4t-34 -6q-39 -10 -53 -26.5t-25 -101.5q-9 -71 -8 -209v-58v-291v-291q0 -170 -37 -296t-96 -191.5t-120.5 -96t-121.5 -30.5 q-49 0 -95 22.5t-62 53.5q-25 54 -25 137v24q2 16 23 29q117 -90 252 -90q102 0 133 113q26 94 25 327q0 47 -1 99q-92 -41 -182 -45q-236 29 -369 166t-133 350zM553 748q0 -162 54.5 -270.5t170.5 -121.5q-8 385 -8 492q0 231 27 285q-123 -10 -183.5 -98t-60.5 -287z" />
<glyph unicode="&#xb7;" horiz-adv-x="532" d="M102 393q0 74 50 121q55 51 116 51q66 0 109 -43q53 -49 53 -133q0 -70 -45 -115q-47 -49 -127 -49q-61 0 -108 45q-48 47 -48 123z" />
<glyph unicode="&#xb8;" horiz-adv-x="817" d="M221 -381q-1 7 -1 14q0 24 11 41q66 -33 127 -32q76 0 76 59q0 72 -147 117q0 12 2 20q0 2 28 38l66 80l45 54l72 -2l-64 -82q70 -41 90 -59q49 -43 49 -105q0 -84 -84.5 -143t-148.5 -59q-88 0 -121 59z" />
<glyph unicode="&#xb9;" horiz-adv-x="692" d="M102 777.5q0 25.5 4 27.5q14 2 39 5t37 7q29 4 39 22.5t12 59.5q4 106 5 227q0 184 -5 222q-4 39 -32 45q-8 2 -38 5t-40 5q-4 4 -3 29.5t5 29.5q197 14 328 66q2 1 4 1q3 0 8 -2q8 -3 8 -5q-6 -49 -6 -211q0 -352 2 -406q6 -78 45 -86q27 -6 78 -12q1 -2 1 -9.5 t-1 -21.5q-2 -27 -6 -33q-39 0 -120 3.5t-136 3.5q-59 0 -125 -3.5t-99 -3.5q-4 9 -4 34.5z" />
<glyph unicode="&#xba;" horiz-adv-x="784" d="M55 741q0 164 131 244q96 61 215 62q154 0 241 -86.5t87 -217.5q0 -180 -137 -260q-78 -53 -205 -53q-162 0 -247 85t-85 226zM281 780q0 -143 35.5 -211.5t93.5 -68.5q94 0 94 202q0 272 -127 273q-43 0 -69.5 -52.5t-26.5 -142.5z" />
<glyph unicode="&#xbb;" horiz-adv-x="1374" d="M145 33q0 80 15 94q70 82 338 254q6 4 2 10q-76 45 -183.5 132t-144.5 130q-6 6 -8 45t0 52q2 2 8 6l4 4q53 -49 264 -179t301 -161q-10 -49 -20 -60q-137 -61 -317.5 -171.5t-247.5 -165.5q-7 4 -11 10zM633 33q0 16 6 53t8 41q70 82 338 254q6 4 2 10 q-76 45 -183.5 132t-144.5 130q-6 6 -7 45t1 52q0 4 13 10q51 -49 262 -178t301 -162q-10 -47 -19 -60q-139 -57 -318 -167.5t-249 -169.5q-6 4 -10 10z" />
<glyph unicode="&#xbc;" horiz-adv-x="1673" d="M125 474.5q0 25.5 4 27.5q14 2 39 5t37 7q29 4 39 22.5t12 59.5q4 106 4 227q0 184 -4 221q-4 39 -33 46q-8 2 -37.5 5t-40.5 5q-4 4 -3 29.5t5 29.5q197 14 328 66q4 2 12.5 -1t8.5 -5q-6 -49 -7 -211q0 -352 3 -406q6 -78 45 -86q27 -6 77 -12q2 -4 0 -31t-6 -33 q-39 0 -119.5 3t-136.5 3q-59 0 -124.5 -3t-98.5 -3q-4 9 -4 34.5zM426 -76q8 18 395 688t396 678q0 1 8.5 1t25.5 -1q35 -2 41 -4q6 -6 2 -12q-14 -20 -398 -687t-413 -712q-5 -5 -11 -5l-5 1q-25 22 -41 53zM897 186q-2 6 1 34t7 34q342 449 371 483q66 16 147 17 q0 -291 2 -451q2 -6 7 -6q35 0 82 1t57 1q-18 -72 -21 -115q-10 0 -49 1t-67 1q-6 0 -7 -6l3 -225q-119 0 -224 -16l2 241q0 6 -4 6l-141 2q-45 0 -99.5 -1t-66.5 -1zM1024 303q0 -8 2 -8q10 0 66.5 -1t111.5 -1q4 0 4 8l4 258q-1 1 -2 1l-2 -1q-63 -74 -184 -256z" />
<glyph unicode="&#xbd;" horiz-adv-x="1673" d="M100 474.5q0 25.5 4 27.5q14 2 39 5t37 7q29 4 39 22.5t12 59.5q4 106 5 227q0 184 -5 221q-4 39 -32 46q-8 2 -38 5t-40 5q-4 4 -3 29.5t5 29.5q197 14 328 66q4 2 12 -1t8 -5q-6 -49 -6 -211q0 -352 2 -406q6 -78 45 -86q27 -6 78 -12q2 -4 0 -31t-6 -33q-39 0 -120 3 t-136 3q-59 0 -125 -3t-99 -3q-4 9 -4 34.5zM389 -76q8 18 395 688t396 678q0 1 8.5 1t25.5 -1q35 -2 41 -4q6 -6 2 -12q-14 -20 -398 -687t-413 -712q-5 -5 -10 -5l-6 1q-25 22 -41 53zM956 553q59 94 139.5 145.5t161.5 51.5q102 0 171 -69t69 -169q0 -66 -31.5 -120 t-109.5 -126q-12 -12 -133 -104q0 -10 4 -12q41 -4 209 -5q57 4 110 109q4 4 27.5 -5t28.5 -16q-51 -188 -80 -229q-16 -31 -82 -35q-18 -1 -46 0q-54 0 -142 2q-132 4 -187 4q-66 0 -94 -2q-2 6 -2 58q158 109 241 207q78 98 78 208q0 59 -33.5 100.5t-97.5 41.5 q-78 0 -162 -82q-6 -2 -22.5 18.5t-16.5 28.5z" />
<glyph unicode="&#xbe;" horiz-adv-x="1673" d="M117 586q2 8 21.5 18t25.5 8q37 -76 104 -114q43 -25 105 -25q115 0 114 125q0 76 -54 123t-134 47q-23 0 -41 -2q-2 6 12.5 42t20.5 42q156 29 155 111q0 49 -34.5 83.5t-89.5 34.5q-78 0 -156 -69q-4 0 -16.5 21.5t-12.5 29.5q133 160 275 160q96 0 154.5 -52.5 t58.5 -130.5q0 -86 -121 -153q-4 -4 0 -6q190 -55 190 -201q0 -129 -145 -215q-109 -63 -227 -64q-86 0 -132 23q-29 16 -45 47q-20 64 -28 117zM440 -76q8 18 395.5 688t395.5 678q0 1 8.5 1t26.5 -1q35 -2 41 -4q6 -6 2 -12q-14 -20 -398.5 -687t-412.5 -712q-5 -5 -11 -5 l-6 1q-25 22 -41 53zM899 186q-2 6 1 34t7 34q342 449 371 483q66 16 147 17q0 -291 2 -451q2 -6 7 -6q33 0 82 1t57 1q-18 -72 -21 -115q-12 0 -49 1t-67 1q-6 0 -6 -6l2 -225q-119 0 -224 -16l2 241q0 6 -4 6l-141 2q-45 0 -99.5 -1t-66.5 -1zM1026 303q0 -8 2 -8 q10 0 66.5 -1t111.5 -1q4 0 4 8l4 258q-1 1 -2 1l-2 -1q-63 -74 -184 -256z" />
<glyph unicode="&#xbf;" horiz-adv-x="743" d="M86 -92q0 92 37 125q18 18 47 37.5t88 51.5l66 36q35 18 34 49q0 45 -57 102q-12 14 8 35q10 10 67.5 38t74.5 32q31 4 53 -6q49 -20 77.5 -60.5t28.5 -77.5q0 -53 -24 -67q-20 -14 -116.5 -62.5l-115.5 -58.5q-49 -27 -49 -76q0 -117 248 -182q12 -4 51 -14 q29 -6 29 -41q0 -23 -30 -82.5t-54 -75.5q-27 -23 -66 -23q-139 0 -260 93q-137 100 -137 227zM252 698q0 61 45 111q43 43 123 43q63 0 106 -41q43 -45 43 -117q0 -66 -53 -114q-47 -41 -108 -41q-63 0 -105 34q-51 49 -51 125z" />
<glyph unicode="&#xc0;" horiz-adv-x="1284" d="M-46 36q0 21 5 27q109 16 146.5 44t76.5 120q158 373 330 869q35 86 41 143q61 -4 106.5 -4t102.5 4l35 -119l135 -380l168 -466q51 -131 85 -161.5t146 -49.5q2 -4 3 -14q0 -8 -2 -20q-3 -29 -9 -35q-12 0 -109.5 3t-189.5 3q-98 0 -192.5 -3t-120.5 -3q-4 10 -4 36.5 t4 32.5q82 16 100 29q29 16 20 39q-29 115 -94 281q-14 14 -20 14h-156q-135 0 -164 -2q-12 0 -22 -19q-78 -225 -78 -253q4 -57 57 -68q45 -10 101 -21q4 -6 1 -34.5t-7 -34.5q-23 0 -107 3t-152 3q-39 0 -117.5 -3t-113.5 -3q-5 10 -5 42zM358 1487v31q12 20 71.5 66 t82.5 48q25 -16 115 -123q13 -16 51 -57.5t56 -65t18 -35.5q0 -8 -18 -28q-22 -25 -27 -25q-14 0 -165 82t-184 107zM428 561q-1 -5 -1 -8q0 -6 5 -6q23 -2 117 -2q117 0 137 2q6 0 6 10q-80 250 -129 383h-8l-69 -203z" />
<glyph unicode="&#xc1;" horiz-adv-x="1284" d="M-46 36q0 21 5 27q109 16 146.5 44t76.5 120q158 373 330 869q35 86 41 143q61 -4 106.5 -4t102.5 4l35 -119l135 -380l168 -466q51 -131 85 -161.5t146 -49.5q2 -4 3 -14q0 -8 -2 -20q-3 -29 -9 -35q-12 0 -109.5 3t-189.5 3q-98 0 -192.5 -3t-120.5 -3q-4 10 -4 36.5 t4 32.5q82 16 100 29q29 16 20 39q-29 115 -94 281q-14 14 -20 14h-156q-135 0 -164 -2q-12 0 -22 -19q-78 -225 -78 -253q4 -57 57 -68q45 -10 101 -21q4 -6 1 -34.5t-7 -34.5q-23 0 -107 3t-152 3q-39 0 -117.5 -3t-113.5 -3q-5 10 -5 42zM428 561q-1 -5 -1 -8q0 -6 5 -6 q23 -2 117 -2q117 0 137 2q6 0 6 10q-80 250 -129 383h-8l-69 -203zM545 1343q55 59 150.5 153.5t123.5 113.5q20 0 74.5 -44t64.5 -67q2 -2 2.5 -11t-2.5 -11q-27 -25 -191.5 -107t-178.5 -82q-6 0 -24.5 22.5t-18.5 32.5z" />
<glyph unicode="&#xc2;" horiz-adv-x="1284" d="M-46 36q0 21 5 27q109 16 146.5 44t76.5 120q158 373 330 869q35 86 41 143q61 -4 106.5 -4t102.5 4l35 -119l135 -380l168 -466q51 -131 85 -161.5t146 -49.5q2 -4 3 -14q0 -8 -2 -20q-3 -29 -9 -35q-12 0 -109.5 3t-189.5 3q-98 0 -192.5 -3t-120.5 -3q-4 10 -4 36.5 t4 32.5q82 16 100 29q29 16 20 39q-29 115 -94 281q-14 14 -20 14h-156q-135 0 -164 -2q-12 0 -22 -19q-78 -225 -78 -253q4 -57 57 -68q45 -10 101 -21q4 -6 1 -34.5t-7 -34.5q-23 0 -107 3t-152 3q-39 0 -117.5 -3t-113.5 -3q-5 10 -5 42zM360 1335q53 39 150.5 119 t118.5 105q18 12 43 12q18 -18 128.5 -109.5t155.5 -124.5q0 -8 -15 -31.5t-19 -23.5q-10 0 -124 46t-143 61q-8 4 -18 0q-35 -18 -136.5 -62.5t-109.5 -44.5t-21.5 22.5t-9.5 30.5zM428 561q-1 -5 -1 -8q0 -6 5 -6q23 -2 117 -2q117 0 137 2q6 0 6 10q-80 250 -129 383h-8 l-69 -203z" />
<glyph unicode="&#xc3;" horiz-adv-x="1284" d="M-46 36q0 21 5 27q109 16 146.5 44t76.5 120q158 373 330 869q35 86 41 143q61 -4 106.5 -4t102.5 4l35 -119l135 -380l168 -466q51 -131 85 -161.5t146 -49.5q2 -4 3 -14q0 -8 -2 -20q-3 -29 -9 -35q-12 0 -109.5 3t-189.5 3q-98 0 -192.5 -3t-120.5 -3q-4 10 -4 36.5 t4 32.5q82 16 100 29q29 16 20 39q-29 115 -94 281q-14 14 -20 14h-156q-135 0 -164 -2q-12 0 -22 -19q-78 -225 -78 -253q4 -57 57 -68q45 -10 101 -21q4 -6 1 -34.5t-7 -34.5q-23 0 -107 3t-152 3q-39 0 -117.5 -3t-113.5 -3q-5 10 -5 42zM346 1372q20 37 92 92.5 t117 55.5t137 -31q84 -27 115 -27q78 0 151 72q1 1 3 1l6 -9q12 -33 10 -51q-25 -47 -95.5 -96.5t-136.5 -49.5q-41 0 -151 35q-57 20 -92 20q-57 0 -135 -67q-2 -2 -9 6q-15 26 -14 40q0 5 2 9zM428 561q-1 -5 -1 -8q0 -6 5 -6q23 -2 117 -2q117 0 137 2q6 0 6 10 q-80 250 -129 383h-8l-69 -203z" />
<glyph unicode="&#xc4;" horiz-adv-x="1284" d="M-46 36q0 21 5 27q109 16 146.5 44t76.5 120q158 373 330 869q35 86 41 143q61 -4 106.5 -4t102.5 4l35 -119l135 -380l168 -466q51 -131 85 -161.5t146 -49.5q2 -4 3 -14q0 -8 -2 -20q-3 -29 -9 -35q-12 0 -109.5 3t-189.5 3q-98 0 -192.5 -3t-120.5 -3q-4 10 -4 36.5 t4 32.5q82 16 100 29q29 16 20 39q-29 115 -94 281q-14 14 -20 14h-156q-135 0 -164 -2q-12 0 -22 -19q-78 -225 -78 -253q4 -57 57 -68q45 -10 101 -21q4 -6 1 -34.5t-7 -34.5q-23 0 -107 3t-152 3q-39 0 -117.5 -3t-113.5 -3q-5 10 -5 42zM350 1382q-6 23 -5 42 q0 29 13 49q43 43 136 43q59 0 79 -25q14 -27 15 -70q0 -63 -51 -110q-10 -10 -61 -15q-17 -1 -29 -1q-25 0 -35 5q-48 25 -62 82zM428 561q-1 -5 -1 -8q0 -6 5 -6q23 -2 117 -2q117 0 137 2q6 0 6 10q-80 250 -129 383h-8l-69 -203zM725 1382q-6 23 -6 42q0 29 14 49 q43 43 133 43q57 0 82 -25q14 -27 15 -70q0 -63 -52 -110q-10 -10 -60 -15q-17 -1 -30 -1q-25 0 -35 5q-45 23 -61 82z" />
<glyph unicode="&#xc5;" horiz-adv-x="1284" d="M-46 36q0 21 5 27q109 16 146.5 44t76.5 120q158 373 330 869q35 86 41 143q61 -4 106.5 -4t102.5 4l35 -119l135 -380l168 -466q51 -131 85 -161.5t146 -49.5q2 -4 3 -14q0 -8 -2 -20q-3 -29 -9 -35q-12 0 -109.5 3t-189.5 3q-98 0 -192.5 -3t-120.5 -3q-4 10 -4 36.5 t4 32.5q82 16 100 29q29 16 20 39q-29 115 -94 281q-14 14 -20 14h-156q-135 0 -164 -2q-12 0 -22 -19q-78 -225 -78 -253q4 -57 57 -68q45 -10 101 -21q4 -6 1 -34.5t-7 -34.5q-23 0 -107 3t-152 3q-39 0 -117.5 -3t-113.5 -3q-5 10 -5 42zM428 561q-1 -5 -1 -8q0 -6 5 -6 q23 -2 117 -2q117 0 137 2q6 0 6 10q-80 250 -129 383h-8l-69 -203zM485 1425q0 74 45 119t132 45q76 0 119.5 -45t43.5 -110q0 -74 -48 -119t-124 -45q-59 0 -113.5 38.5t-54.5 116.5zM559 1430q0 -35 29.5 -54.5t73.5 -19.5q37 0 65.5 20.5t28.5 48.5q0 80 -103 80 q-94 1 -94 -75z" />
<glyph unicode="&#xc6;" horiz-adv-x="1775" d="M-49 27.5q0 27.5 8 35.5q106 18 147 45t91 115q176 307 467 897q0 14 -9 21l-180 30q-6 10 -4 38t8 34q33 0 191.5 -4t238.5 -4h426q193 0 269 16l8 -8q-16 -84 -33 -315q-8 -8 -39 -8t-39 6q-14 100 -41 151q-25 49 -80 53q-39 4 -150 6h-42q-77 0 -103 -3 q-16 -4 -16 -37q25 -324 35 -430q4 -16 14 -17q182 0 252 4q55 2 74 70q4 8 7 21.5t6 30t5 24.5q8 6 41 4t41 -8q0 -6 -5 -82t-5 -119q0 -109 4 -199q-12 -6 -42 -8t-40 6q-10 47 -24 90q-16 47 -70 54q-35 4 -232 4q-12 0 -12 -17q20 -248 29 -329q6 -82 45 -89 q37 -6 211 -6q66 0 101.5 12.5t62.5 51.5q66 86 108 184q12 2 41 -8t35 -18q-4 -45 -32.5 -146.5t-51.5 -148.5q-10 -25 -35.5 -30t-87.5 -5q-6 0 -183 4t-335 4q-53 0 -187 -4t-190 -4q-6 12 -7 38.5t3 32.5q139 23 152 27q54 15 53 88v10q-2 111 -21 330q-4 14 -10 14 q-33 2 -190 3q-47 0 -88 -1.5t-49 -1.5q-12 0 -23 -18q-93 -182 -128.5 -259.5t-35.5 -108.5q0 -47 53 -62l105 -21q4 -6 2 -32.5t-6 -38.5q-41 0 -131 4t-142 4q-41 0 -120.5 -4t-108.5 -4q-6 8 -6 35.5zM543 666q-2 -4 -2 -8q0 -6 8 -9q6 0 34.5 -1t61.5 -1q131 0 162 2 q10 0 10 8q-20 354 -35 471q-2 2 -7 2t-9 -2q-23 -51 -110.5 -229t-112.5 -233z" />
<glyph unicode="&#xc7;" horiz-adv-x="1370" d="M102 631q0 178 86 326.5t250 228.5q172 86 416 86q104 0 240 -15q115 -13 152 -12h9q-6 -143 -6 -240q0 -58 2 -100q-6 -8 -39.5 -13t-35.5 3q-20 106 -49 158.5t-85 83.5q-92 53 -237 53q-168 0 -267.5 -135t-99.5 -404q0 -111 25.5 -209t77 -183t141.5 -135t209 -50 q129 0 199 63q84 74 155 205q43 -10 62 -43q-20 -70 -72.5 -165t-93.5 -122q-156 -45 -285 -49l-31 -49q51 -25 95 -57q53 -43 53 -111q0 -92 -88 -153.5t-156 -61.5q-84 0 -125 63q0 27 8 52q63 -35 131 -35q84 0 84 65q0 80 -157 129q0 12 4 19l104 141 q-324 12 -500 181.5t-176 484.5z" />
<glyph unicode="&#xc8;" horiz-adv-x="1200" d="M12 30.5q0 24.5 4 32.5q117 16 152 27q57 16 57 98q6 117 6 494q0 311 -6 385q-2 41 -14 58.5t-43 27.5t-107 18q-6 8 -4 37t9 33q37 0 146.5 -3t162.5 -3h411q180 0 267 12q6 0 6 -8q-16 -70 -29 -309q-8 -6 -38.5 -8t-39.5 2q-18 109 -39 151q-25 49 -84 53 q-39 4 -150 6h-41q-75 0 -93 -4q-6 -2 -13.5 -15t-7.5 -21v-398q0 -16 15 -16q227 0 260 2q57 2 73 72q4 12 9.5 38.5t7.5 34.5q8 4 41 3t41 -7q0 -8 -5 -83.5t-5 -114.5q0 -92 4 -207q-8 -4 -40 -5t-40 3l-21 84q-20 51 -69 59q-37 4 -256 4q-4 0 -9.5 -7t-5.5 -11v-361 q0 -57 43 -67q68 -14 254 -15q70 0 101.5 11.5t64.5 50.5q55 63 109 188q10 2 39.5 -8t35.5 -18q-45 -209 -94 -301q-14 -33 -106 -33q-80 0 -275.5 4t-310.5 4q-53 0 -183 -3t-186 -3q-4 12 -4 36.5zM334 1503v31q12 20 71.5 66.5t81.5 48.5q25 -16 115 -123 q13 -16 51.5 -58t56.5 -65.5t18 -34.5q0 -8 -18 -29q-22 -25 -28 -24q-14 0 -164.5 81.5t-183.5 106.5z" />
<glyph unicode="&#xc9;" horiz-adv-x="1200" d="M12 30.5q0 24.5 4 32.5q117 16 152 27q57 16 57 98q6 117 6 494q0 311 -6 385q-2 41 -14 58.5t-43 27.5t-107 18q-6 8 -4 37t9 33q37 0 146.5 -3t162.5 -3h411q180 0 267 12q6 0 6 -8q-16 -70 -29 -309q-8 -6 -38.5 -8t-39.5 2q-18 109 -39 151q-25 49 -84 53 q-39 4 -150 6h-41q-75 0 -93 -4q-6 -2 -13.5 -15t-7.5 -21v-398q0 -16 15 -16q227 0 260 2q57 2 73 72q4 12 9.5 38.5t7.5 34.5q8 4 41 3t41 -7q0 -8 -5 -83.5t-5 -114.5q0 -92 4 -207q-8 -4 -40 -5t-40 3l-21 84q-20 51 -69 59q-37 4 -256 4q-4 0 -9.5 -7t-5.5 -11v-361 q0 -57 43 -67q68 -14 254 -15q70 0 101.5 11.5t64.5 50.5q55 63 109 188q10 2 39.5 -8t35.5 -18q-45 -209 -94 -301q-14 -33 -106 -33q-80 0 -275.5 4t-310.5 4q-53 0 -183 -3t-186 -3q-4 12 -4 36.5zM524 1366q55 59 150.5 153.5t124.5 112.5q20 0 74.5 -44t64.5 -66 q2 -2 2 -11.5t-2 -11.5q-27 -25 -191.5 -106.5t-179.5 -81.5q-6 0 -24.5 22.5t-18.5 32.5z" />
<glyph unicode="&#xca;" horiz-adv-x="1200" d="M12 30.5q0 24.5 4 32.5q117 16 152 27q57 16 57 98q6 117 6 494q0 311 -6 385q-2 41 -14 58.5t-43 27.5t-107 18q-6 8 -4 37t9 33q37 0 146.5 -3t162.5 -3h411q180 0 267 12q6 0 6 -8q-16 -70 -29 -309q-8 -6 -38.5 -8t-39.5 2q-18 109 -39 151q-25 49 -84 53 q-39 4 -150 6h-41q-75 0 -93 -4q-6 -2 -13.5 -15t-7.5 -21v-398q0 -16 15 -16q227 0 260 2q57 2 73 72q4 12 9.5 38.5t7.5 34.5q8 4 41 3t41 -7q0 -8 -5 -83.5t-5 -114.5q0 -92 4 -207q-8 -4 -40 -5t-40 3l-21 84q-20 51 -69 59q-37 4 -256 4q-4 0 -9.5 -7t-5.5 -11v-361 q0 -57 43 -67q68 -14 254 -15q70 0 101.5 11.5t64.5 50.5q55 63 109 188q10 2 39.5 -8t35.5 -18q-45 -209 -94 -301q-14 -33 -106 -33q-80 0 -275.5 4t-310.5 4q-53 0 -183 -3t-186 -3q-4 12 -4 36.5zM309 1370q53 39 150.5 119t118.5 104q18 12 43 13q18 -18 128.5 -109.5 t155.5 -124.5q0 -8 -15.5 -31.5t-19.5 -23.5q-10 0 -123.5 46t-142.5 60q-8 4 -18 0q-35 -18 -136.5 -62t-109.5 -44t-21.5 22.5t-9.5 30.5z" />
<glyph unicode="&#xcb;" horiz-adv-x="1200" d="M12 30.5q0 24.5 4 32.5q117 16 152 27q57 16 57 98q6 117 6 494q0 311 -6 385q-2 41 -14 58.5t-43 27.5t-107 18q-6 8 -4 37t9 33q37 0 146.5 -3t162.5 -3h411q180 0 267 12q6 0 6 -8q-16 -70 -29 -309q-8 -6 -38.5 -8t-39.5 2q-18 109 -39 151q-25 49 -84 53 q-39 4 -150 6h-41q-75 0 -93 -4q-6 -2 -13.5 -15t-7.5 -21v-398q0 -16 15 -16q227 0 260 2q57 2 73 72q4 12 9.5 38.5t7.5 34.5q8 4 41 3t41 -7q0 -8 -5 -83.5t-5 -114.5q0 -92 4 -207q-8 -4 -40 -5t-40 3l-21 84q-20 51 -69 59q-37 4 -256 4q-4 0 -9.5 -7t-5.5 -11v-361 q0 -57 43 -67q68 -14 254 -15q70 0 101.5 11.5t64.5 50.5q55 63 109 188q10 2 39.5 -8t35.5 -18q-45 -209 -94 -301q-14 -33 -106 -33q-80 0 -275.5 4t-310.5 4q-53 0 -183 -3t-186 -3q-4 12 -4 36.5zM301 1430q-6 23 -6 41q0 29 14 49q43 43 135 43q59 0 80 -25 q14 -27 15 -70q0 -63 -52 -110q-10 -10 -60 -15q-17 -1 -29 -1q-25 0 -36 6q-47 25 -61 82zM676 1429q-6 23 -6 42q0 29 14 49q43 43 133 43q57 0 82 -25q14 -27 14 -70q0 -63 -51 -110q-10 -10 -60 -15q-17 -1 -30 -1q-25 0 -35 6q-45 22 -61 81z" />
<glyph unicode="&#xcc;" horiz-adv-x="743" d="M49 28.5q0 28.5 8 34.5q18 2 95 17q41 10 54 29.5t17 80.5q4 72 4 474q0 315 -6 403q-4 68 -51 84q-43 12 -113 20q-4 8 -4 36t6 34q29 0 127.5 -3t178.5 -3q119 0 214 3t97 3q4 -6 5 -33.5t-5 -36.5q-78 -12 -107 -20q-31 -12 -39 -32.5t-10 -71.5q-2 -31 -2 -385 q0 -436 2 -478q4 -84 62 -98q10 -4 29.5 -7t46 -8t40.5 -8q2 -4 2 -13t-2 -23q-4 -29 -10 -33q-252 6 -307 6q-106 0 -202.5 -3t-121.5 -3q-8 6 -8 34.5zM70 1491v31q12 20 71.5 66t81.5 48q25 -16 115 -123q13 -16 51.5 -57.5t56.5 -65t18 -35.5q0 -8 -19 -28 q-22 -25 -27 -24q-14 0 -164.5 81.5t-183.5 106.5z" />
<glyph unicode="&#xcd;" horiz-adv-x="743" d="M49 28.5q0 28.5 8 34.5q18 2 95 17q41 10 54 29.5t17 80.5q4 72 4 474q0 315 -6 403q-4 68 -51 84q-43 12 -113 20q-4 8 -4 36t6 34q29 0 127.5 -3t178.5 -3q119 0 214 3t97 3q4 -6 5 -33.5t-5 -36.5q-78 -12 -107 -20q-31 -12 -39 -32.5t-10 -71.5q-2 -31 -2 -385 q0 -436 2 -478q4 -84 62 -98q10 -4 29.5 -7t46 -8t40.5 -8q2 -4 2 -13t-2 -23q-4 -29 -10 -33q-252 6 -307 6q-106 0 -202.5 -3t-121.5 -3q-8 6 -8 34.5zM281 1366l150 153.5t124 112.5q20 0 74.5 -44t64.5 -66q2 -2 2 -11.5t-2 -11.5q-27 -25 -191.5 -106.5t-178.5 -81.5 q-6 0 -24.5 22.5t-18.5 32.5z" />
<glyph unicode="&#xce;" horiz-adv-x="743" d="M49 28.5q0 28.5 8 34.5q18 2 95 17q41 10 54 29.5t17 80.5q4 72 4 474q0 315 -6 403q-4 68 -51 84q-43 12 -113 20q-4 8 -4 36t6 34q29 0 127.5 -3t178.5 -3q119 0 214 3t97 3q4 -6 5 -33.5t-5 -36.5q-78 -12 -107 -20q-31 -12 -39 -32.5t-10 -71.5q-2 -31 -2 -385 q0 -436 2 -478q4 -84 62 -98q10 -4 29.5 -7t46 -8t40.5 -8q2 -4 2 -13t-2 -23q-4 -29 -10 -33q-252 6 -307 6q-106 0 -202.5 -3t-121.5 -3q-8 6 -8 34.5zM76 1364q53 39 150.5 119t117.5 104q18 12 43 12q18 -18 129 -109t156 -124q0 -8 -15.5 -31.5t-19.5 -23.5 q-10 0 -124 46t-142 60q-8 4 -19 0q-35 -18 -136 -62t-109.5 -44t-21.5 22.5t-9 30.5z" />
<glyph unicode="&#xcf;" horiz-adv-x="743" d="M49 28.5q0 28.5 8 34.5q18 2 95 17q41 10 54 29.5t17 80.5q4 72 4 474q0 315 -6 403q-4 68 -51 84q-43 12 -113 20q-4 8 -4 36t6 34q29 0 127.5 -3t178.5 -3q119 0 214 3t97 3q4 -6 5 -33.5t-5 -36.5q-78 -12 -107 -20q-31 -12 -39 -32.5t-10 -71.5q-2 -31 -2 -385 q0 -436 2 -478q4 -84 62 -98q10 -4 29.5 -7t46 -8t40.5 -8q2 -4 2 -13t-2 -23q-4 -29 -10 -33q-252 6 -307 6q-106 0 -202.5 -3t-121.5 -3q-8 6 -8 34.5zM66 1430q-6 23 -6 41q0 29 14 49q43 43 135 43q59 0 80 -25q14 -27 14 -70q0 -63 -51 -110q-10 -10 -61 -15 q-17 -1 -29 -1q-25 0 -35 6q-47 25 -61 82zM440 1430q-6 23 -5 41q0 29 14 49q43 43 133 43q57 0 82 -25q14 -27 14 -70q0 -63 -51 -110q-10 -10 -61 -15q-17 -1 -29 -1q-25 0 -35 6q-46 23 -62 82z" />
<glyph unicode="&#xd0;" horiz-adv-x="1488" d="M27 32.5q0 28.5 6 30.5q59 6 121 21q57 14 67 94q6 80 6 428q-139 -4 -161 -4q0 66 16 82h145q0 248 -6 377q-4 41 -14 58.5t-43 29.5q-31 12 -115 22q-4 8 -2 36t6 34q20 0 147.5 -3t159.5 -3q63 0 179 4t206 4q270 0 431 -127q100 -82 154 -206t54 -263 q0 -307 -204 -485q-205 -176 -574 -176q-66 0 -234.5 4t-260.5 4h-78q-6 10 -6 38.5zM518 682q287 4 299 4q2 -10 -2 -40t-8 -42q-49 0 -146.5 1t-142.5 1q0 -352 6 -411q4 -39 31 -66q57 -55 172 -55q131 0 225 116q117 160 117 426q0 145 -54.5 273.5t-150.5 197.5 q-98 72 -260 72q-53 0 -67 -10q-10 -2 -17 -27q-2 -73 -2 -440z" />
<glyph unicode="&#xd1;" horiz-adv-x="1464" d="M29 63q82 14 118 27q61 18 70 117q20 178 21 799q0 43 -19.5 81.5t-56.5 51.5q-68 27 -127 30q-4 6 -4 37t4 35q12 1 31 1q39 0 106 -3q100 -4 164 -4q96 0 153 4q20 -43 76 -113q526 -668 592 -745q2 0 4 1t4 1q0 541 -10 651q-4 53 -23.5 79t-68.5 38q-45 10 -123 20 q-6 6 -5 36t5 34q16 0 108.5 -3t168.5 -3q68 0 148.5 3t90.5 3q6 -4 6 -34.5t-6 -35.5q-53 -8 -80 -16q-47 -14 -65.5 -39.5t-22.5 -89.5q-18 -229 -18 -756q0 -135 4 -282q-27 2 -100.5 2t-104.5 -4l-717 946q-10 10 -10 -2q-3 -181 -3 -331q0 -225 7 -382q4 -63 26.5 -92 t67.5 -39q18 -4 58.5 -11t60.5 -12q6 -4 6 -32.5t-8 -36.5q-35 0 -123 3t-137 3q-59 0 -149.5 -3t-118.5 -3q-5 7 -6 29q1 35 6 40zM455 1405q20 37 91.5 92t117 55t137.5 -30q84 -27 114 -27q78 0 152 72q1 1 2 1l6 -9q12 -33 10 -52q-25 -47 -95 -96t-136 -49 q-41 0 -152 35q-55 20 -92 20q-18 0 -63 -34t-73 -34q-2 0 -7 7q-15 26 -15 40q1 5 3 9z" />
<glyph unicode="&#xd2;" horiz-adv-x="1550" d="M102 618q0 295 189 461q193 193 504 193q307 0 479 -182.5t172 -452.5q0 -252 -123 -414q-195 -260 -549 -260q-317 0 -500 187q-172 183 -172 468zM432 684q0 -158 47 -311.5t148 -239.5q94 -78 209 -78q90 0 155 66q125 119 125 446q0 168 -45 315.5t-135 227.5 q-86 74 -195 74q-96 0 -155 -47q-154 -113 -154 -453zM483 1522v30q12 20 71.5 66.5t82.5 48.5q25 -16 115 -123q13 -16 51 -57.5t56 -65t18 -35.5q0 -8 -18 -28q-22 -25 -28 -25q-14 0 -164.5 82t-183.5 107z" />
<glyph unicode="&#xd3;" horiz-adv-x="1550" d="M102 618q0 295 189 461q193 193 504 193q307 0 479 -182.5t172 -452.5q0 -252 -123 -414q-195 -260 -549 -260q-317 0 -500 187q-172 183 -172 468zM432 684q0 -158 47 -311.5t148 -239.5q94 -78 209 -78q90 0 155 66q125 119 125 446q0 168 -45 315.5t-135 227.5 q-86 74 -195 74q-96 0 -155 -47q-154 -113 -154 -453zM641 1397q55 59 150.5 153.5t123.5 112.5q20 0 74.5 -44t65.5 -67q2 -2 2 -11t-2 -11q-27 -25 -192 -107t-179 -82q-6 0 -24.5 23t-18.5 33z" />
<glyph unicode="&#xd4;" horiz-adv-x="1550" d="M102 618q0 295 189 461q193 193 504 193q307 0 479 -182.5t172 -452.5q0 -252 -123 -414q-195 -260 -549 -260q-317 0 -500 187q-172 183 -172 468zM432 684q0 -158 47 -311.5t148 -239.5q94 -78 209 -78q90 0 155 66q125 119 125 446q0 168 -45 315.5t-135 227.5 q-86 74 -195 74q-96 0 -155 -47q-154 -113 -154 -453zM477 1378q53 39 150.5 119t117.5 105q18 12 43 12q18 -18 129 -109.5t156 -124.5q0 -8 -15.5 -31.5t-19.5 -23.5q-10 0 -123.5 46t-142.5 61q-8 4 -18 0q-35 -18 -136.5 -62.5t-109.5 -44.5t-21.5 22.5t-9.5 30.5z" />
<glyph unicode="&#xd5;" horiz-adv-x="1550" d="M102 618q0 295 189 461q193 193 504 193q307 0 479 -182.5t172 -452.5q0 -252 -123 -414q-195 -260 -549 -260q-317 0 -500 187q-172 183 -172 468zM432 684q0 -158 47 -311.5t148 -239.5q94 -78 209 -78q90 0 155 66q125 119 125 446q0 168 -45 315.5t-135 227.5 q-86 74 -195 74q-96 0 -155 -47q-154 -113 -154 -453zM459 1417q20 37 92 92.5t117 55.5t137 -31q84 -27 115 -27q78 0 151 72q1 1 2 1l6 -9q12 -33 11 -51q-25 -47 -95.5 -96.5t-136.5 -49.5q-41 0 -151 35q-55 20 -93 21q-18 0 -63 -34t-73 -34q-2 0 -7 6q-15 26 -15 40 q1 5 3 9z" />
<glyph unicode="&#xd6;" horiz-adv-x="1550" d="M102 618q0 295 189 461q193 193 504 193q307 0 479 -182.5t172 -452.5q0 -252 -123 -414q-195 -260 -549 -260q-317 0 -500 187q-172 183 -172 468zM432 684q0 -158 47 -311.5t148 -239.5q94 -78 209 -78q90 0 155 66q125 119 125 446q0 168 -45 315.5t-135 227.5 q-86 74 -195 74q-96 0 -155 -47q-154 -113 -154 -453zM467 1448q-6 23 -6 42q0 29 14 48q43 43 135 43q59 0 80 -25q14 -27 15 -69q0 -63 -52 -111q-10 -10 -60 -14q-17 -1 -30 -1q-25 0 -35 5q-47 25 -61 82zM842 1448q-6 23 -6 42q0 29 14 48q43 43 133 43q57 0 82 -25 q14 -27 14 -69q0 -63 -51 -111q-10 -10 -60 -14q-17 -1 -30 -1q-25 0 -35 5q-45 23 -61 82z" />
<glyph unicode="&#xd7;" horiz-adv-x="1120" d="M102 66q27 23 167.5 172t183.5 200q8 10 0 19q-225 244 -338 387q0 10 30.5 56t40.5 54q2 4 14.5 4t16.5 -4q8 -18 140 -174.5t202 -232.5q266 293 318 364q8 18 137 27q4 -2 8 -12q3 -7 3 -12q0 -30 -53 -95t-169.5 -185t-155.5 -163v-14l193 -211q123 -131 172 -172 q2 -4 -1 -17.5t-7 -15.5q-7 -3 -25 -3q-23 0 -64 5q-72 8 -94 25q-37 29 -272 284q-10 10 -14 2q-254 -279 -275 -293q-35 -23 -147 -28q-4 2 -8.5 14.5t-2.5 18.5z" />
<glyph unicode="&#xd8;" horiz-adv-x="1550" d="M102 618q0 295 189 461q193 193 504 193q188 0 327 -72l76 113q1 2 8 2q8 0 26 -3q32 -5 46 -12v-10l-90 -129q258 -172 258 -524q0 -252 -123 -414q-195 -260 -549 -260q-205 0 -362 82l-86 -125q-1 -1 -5 -1q-15 0 -73 20l-2 8l98 141q-242 184 -242 530zM420 684 q0 -221 74 -385l516 743q-98 141 -269 144q-94 0 -155 -49q-166 -121 -166 -453zM537 221q102 -166 299 -166q100 0 163 64q129 127 129 448q0 248 -77 396z" />
<glyph unicode="&#xd9;" horiz-adv-x="1449" d="M31 1241q31 0 139.5 -3t175.5 -3q74 0 181.5 3t142.5 3q6 -8 6 -34.5t-6 -35.5q-23 -2 -57.5 -9t-37.5 -7q-66 -16 -69 -113q-2 -49 -2 -438q0 -162 16 -260q41 -236 324 -235q57 0 104 12t93 45t75 100.5t37 165.5q8 109 9 309v55q0 157 -5 224q-4 61 -21.5 91t-66.5 40 q-53 14 -121 20q-4 8 -4 34t6 36q35 0 120 -3t134 -3q92 0 165 3t83 3q8 -8 8 -34.5t-8 -35.5q-74 -14 -86 -18q-39 -10 -54.5 -39t-19.5 -104q-4 -51 -16 -490q-12 -301 -150.5 -429t-392.5 -128q-471 0 -514 379q-6 53 -10 146.5t-4 166t-1 208.5t-1 186q-4 84 -68 102 q-41 14 -106 20q-3 7 -4 25q1 34 6 45zM494 1493v31q12 20 71.5 66t81.5 48q25 -16 115 -122q13 -16 51.5 -58t56 -65.5t17.5 -35.5q0 -8 -18 -28q-22 -25 -27 -24q-14 0 -164.5 81.5t-183.5 106.5z" />
<glyph unicode="&#xda;" horiz-adv-x="1449" d="M31 1241q31 0 139.5 -3t175.5 -3q74 0 181.5 3t142.5 3q6 -8 6 -34.5t-6 -35.5q-23 -2 -57.5 -9t-37.5 -7q-66 -16 -69 -113q-2 -49 -2 -438q0 -162 16 -260q41 -236 324 -235q57 0 104 12t93 45t75 100.5t37 165.5q8 109 9 309v55q0 157 -5 224q-4 61 -21.5 91t-66.5 40 q-53 14 -121 20q-4 8 -4 34t6 36q35 0 120 -3t134 -3q92 0 165 3t83 3q8 -8 8 -34.5t-8 -35.5q-74 -14 -86 -18q-39 -10 -54.5 -39t-19.5 -104q-4 -51 -16 -490q-12 -301 -150.5 -429t-392.5 -128q-471 0 -514 379q-6 53 -10 146.5t-4 166t-1 208.5t-1 186q-4 84 -68 102 q-41 14 -106 20q-3 7 -4 25q1 34 6 45zM690 1370q55 59 150.5 153.5t124.5 112.5q20 0 74.5 -44t64.5 -66q2 -2 2 -11.5t-2 -11.5q-27 -25 -191.5 -106.5t-179.5 -81.5q-6 0 -24.5 22.5t-18.5 32.5z" />
<glyph unicode="&#xdb;" horiz-adv-x="1449" d="M31 1241q31 0 139.5 -3t175.5 -3q74 0 181.5 3t142.5 3q6 -8 6 -34.5t-6 -35.5q-23 -2 -57.5 -9t-37.5 -7q-66 -16 -69 -113q-2 -49 -2 -438q0 -162 16 -260q41 -236 324 -235q57 0 104 12t93 45t75 100.5t37 165.5q8 109 9 309v55q0 157 -5 224q-4 61 -21.5 91t-66.5 40 q-53 14 -121 20q-4 8 -4 34t6 36q35 0 120 -3t134 -3q92 0 165 3t83 3q8 -8 8 -34.5t-8 -35.5q-74 -14 -86 -18q-39 -10 -54.5 -39t-19.5 -104q-4 -51 -16 -490q-12 -301 -150.5 -429t-392.5 -128q-471 0 -514 379q-6 53 -10 146.5t-4 166t-1 208.5t-1 186q-4 84 -68 102 q-41 14 -106 20q-3 7 -4 25q1 34 6 45zM502 1370q53 39 150.5 119t117.5 104q18 12 43 13q18 -18 129 -109.5t156 -124.5q0 -8 -15.5 -31.5t-19.5 -23.5q-10 0 -124 46t-142 60q-8 4 -19 0q-35 -18 -136 -62t-109.5 -44t-21.5 22.5t-9 30.5z" />
<glyph unicode="&#xdc;" horiz-adv-x="1449" d="M31 1241q31 0 139.5 -3t175.5 -3q74 0 181.5 3t142.5 3q6 -8 6 -34.5t-6 -35.5q-23 -2 -57.5 -9t-37.5 -7q-66 -16 -69 -113q-2 -49 -2 -438q0 -162 16 -260q41 -236 324 -235q57 0 104 12t93 45t75 100.5t37 165.5q8 109 9 309v55q0 157 -5 224q-4 61 -21.5 91t-66.5 40 q-53 14 -121 20q-4 8 -4 34t6 36q35 0 120 -3t134 -3q92 0 165 3t83 3q8 -8 8 -34.5t-8 -35.5q-74 -14 -86 -18q-39 -10 -54.5 -39t-19.5 -104q-4 -51 -16 -490q-12 -301 -150.5 -429t-392.5 -128q-471 0 -514 379q-6 53 -10 146.5t-4 166t-1 208.5t-1 186q-4 84 -68 102 q-41 14 -106 20q-3 7 -4 25q1 34 6 45zM500 1432q-6 23 -6 41q0 29 14 49q43 43 135 43q59 0 80 -25q14 -27 14 -70q0 -63 -51 -110q-10 -10 -60 -14q-17 -1 -30 -2q-25 0 -35 6q-47 25 -61 82zM874 1432q-6 23 -5 41q0 29 14 49q43 43 133 43q57 0 82 -25q14 -27 14 -70 q0 -63 -51 -110q-10 -10 -61 -14q-17 -1 -29 -2q-25 0 -35 6q-46 23 -62 82z" />
<glyph unicode="&#xdd;" horiz-adv-x="1183" d="M-51 1209q2 26 8 32q31 0 127 -3t156 -3q203 0 313 6q6 -6 7 -34.5t-5 -35.5q-10 -2 -63 -14q-22 -6 -22 -28q0 -13 7 -31q27 -59 109 -222t106 -204q8 -4 15 0q55 96 122.5 229t83.5 184q2 10 3 19q0 38 -46 49q-39 10 -106 18q-4 12 -1 39t9 31q18 0 103.5 -3t144.5 -3 q57 0 130 3t99 3q6 -4 6 -33.5t-6 -36.5q-82 -14 -92 -18q-45 -16 -75.5 -42t-73.5 -93q-147 -246 -242 -434q-23 -47 -23 -99q0 -74 5 -282q2 -37 5 -56.5t18 -38t44 -24.5q29 -8 115 -23q4 -4 1 -33.5t-7 -35.5q-29 0 -152 4t-190 4q-92 0 -185.5 -4t-128.5 -4 q-6 6 -5 35.5t5 33.5q92 12 125 23q37 8 48.5 35.5t11.5 79.5q4 96 4 266q0 41 -27 104q-88 184 -231 435q-51 86 -81 114.5t-73 40.5q-57 12 -92 15q-5 8 -5 24q0 5 1 11zM578 1364l150 153.5t124 112.5q20 0 74.5 -44t64.5 -66q2 -2 2 -11.5t-2 -11.5 q-27 -25 -191.5 -106.5t-178.5 -81.5q-6 0 -24.5 22.5t-18.5 32.5z" />
<glyph unicode="&#xde;" horiz-adv-x="1220" d="M51 30.5q0 26.5 4 32.5q82 10 109 19q53 16 57 111q4 78 4 460q0 332 -4 394q-4 51 -16 74.5t-49 33.5q-29 10 -99 16q-4 12 -1 37t8 35q14 0 118.5 -4t184.5 -4q72 0 174 4t131 4q4 -10 4 -35.5t-4 -36.5q-104 -20 -107 -20q-29 -8 -37 -27.5t-10 -68.5v-72 q2 -12 12 -12q135 4 207 4q186 0 285 -68q125 -92 125 -264q0 -213 -172 -311q-109 -66 -275 -66q-72 0 -104 8q-12 8 -12 45q-2 14 2 31q14 -2 51 -2q66 0 108 23q94 59 95 235q0 139 -64.5 210t-181.5 71q-43 0 -59 -8q-14 -14 -15 -29q-2 -63 -2 -389q0 -160 4 -275 q4 -88 64 -100q23 -6 63.5 -12t57.5 -11q6 -10 4 -34.5t-6 -34.5q-43 0 -144.5 3t-161 3t-184.5 -3t-160 -3q-4 10 -4 36.5z" />
<glyph unicode="&#xdf;" horiz-adv-x="1103" d="M37 -6q-6 15 -6 32.5t6 36.5q55 10 69 17q33 8 41.5 23.5t8.5 50.5v544l-111 7q0 57 16 73q53 8 97 39q0 289 207 445q135 98 270 98q150 0 238 -88t88 -211q0 -53 -33 -119q-27 -35 -142 -145q-27 -25 -26 -45q0 -10 28.5 -38t76.5 -67t69 -59q106 -102 106 -223 q0 -227 -249 -359q-63 -31 -125 -31q-72 0 -107 31q-6 25 -6 60t6 81q2 4 9 11.5t10 5.5q109 -78 174 -78q86 0 86 102q0 88 -121 197l-63 55l-65 57q-28 24 -48 48q-4 5 -5 24q0 16 4 41q7 55 17 68q53 45 59 51q86 80 117 139.5t31 151.5q0 90 -56.5 172t-138.5 82 q-88 0 -120.5 -123t-32.5 -414q0 -375 8 -587q2 -51 43 -68q20 -8 61 -19q6 -8 4 -34.5t-6 -34.5q-27 0 -112.5 3t-141 3t-129 -3t-106.5 -3z" />
<glyph unicode="&#xe0;" horiz-adv-x="905" d="M70 227q0 20 11 63.5t23 59.5q33 20 196 68.5t194 60.5q12 2 16 23q2 12 2 26q0 66 -31 107q-47 63 -139 63q-76 0 -100 -28q-14 -14 -68 -121q-8 -6 -42 10t-32 25q0 14 16.5 69.5t26.5 63.5q76 55 173.5 93t148.5 38q158 0 244 -125q51 -76 51 -207q0 -49 -2 -160.5 t-2 -152.5q0 -78 55 -78q33 0 68 10q2 -2 1 -10q0 -10 -2 -30q-5 -36 -10 -42q-39 -35 -103.5 -57.5t-119.5 -22.5q-104 0 -125 64q-6 16 -10 35q-2 4 -8 2q-68 -45 -133.5 -72t-94.5 -27q-70 0 -124 50q-80 73 -80 202zM213 1198q-4 18 10 29q18 8 103 15q53 5 79 5 q15 0 21 -2q8 -18 48 -143t52 -174q-4 -6 -29.5 -19.5t-33.5 -11.5q-33 31 -126 143.5t-124 157.5zM315 276q0 -72 41 -110.5t93 -38.5q33 0 45 12q12 8 12 37q4 63 4 223q0 10 -6 11l-59 -20q-46 -15 -74.5 -26.5t-38.5 -19.5q-17 -17 -17 -68z" />
<glyph unicode="&#xe1;" horiz-adv-x="905" d="M70 227q0 20 11 63.5t23 59.5q33 20 196 68.5t194 60.5q12 2 16 23q2 12 2 26q0 66 -31 107q-47 63 -139 63q-76 0 -100 -28q-14 -14 -68 -121q-8 -6 -42 10t-32 25q0 14 16.5 69.5t26.5 63.5q76 55 173.5 93t148.5 38q158 0 244 -125q51 -76 51 -207q0 -49 -2 -160.5 t-2 -152.5q0 -78 55 -78q33 0 68 10q2 -2 1 -10q0 -10 -2 -30q-5 -36 -10 -42q-39 -35 -103.5 -57.5t-119.5 -22.5q-104 0 -125 64q-6 16 -10 35q-2 4 -8 2q-68 -45 -133.5 -72t-94.5 -27q-70 0 -124 50q-80 73 -80 202zM315 276q0 -72 41 -110.5t93 -38.5q33 0 45 12 q12 8 12 37q4 63 4 223q0 10 -6 11l-59 -20q-46 -15 -74.5 -26.5t-38.5 -19.5q-17 -17 -17 -68zM358 944q100 274 117 309q16 8 102 13q34 2 57 1q35 0 46 -3q2 -2 5 -14q2 -7 2 -11q0 -6 -5.5 -16.5t-19 -28l-25.5 -32l-36 -42.5l-39 -46q-108 -130 -144 -165q-1 -1 -4 -1 q-8 0 -28 13q-26 15 -28 23z" />
<glyph unicode="&#xe2;" horiz-adv-x="905" d="M70 227q0 20 11 63.5t23 59.5q33 20 196 68.5t194 60.5q12 2 16 23q2 12 2 26q0 66 -31 107q-47 63 -139 63q-76 0 -100 -28q-14 -14 -68 -121q-8 -6 -42 10t-32 25q0 14 16.5 69.5t26.5 63.5q76 55 173.5 93t148.5 38q158 0 244 -125q51 -76 51 -207q0 -49 -2 -160.5 t-2 -152.5q0 -78 55 -78q33 0 68 10q2 -2 1 -10q0 -10 -2 -30q-5 -36 -10 -42q-39 -35 -103.5 -57.5t-119.5 -22.5q-104 0 -125 64q-6 16 -10 35q-2 4 -8 2q-68 -45 -133.5 -72t-94.5 -27q-70 0 -124 50q-80 73 -80 202zM215 930q35 47 102.5 161.5t87.5 163.5q2 6 38 17.5 t44 11.5q31 -72 97.5 -184.5t97.5 -151.5q-4 -8 -47 -24.5t-62 -16.5q-14 4 -57 68.5t-72 120.5q-6 2 -12 0q-84 -143 -115 -162q-14 -8 -46.5 -15.5t-49.5 -5.5q-8 4 -8 10q0 4 2 7zM315 276q0 -72 41 -110.5t93 -38.5q33 0 45 12q12 8 12 37q4 63 4 223q0 10 -6 11 l-59 -20q-46 -15 -74.5 -26.5t-38.5 -19.5q-17 -17 -17 -68z" />
<glyph unicode="&#xe3;" horiz-adv-x="905" d="M70 227q0 20 11 63.5t23 59.5q33 20 196 68.5t194 60.5q12 2 16 23q2 12 2 26q0 66 -31 107q-47 63 -139 63q-76 0 -100 -28q-14 -14 -68 -121q-8 -6 -42 10t-32 25q0 14 16.5 69.5t26.5 63.5q76 55 173.5 93t148.5 38q158 0 244 -125q51 -76 51 -207q0 -49 -2 -160.5 t-2 -152.5q0 -78 55 -78q33 0 68 10q2 -2 1 -10q0 -10 -2 -30q-5 -36 -10 -42q-39 -35 -103.5 -57.5t-119.5 -22.5q-104 0 -125 64q-6 16 -10 35q-2 4 -8 2q-68 -45 -133.5 -72t-94.5 -27q-70 0 -124 50q-80 73 -80 202zM151 975q0 10 3 26q4 25 8 29q20 35 81.5 82 t104.5 47q49 0 127 -26q74 -25 105 -25q74 0 143 68h2l10 -9q3 -13 3 -23q0 -19 -9 -34q-23 -47 -85 -93t-122 -46q-47 0 -139 33q-41 18 -86 18q-59 0 -131 -68q-2 -2 -4 0t-6 5q-5 4 -5 16zM315 276q0 -72 41 -110.5t93 -38.5q33 0 45 12q12 8 12 37q4 63 4 223 q0 10 -6 11l-59 -20q-46 -15 -74.5 -26.5t-38.5 -19.5q-17 -17 -17 -68z" />
<glyph unicode="&#xe4;" horiz-adv-x="905" d="M70 227q0 20 11 63.5t23 59.5q33 20 196 68.5t194 60.5q12 2 16 23q2 12 2 26q0 66 -31 107q-47 63 -139 63q-76 0 -100 -28q-14 -14 -68 -121q-8 -6 -42 10t-32 25q0 14 16.5 69.5t26.5 63.5q76 55 173.5 93t148.5 38q158 0 244 -125q51 -76 51 -207q0 -49 -2 -160.5 t-2 -152.5q0 -78 55 -78q33 0 68 10q2 -2 1 -10q0 -10 -2 -30q-5 -36 -10 -42q-39 -35 -103.5 -57.5t-119.5 -22.5q-104 0 -125 64q-6 16 -10 35q-2 4 -8 2q-68 -45 -133.5 -72t-94.5 -27q-70 0 -124 50q-80 73 -80 202zM150 1065q-3 23 -3 41q0 35 11 47q45 45 131 45 q57 0 78 -27q14 -27 14 -67q0 -57 -49 -107q-10 -10 -59.5 -14t-63.5 2q-45 27 -59 80zM315 276q0 -72 41 -110.5t93 -38.5q33 0 45 12q12 8 12 37q4 63 4 223q0 10 -6 11l-59 -20q-46 -15 -74.5 -26.5t-38.5 -19.5q-17 -17 -17 -68zM516 1065q-3 22 -3 39q0 34 11 49 q18 18 58.5 31.5t72.5 13.5q53 0 80 -27q12 -23 13 -67q0 -61 -50 -107q-10 -10 -59 -14q-20 -2 -34 -2q-21 0 -30 4q-41 27 -59 80z" />
<glyph unicode="&#xe5;" horiz-adv-x="905" d="M70 227q0 20 11 63.5t23 59.5q33 20 196 68.5t194 60.5q12 2 16 23q2 12 2 26q0 66 -31 107q-47 63 -139 63q-76 0 -100 -28q-14 -14 -68 -121q-8 -6 -42 10t-32 25q0 14 16.5 69.5t26.5 63.5q76 55 173.5 93t148.5 38q158 0 244 -125q51 -76 51 -207q0 -49 -2 -160.5 t-2 -152.5q0 -78 55 -78q33 0 68 10q2 -2 1 -10q0 -10 -2 -30q-5 -36 -10 -42q-39 -35 -103.5 -57.5t-119.5 -22.5q-104 0 -125 64q-6 16 -10 35q-2 4 -8 2q-68 -45 -133.5 -72t-94.5 -27q-70 0 -124 50q-80 73 -80 202zM281 1090q0 78 47 127t127 49q76 0 117.5 -49.5 t41.5 -120.5q0 -80 -48 -127t-120 -47q-61 0 -113 41t-52 127zM315 276q0 -72 41 -110.5t93 -38.5q33 0 45 12q12 8 12 37q4 63 4 223q0 10 -6 11l-59 -20q-46 -15 -74.5 -26.5t-38.5 -19.5q-17 -17 -17 -68zM358 1094q0 -35 28 -56.5t67 -21.5q35 0 61.5 20.5t26.5 50.5 q0 86 -95 87q-43 0 -65.5 -21.5t-22.5 -58.5z" />
<glyph unicode="&#xe6;" horiz-adv-x="1339" d="M76 225q0 72 28 111q37 23 214.5 71t179.5 48q14 6 14 22q2 12 2 41q0 68 -31 115q-55 74 -141 74q-70 0 -98 -29q-6 -6 -66 -125q-6 -4 -41 9t-35 24q2 16 18.5 70.5t24.5 62.5q74 55 167 92t147 37q137 0 219 -96q4 -4 10 0q150 96 262 96q76 0 133.5 -27.5t88 -69.5 t45 -76t20.5 -67q14 -23 37 -33q0 -33 -12 -45q-88 -29 -488 -106q-10 -4 -10 -23q8 -100 82 -174q72 -72 184 -71q129 0 244 90q6 -4 9 -32q1 -12 1 -20q0 -11 -2 -16q-63 -88 -169.5 -145.5t-215.5 -57.5q-201 0 -303 136q-4 8 -12 0q-178 -133 -289 -134q-84 0 -141 54 q-76 75 -76 194zM319 276q0 -68 39 -104.5t93 -36.5q51 0 98 33q12 6 8 18q-43 94 -43 187q0 10 -10 10q-20 -6 -61.5 -16.5t-69 -18.5t-37.5 -16q-17 -17 -17 -56zM754 510q0 -2 4 -8q3 -5 7 -5q1 0 3 1q104 16 227 45q8 2 15 18q-6 76 -48 136.5t-97.5 60.5t-87.5 -67 q-25 -53 -25 -136q0 -21 2 -45z" />
<glyph unicode="&#xe7;" horiz-adv-x="878" d="M74 403q0 102 55 203t152 154q55 35 144 61.5t161 26.5q102 0 176 -27q59 -31 72 -59q8 -18 0 -41q-12 -31 -45 -72t-52 -51q-4 -2 -16 -1t-14 3q-4 4 -29 33t-41 43l-43 37q-27 23 -54.5 33t-56.5 10q-70 0 -111.5 -67.5t-41.5 -184.5q0 -139 63 -234q78 -109 221 -108 q121 0 220 82q10 -4 12 -15q2 -5 2 -13q0 -10 -3 -26q-5 -27 -14 -36q-106 -137 -276 -170l-45 -58q61 -31 92 -59q49 -43 49 -105q0 -86 -85 -144t-148 -58q-78 0 -119 59q-2 8 2 29.5t8 25.5q66 -33 125 -32q78 0 78 59q0 70 -147 117q-2 12 2 20l108 137h-8 q-197 2 -305 142q-88 108 -88 286z" />
<glyph unicode="&#xe8;" horiz-adv-x="917" d="M74 410q0 121 53 217t139 151q117 70 246 70q106 0 181 -53.5t104.5 -115t40.5 -128.5q2 -18 30 -29q2 -4 -3 -28.5t-9 -26.5q-78 -27 -508 -45q-8 -4 -8 -21q8 -98 78 -168q72 -70 194 -69q131 0 236 80q11 -11 10 -21q0 -20 -10 -61q-68 -84 -172.5 -135.5 t-204.5 -51.5q-172 0 -274 99q-123 117 -123 336zM254 1212q-4 18 10 29q18 8 103 15q53 5 79 5q15 0 21 -1q8 -18 48 -143.5t52 -174.5q-4 -6 -29.5 -19.5t-33.5 -11.5q-33 31 -126 143.5t-124 157.5zM336 528q0 -12 12 -12q55 -2 97 -2q85 0 122 8q12 4 13 19 q-4 102 -38 163.5t-91 61.5q-51 0 -83 -67t-32 -171z" />
<glyph unicode="&#xe9;" horiz-adv-x="917" d="M74 410q0 121 53 217t139 151q117 70 246 70q106 0 181 -53.5t104.5 -115t40.5 -128.5q2 -18 30 -29q2 -4 -3 -28.5t-9 -26.5q-78 -27 -508 -45q-8 -4 -8 -21q8 -98 78 -168q72 -70 194 -69q131 0 236 80q11 -11 10 -21q0 -20 -10 -61q-68 -84 -172.5 -135.5 t-204.5 -51.5q-172 0 -274 99q-123 117 -123 336zM336 528q0 -12 12 -12q55 -2 97 -2q85 0 122 8q12 4 13 19q-4 102 -38 163.5t-91 61.5q-51 0 -83 -67t-32 -171zM391 938q100 274 117 309q16 8 101 13q34 2 58 1q35 0 46 -4q2 -2 5 -13q2 -7 2 -11q0 -6 -6 -16.5 t-19.5 -28l-25.5 -32l-35.5 -42.5l-38.5 -46q-108 -130 -144 -165q-1 -1 -4 -1q-8 0 -28 12q-26 16 -28 24z" />
<glyph unicode="&#xea;" horiz-adv-x="917" d="M74 410q0 121 53 217t139 151q117 70 246 70q106 0 181 -53.5t104.5 -115t40.5 -128.5q2 -18 30 -29q2 -4 -3 -28.5t-9 -26.5q-78 -27 -508 -45q-8 -4 -8 -21q8 -98 78 -168q72 -70 194 -69q131 0 236 80q11 -11 10 -21q0 -20 -10 -61q-68 -84 -172.5 -135.5 t-204.5 -51.5q-172 0 -274 99q-123 117 -123 336zM252 930q35 47 102.5 161.5t87.5 163.5q2 6 38 17.5t44 11.5q31 -72 97.5 -184.5t97.5 -151.5q-4 -8 -47 -24.5t-62 -16.5q-14 4 -57 68.5t-72 120.5q-6 2 -12 0q-84 -143 -115 -162q-14 -8 -47 -15.5t-49 -5.5q-8 4 -8 10 q0 4 2 7zM336 528q0 -12 12 -12q55 -2 97 -2q85 0 122 8q12 4 13 19q-4 102 -38 163.5t-91 61.5q-51 0 -83 -67t-32 -171z" />
<glyph unicode="&#xeb;" horiz-adv-x="917" d="M74 410q0 121 53 217t139 151q117 70 246 70q106 0 181 -53.5t104.5 -115t40.5 -128.5q2 -18 30 -29q2 -4 -3 -28.5t-9 -26.5q-78 -27 -508 -45q-8 -4 -8 -21q8 -98 78 -168q72 -70 194 -69q131 0 236 80q11 -11 10 -21q0 -20 -10 -61q-68 -84 -172.5 -135.5 t-204.5 -51.5q-172 0 -274 99q-123 117 -123 336zM193 1065q-3 23 -3 41q0 35 11 47q45 45 131 45q57 0 78 -27q14 -27 14 -67q0 -57 -49 -107q-10 -10 -59.5 -14t-63.5 2q-45 27 -59 80zM336 528q0 -12 12 -12q55 -2 97 -2q85 0 122 8q12 4 13 19q-4 102 -38 163.5 t-91 61.5q-51 0 -83 -67t-32 -171zM559 1065q-3 22 -3 39q0 34 11 49q18 18 58.5 31.5t72.5 13.5q53 0 80 -27q12 -23 13 -67q0 -61 -50 -107q-10 -10 -59 -14q-20 -2 -34 -2q-21 0 -30 4q-41 27 -59 80z" />
<glyph unicode="&#xec;" horiz-adv-x="563" d="M36 37q0 21 5 26q55 10 76 19q33 8 35 80q2 45 2 270q0 152 -2 186q0 37 -15 52q-20 23 -82 47q-4 8 -2 32.5t6 30.5q47 0 170 21.5t193 50.5q0 -39 -1 -163t-1 -185q0 -242 2 -336q0 -70 37 -86l80 -19q4 -4 3 -15q0 -8 -1 -18q-4 -28 -13 -36q-8 0 -90 3t-157 3 q-66 0 -144 -3t-96 -3q-5 10 -5 43zM43 1198q-4 18 10 29q18 8 103 15q53 5 79 5q15 0 21 -2q8 -18 48 -143t52 -174q-4 -6 -29 -20q-22 -12 -32 -11h-2q-33 31 -126 143.5t-124 157.5z" />
<glyph unicode="&#xed;" horiz-adv-x="563" d="M36 37q0 21 5 26q55 10 76 19q33 8 35 80q2 45 2 270q0 152 -2 186q0 37 -15 52q-20 23 -82 47q-4 8 -2 32.5t6 30.5q47 0 170 21.5t193 50.5q0 -39 -1 -163t-1 -185q0 -242 2 -336q0 -70 37 -86l80 -19q4 -4 3 -15q0 -8 -1 -18q-4 -28 -13 -36q-8 0 -90 3t-157 3 q-66 0 -144 -3t-96 -3q-5 10 -5 43zM197 938q100 274 116 309q16 8 102 13q34 2 57 1q35 0 46 -4q2 -2 5 -13q2 -7 2 -11q0 -6 -5.5 -16.5t-19 -28l-25.5 -32l-36 -42.5l-39 -46q-108 -130 -144 -165q-1 -1 -3 -1q-8 0 -29 12q-25 16 -27 24z" />
<glyph unicode="&#xee;" horiz-adv-x="563" d="M36 37q0 21 5 26q55 10 76 19q33 8 35 80q2 45 2 270q0 152 -2 186q0 37 -15 52q-20 23 -82 47q-4 8 -2 32.5t6 30.5q47 0 170 21.5t193 50.5q0 -39 -1 -163t-1 -185q0 -242 2 -336q0 -70 37 -86l80 -19q4 -4 3 -15q0 -8 -1 -18q-4 -28 -13 -36q-8 0 -90 3t-157 3 q-66 0 -144 -3t-96 -3q-5 10 -5 43zM47 930q35 47 102.5 161.5t88.5 163.5q2 6 37.5 17.5t43.5 11.5q31 -72 97.5 -184.5t97.5 -151.5q-4 -8 -47 -24.5t-61 -16.5q-14 4 -57.5 68.5t-72.5 120.5q-6 2 -12 0q-84 -143 -115 -162q-14 -8 -46.5 -15.5t-49.5 -5.5q-8 4 -8 10 q0 4 2 7z" />
<glyph unicode="&#xef;" horiz-adv-x="563" d="M-20 1065q-3 23 -3 41q0 35 11 47q45 45 131 45q57 0 78 -27q14 -27 14 -67q0 -57 -49 -107q-10 -10 -59.5 -14t-63.5 2q-45 27 -59 80zM36 37q0 21 5 26q55 10 76 19q33 8 35 80q2 45 2 270q0 152 -2 186q0 37 -15 52q-20 23 -82 47q-4 8 -2 32.5t6 30.5q47 0 170 21.5 t193 50.5q0 -39 -1 -163t-1 -185q0 -242 2 -336q0 -70 37 -86l80 -19q6 -6 2 -33.5t-13 -35.5q-8 0 -90 3t-157 3q-66 0 -144 -3t-96 -3q-5 10 -5 43zM346 1065q-3 22 -3 39q0 34 11 49q18 18 58.5 31.5t72.5 13.5q53 0 80 -27q12 -23 13 -67q0 -61 -50 -107 q-10 -10 -59 -14q-20 -2 -34 -2q-21 0 -29 4q-42 27 -60 80z" />
<glyph unicode="&#xf0;" horiz-adv-x="1056" d="M74 397q0 242 182 359q45 31 123 55.5t151 24.5q72 0 109 -13q-33 104 -94 189l-264 -105q-4 0 -9.5 17.5t-4.5 39t7 25.5l207 92q-141 147 -338 207q0 10 12.5 37t16.5 31q92 -2 230.5 -55.5t265.5 -143.5l237 98q1 0 2 1q11 0 11 -55v-17q0 -14 -3 -15l-172 -77 q109 -104 169.5 -255t60.5 -313q0 -360 -240 -491q-104 -57 -231 -58q-213 0 -320.5 127t-107.5 295zM367 467q0 -186 49 -299t137 -113q141 0 141 342q0 197 -35 258q-55 100 -153 101q-63 0 -101 -74t-38 -215z" />
<glyph unicode="&#xf1;" horiz-adv-x="1097" d="M40 39q0 18 3 24q18 2 63 15q37 8 44 80q4 123 4 313q0 139 -4 160q-10 45 -97 76q0 45 10 61q211 25 345 90q8 -8 8 -16v-113q0 -4 4 -6t6 0q158 125 262 125q139 0 211 -111q55 -82 55 -241v-363q0 -23 17 -35q37 -27 98 -35q2 -5 2 -15q0 -8 -1 -19q-3 -27 -11 -35 q-2 0 -77 3t-159 3q-18 0 -227 -6q-4 10 -5 36.5t5 32.5l53 15q31 10 35 57q4 43 4 210t-10 222q-14 63 -62 95q-33 23 -88 22q-49 0 -94 -27q-16 -10 -16 -32q0 -63 1 -240.5t3 -234.5q2 -61 45 -74q14 -4 57 -13q4 -6 2 -33.5t-6 -35.5q-240 6 -244 6q-96 0 -231 -6 q-5 13 -5 45zM257 975q0 10 3 26q4 25 8 29q20 35 82 82t105 47q49 0 127 -26q74 -25 104 -25q74 0 143 68h2l11 -9q3 -13 3 -23q0 -19 -9 -34q-23 -47 -85.5 -93t-121.5 -46q-47 0 -140 33q-41 18 -86 18q-59 0 -131 -68q-1 -1 -2 -1l-2 1l-6 6q-5 3 -5 15z" />
<glyph unicode="&#xf2;" horiz-adv-x="1064" d="M74 416q0 231 184 350q127 82 289 82q209 0 326.5 -121t117.5 -307q0 -250 -186 -367q-125 -78 -281 -78q-223 0 -336.5 123t-113.5 318zM295 1204q-4 18 10 29q18 8 103 15q53 5 79 5q15 0 21 -2q8 -18 48 -143t52 -174q-4 -6 -29.5 -19.5t-33.5 -11.5 q-33 31 -126 143.5t-124 157.5zM365 477q0 -205 55 -313.5t141 -108.5q41 0 64 23q72 63 71 284q0 186 -51 295t-145 109q-27 0 -56 -18q-79 -60 -79 -271z" />
<glyph unicode="&#xf3;" horiz-adv-x="1064" d="M74 416q0 231 184 350q127 82 289 82q209 0 326.5 -121t117.5 -307q0 -250 -186 -367q-125 -78 -281 -78q-223 0 -336.5 123t-113.5 318zM365 477q0 -205 55 -313.5t141 -108.5q41 0 64 23q72 63 71 284q0 186 -51 295t-145 109q-27 0 -56 -18q-79 -60 -79 -271zM434 938 q100 274 117 309q16 8 101 13q34 2 58 1q35 0 46 -4q2 -2 5 -13q2 -7 2 -11q0 -6 -6 -16.5t-19.5 -28l-25.5 -32l-35.5 -42.5l-38.5 -46q-108 -130 -144 -165q-1 -1 -4 -1q-8 0 -28 12q-26 16 -28 24z" />
<glyph unicode="&#xf4;" horiz-adv-x="1064" d="M74 416q0 231 184 350q127 82 289 82q209 0 326.5 -121t117.5 -307q0 -250 -186 -367q-125 -78 -281 -78q-223 0 -336.5 123t-113.5 318zM295 930q33 47 101.5 161.5t88.5 163.5q2 6 38 17.5t44 11.5q31 -72 97.5 -184.5t97.5 -151.5q-4 -8 -47 -24.5t-62 -16.5 q-14 4 -57 68.5t-72 120.5q-6 2 -12 0q-84 -143 -115 -162q-14 -8 -47 -15.5t-49 -5.5q-8 4 -8 10q0 4 2 7zM365 477q0 -205 55 -313.5t141 -108.5q41 0 64 23q72 63 71 284q0 186 -51 295t-145 109q-27 0 -56 -18q-79 -60 -79 -271z" />
<glyph unicode="&#xf5;" horiz-adv-x="1064" d="M74 416q0 231 184 350q127 82 289 82q209 0 326.5 -121t117.5 -307q0 -250 -186 -367q-125 -78 -281 -78q-223 0 -336.5 123t-113.5 318zM241 975q0 10 3 26q4 25 8 29q20 35 81.5 82t104.5 47q49 0 127 -26q74 -25 105 -25q74 0 143 68h2l10 -9q3 -13 3 -23 q0 -19 -9 -34q-23 -47 -85 -93t-122 -46q-47 0 -139 33q-41 18 -86 18q-59 0 -131 -68q-2 -2 -4 0t-6 5q-5 4 -5 16zM365 477q0 -205 55 -313.5t141 -108.5q41 0 64 23q72 63 71 284q0 186 -51 295t-145 109q-27 0 -56 -18q-79 -60 -79 -271z" />
<glyph unicode="&#xf6;" horiz-adv-x="1064" d="M74 416q0 231 184 350q127 82 289 82q209 0 326.5 -121t117.5 -307q0 -250 -186 -367q-125 -78 -281 -78q-223 0 -336.5 123t-113.5 318zM231 1065q-3 23 -2 41q0 35 11 47q45 45 131 45q57 0 78 -27q14 -27 14 -67q0 -57 -49 -107q-10 -10 -59.5 -14t-63.5 2 q-46 27 -60 80zM365 477q0 -205 55 -313.5t141 -108.5q41 0 64 23q72 63 71 284q0 186 -51 295t-145 109q-27 0 -56 -18q-79 -60 -79 -271zM598 1065q-3 22 -3 39q0 34 11 49q18 18 58.5 31.5t72.5 13.5q53 0 80 -27q12 -23 12 -67q0 -61 -49 -107q-10 -10 -59 -14 q-20 -2 -34 -2q-21 0 -30 4q-41 27 -59 80z" />
<glyph unicode="&#xf7;" horiz-adv-x="1120" d="M84 440q4 61 31 123q14 -4 233 -4h678q6 -2 6 -20q0 -14 -14 -62.5t-23 -50.5l-905 -6q-6 2 -6 20zM440 807q0 10 6 37q8 33 13 37q47 35 119 34q61 0 75 -18q16 -27 17 -53q0 -66 -58 -131q-10 -8 -55 -13q-11 -1 -21 -1q-30 0 -47 10q-49 37 -49 98zM440 193q0 10 6 34 q8 31 13 35q41 37 119 37q61 0 75 -18q16 -33 17 -64q0 -76 -41 -117q-8 -8 -58 -15q-18 -3 -32 -3q-25 0 -39 8q-60 49 -60 103z" />
<glyph unicode="&#xf8;" horiz-adv-x="1064" d="M74 416q0 231 184 350q127 82 289 82q109 0 196 -35l60 92q2 2 27.5 -17.5t27.5 -23.5l-53 -84q186 -115 186 -360q0 -250 -186 -367q-125 -78 -281 -78q-125 0 -223 43l-61 -90q-4 0 -29 17.5t-27 21.5l58 86q-168 117 -168 363zM352 477q0 -139 25 -219l270 414 q-49 94 -143 94q-152 0 -152 -289zM406 178q57 -123 155 -123q150 0 150 307q0 129 -29 234z" />
<glyph unicode="&#xf9;" horiz-adv-x="1067" d="M26 769q3 26 9 34q297 12 381 33q-12 -92 -13 -371q0 -197 11 -232q23 -84 127 -83q57 0 98 32q14 14 14 31q4 35 4 143.5t-4 290.5q0 53 -35 64q-35 12 -106 22q-4 19 -4 34q0 23 10 36q219 0 410 31q-4 -37 -4 -213v-412q4 -63 37 -70q27 -2 83 -2q0 -55 -10 -71 q-57 -27 -189 -60t-167 -33q-6 4 -12 15q-10 37 -11 112q0 4 -4 5t-6 -1q-152 -125 -272 -124q-117 0 -174.5 69.5t-59.5 186.5v201q0 151 -2 202q-2 37 -9 53.5t-30 22.5q-53 14 -71 16q-2 7 -3 19q1 8 2 19zM297 1198q-4 18 10 29q18 8 103 15q53 5 79 5q15 0 21 -2 q8 -18 48 -143t52 -174q-4 -6 -29 -20q-22 -12 -32 -11h-2q-33 31 -126 143.5t-124 157.5z" />
<glyph unicode="&#xfa;" horiz-adv-x="1067" d="M26 769q3 26 9 34q297 12 381 33q-12 -92 -13 -371q0 -197 11 -232q23 -84 127 -83q57 0 98 32q14 14 14 31q4 35 4 143.5t-4 290.5q0 53 -35 64q-35 12 -106 22q-4 19 -4 34q0 23 10 36q219 0 410 31q-4 -37 -4 -213v-412q4 -63 37 -70q27 -2 83 -2q0 -55 -10 -71 q-57 -27 -189 -60t-167 -33q-6 4 -12 15q-10 37 -11 112q0 4 -4 5t-6 -1q-152 -125 -272 -124q-117 0 -174.5 69.5t-59.5 186.5v201q0 151 -2 202q-2 37 -9 53.5t-30 22.5q-53 14 -71 16q-2 7 -3 19q1 8 2 19zM451 938q100 274 116 309q16 8 102 13q34 2 57 1q35 0 46 -4 q2 -2 5 -13q2 -7 2 -11q0 -6 -5.5 -16.5t-19 -28l-25.5 -32l-36 -42.5l-39 -46q-108 -130 -144 -165q-1 -1 -4 -1q-8 0 -28 12q-25 16 -27 24z" />
<glyph unicode="&#xfb;" horiz-adv-x="1067" d="M26 769q3 26 9 34q297 12 381 33q-12 -92 -13 -371q0 -197 11 -232q23 -84 127 -83q57 0 98 32q14 14 14 31q4 35 4 143.5t-4 290.5q0 53 -35 64q-35 12 -106 22q-4 19 -4 34q0 23 10 36q219 0 410 31q-4 -37 -4 -213v-412q4 -63 37 -70q27 -2 83 -2q0 -55 -10 -71 q-57 -27 -189 -60t-167 -33q-6 4 -12 15q-10 37 -11 112q0 4 -4 5t-6 -1q-152 -125 -272 -124q-117 0 -174.5 69.5t-59.5 186.5v201q0 151 -2 202q-2 37 -9 53.5t-30 22.5q-53 14 -71 16q-2 7 -3 19q1 8 2 19zM289 930q35 47 102.5 161.5t87.5 163.5q2 6 38 17.5t44 11.5 q31 -72 97.5 -184.5t97.5 -151.5q-4 -8 -47 -24.5t-62 -16.5q-14 4 -57 68.5t-72 120.5q-6 2 -12 0q-84 -143 -115 -162q-14 -8 -47 -15.5t-49 -5.5q-8 4 -8 10q0 4 2 7z" />
<glyph unicode="&#xfc;" horiz-adv-x="1067" d="M26 769q3 26 9 34q297 12 381 33q-12 -92 -13 -371q0 -197 11 -232q23 -84 127 -83q57 0 98 32q14 14 14 31q4 35 4 143.5t-4 290.5q0 53 -35 64q-35 12 -106 22q-4 19 -4 34q0 23 10 36q219 0 410 31q-4 -37 -4 -213v-412q4 -63 37 -70q27 -2 83 -2q0 -55 -10 -71 q-57 -27 -189 -60t-167 -33q-6 4 -12 15q-10 37 -11 112q0 4 -4 5t-6 -1q-152 -125 -272 -124q-117 0 -174.5 69.5t-59.5 186.5v201q0 151 -2 202q-2 37 -9 53.5t-30 22.5q-53 14 -71 16q-2 7 -3 19q1 8 2 19zM225 1065q-3 23 -2 41q0 35 10 47q45 45 132 45q57 0 77 -27 q14 -27 15 -67q0 -57 -49 -107q-10 -10 -60 -14q-20 -2 -34 -2q-21 0 -29 4q-46 27 -60 80zM592 1065q-3 22 -3 39q0 34 11 49q18 18 58 31.5t73 13.5q53 0 80 -27q12 -23 12 -67q0 -61 -49 -107q-10 -10 -59 -14q-20 -2 -34 -2q-21 0 -30 4q-41 27 -59 80z" />
<glyph unicode="&#xfd;" horiz-adv-x="929" d="M-27 756q0 49 13 69l92 -2q92 -4 172 -4q59 0 237 6q4 -8 5.5 -33.5t-0.5 -35.5q-49 -12 -62 -19q-20 -10 -14 -39q43 -135 153 -393h9q106 233 127 361q1 9 1 16q0 39 -36 51q-31 14 -92 23q0 55 10 69q18 0 81.5 -3t104.5 -3q14 0 199 6q6 -18 5 -37q0 -16 -3 -32 q-45 -8 -76 -23q-51 -23 -88 -121q-156 -414 -451 -952l-71 -131l-25 -8q-29 2 -78 21.5t-63 41.5q-8 27 2 43q215 246 287 387q-8 12 -29 54l-201 475q-45 111 -69.5 145.5t-65.5 48.5q-6 3 -74 19zM459 938q100 274 116 309q16 8 102 13q34 2 57 1q35 0 46 -4q2 -2 5 -13 q2 -7 2 -11q0 -6 -5.5 -16.5t-19 -28l-25.5 -32l-35.5 -42.5l-38.5 -46q-108 -130 -145 -165q-1 -1 -3 -1q-8 0 -29 12q-25 16 -27 24z" />
<glyph unicode="&#xfe;" horiz-adv-x="1062" d="M-12 -450q-1 9 -1 17q0 14 3 19q61 14 94 25q41 16 45 98q6 106 6 838q-4 559 -10 602q-6 45 -47 55q-16 4 -78 15q-2 6 -1 33.5t5 33.5q84 4 213 26.5t197 47.5q12 -6 12 -33q-27 -41 -27 -258v-299q2 -8 11 -4q180 82 256 82q139 0 227 -98q96 -104 96 -273 q0 -231 -182 -373q-53 -43 -162.5 -82.5t-189.5 -46.5h-56q0 -211 2 -264q4 -37 16.5 -55t43.5 -27q14 -4 119 -18q2 -12 1 -22q0 -31 -14 -50h-51q-283 0 -522 -26q-4 9 -6 37zM401 666q-3 -146 -2 -250q0 -139 4 -203q4 -57 33 -84q49 -47 123 -47q61 0 103 55 q57 72 57 228q0 162 -64 249q-66 92 -172 93q-49 0 -69 -15q-13 -3 -13 -26z" />
<glyph unicode="&#xff;" horiz-adv-x="929" d="M-27 756q0 49 13 69l92 -2q92 -4 172 -4q59 0 237 6q4 -8 5.5 -33.5t-0.5 -35.5q-49 -12 -62 -19q-20 -10 -14 -39q43 -135 153 -393h9q106 233 127 361q1 9 1 16q0 39 -36 51q-31 14 -92 23q0 55 10 69q18 0 81.5 -3t104.5 -3q14 0 199 6q6 -18 5 -37q0 -16 -3 -32 q-45 -8 -76 -23q-51 -23 -88 -121q-156 -414 -451 -952l-71 -131l-25 -8q-29 2 -78 21.5t-63 41.5q-8 27 2 43q215 246 287 387q-8 12 -29 54l-201 475q-45 111 -69.5 145.5t-65.5 48.5q-6 3 -74 19zM215 1065q-3 23 -3 41q0 35 11 47q45 45 131 45q57 0 78 -27 q14 -27 14 -67q0 -57 -49 -107q-10 -10 -59 -14q-20 -2 -34 -2q-21 0 -30 4q-45 27 -59 80zM582 1065q-3 22 -3 39q0 34 11 49q18 18 58 31.5t73 13.5q53 0 80 -27q12 -23 12 -67q0 -61 -49 -107q-10 -10 -59 -14q-20 -2 -34 -2q-21 0 -30 4q-41 27 -59 80z" />
<glyph unicode="&#x152;" horiz-adv-x="2070" d="M102 618q0 295 189 459q190 195 508 195q90 0 178 -17q57 -12 133 -20h549q188 0 264 12l8 -8q-14 -59 -28 -309q-8 -8 -39 -9t-39 5q-18 102 -41 147q-25 49 -86 57q-39 4 -229 7q-63 1 -109 0q-92 0 -115 -2q-4 0 -7 -4.5t-1 -6.5q186 -154 201 -432q0 -12 10 -12 q190 0 221 2t46.5 17.5t25.5 52.5l16 77q8 6 41 4t43 -8q0 -8 -5 -83.5t-5 -114.5q0 -84 6 -207q-12 -6 -43 -8t-39 6q-8 29 -12 51.5t-8 34.5q-18 51 -70 55q-25 2 -116 4q-46 1 -72.5 1t-34.5 -1q-8 0 -8 -12q-12 -256 -195 -416q-6 -6 -4 -13t10 -9q154 -12 453 -13 q70 0 102.5 12.5t61.5 53.5q68 88 106 186q10 2 41 -8t35 -18q-25 -135 -70 -267q-18 -51 -35.5 -59t-91.5 -8q-86 0 -425 4t-343 4q-51 0 -82 -10q-106 -27 -221 -27q-317 0 -495 184q-179 186 -179 471zM430 684q0 -156 50 -311.5t149 -243.5q92 -76 209 -76q90 0 151 62 q127 127 127 454q0 383 -180 541q-92 76 -203 76q-86 0 -145 -49q-158 -115 -158 -453z" />
<glyph unicode="&#x153;" horiz-adv-x="1562" d="M74 416q0 229 182 348q129 84 287 84q176 -2 299 -109q10 -10 20 2q141 106 291 107q76 0 135.5 -27.5t93 -70.5t51 -80t21.5 -68q14 -27 37 -35q0 -27 -14 -49q-23 -6 -486 -61q-10 -6 -10 -23q6 -123 84 -201q76 -76 197 -75q129 0 237 86q6 -4 8 -34q1 -10 1 -17 q0 -15 -3 -21q-66 -86 -176 -141.5t-213 -55.5q-162 0 -272 111q-4 4 -6 0q-137 -111 -312 -111q-223 0 -337.5 123t-114.5 318zM362 479q0 -207 59.5 -312.5t147.5 -105.5q43 0 68 21q72 57 72 278q0 186 -53.5 296t-151.5 110q-31 0 -58 -21q-84 -61 -84 -266zM973 545 q0 -2 4 -8q3 -5 7 -5h3q209 23 221 27q14 4 15 19q-6 70 -43 130t-93 60q-51 0 -85 -67q-30 -59 -30 -137q1 -9 1 -19z" />
<glyph unicode="&#x178;" horiz-adv-x="1183" d="M-51 1209q2 26 8 32q31 0 127 -3t156 -3q203 0 313 6q6 -6 7 -34.5t-5 -35.5q-10 -2 -63 -14q-22 -6 -22 -28q0 -13 7 -31q27 -59 109 -222t106 -204q8 -4 15 0q55 96 122.5 229t83.5 184q2 10 3 19q0 38 -46 49q-39 10 -106 18q-4 12 -1 39t9 31q18 0 103.5 -3t144.5 -3 q57 0 130 3t99 3q6 -4 6 -33.5t-6 -36.5q-82 -14 -92 -18q-45 -16 -75.5 -42t-73.5 -93q-147 -246 -242 -434q-23 -47 -23 -99q0 -74 5 -282q2 -37 5 -56.5t18 -38t44 -24.5q29 -8 115 -23q4 -4 1 -33.5t-7 -35.5q-29 0 -152 4t-190 4q-92 0 -185.5 -4t-128.5 -4 q-6 6 -5 35.5t5 33.5q92 12 125 23q37 8 48.5 35.5t11.5 79.5q4 96 4 266q0 41 -27 104q-88 184 -231 435q-51 86 -81 114.5t-73 40.5q-57 12 -92 15q-5 8 -5 24q0 5 1 11zM350 1432q-6 23 -5 41q0 29 13 49q43 43 136 43q59 0 79 -25q14 -27 15 -70q0 -63 -51 -110 q-10 -10 -61 -14q-17 -1 -29 -2q-25 0 -35 6q-48 25 -62 82zM725 1432q-6 23 -6 41q0 29 14 49q43 43 133 43q57 0 82 -25q14 -27 15 -70q0 -63 -52 -110q-10 -10 -60 -14q-17 -1 -30 -2q-25 0 -35 6q-45 23 -61 82z" />
<glyph unicode="&#x2c6;" horiz-adv-x="819" d="M182 930q35 47 102.5 161.5t88.5 163.5q2 6 37.5 17.5t44.5 11.5q31 -72 97 -184.5t97 -151.5q-4 -8 -47 -24.5t-61 -16.5q-14 4 -57.5 68.5t-71.5 120.5q-6 2 -13 0q-84 -143 -114 -162q-14 -8 -47 -15.5t-50 -5.5q-8 4 -8 10q0 4 2 7z" />
<glyph unicode="&#x2dc;" horiz-adv-x="819" d="M118 975q0 10 3 26q4 25 8 29q20 35 81.5 82t104.5 47q49 0 127 -26q74 -25 105 -25q74 0 143 68h2l10 -9q3 -13 3 -23q0 -19 -9 -34q-23 -47 -85 -93t-122 -46q-47 0 -139 33q-41 18 -86 18q-59 0 -131 -68q-1 -1 -2 -1l-2 1q-2 2 -6 5q-5 4 -5 16z" />
<glyph unicode="&#x2013;" horiz-adv-x="1024" d="M70 365q2 23 10 62.5t12 41.5q10 2 429 3h234q189 0 197 -1q2 -14 2 -16q-10 -102 -18 -105q-12 -4 -422 -4t-440 2q-4 1 -4 17z" />
<glyph unicode="&#x2014;" horiz-adv-x="2048" d="M84 362q18 104 22 107q10 2 927 3h511q411 0 420 -1v-14q-10 -104 -16 -107q-12 -4 -921.5 -4t-940.5 2z" />
<glyph unicode="&#x2018;" horiz-adv-x="493" d="M74 1049q0 121 106.5 211t216.5 116q4 -4 13.5 -27.5t7.5 -31.5q-170 -68 -170 -191q0 -80 114 -108q4 -4 7.5 -17.5t1.5 -21.5q-8 -25 -61.5 -69t-84.5 -44q-61 0 -106 52.5t-45 130.5z" />
<glyph unicode="&#x2019;" horiz-adv-x="493" d="M76 926q172 78 172 192q0 35 -33 63.5t-84 43.5q-16 12 -8 39q6 20 60.5 66t84.5 46q61 0 106.5 -52t45.5 -130q0 -121 -106.5 -211t-217.5 -117q-4 4 -13 28t-7 32z" />
<glyph unicode="&#x201a;" horiz-adv-x="499" d="M2 -295q178 158 178 299q0 61 -71 166q16 25 81.5 79t94.5 66q7 3 18 4q3 0 6 -1q16 -1 23 -5q20 -18 37.5 -67t17.5 -105q0 -141 -105.5 -281.5t-207.5 -189.5q-2 -1 -7 -1q-8 0 -25 4q-26 7 -36 16l-2 4v8z" />
<glyph unicode="&#x201c;" horiz-adv-x="849" d="M74 1049q0 121 107.5 211t215.5 116q6 -4 14.5 -27.5t6.5 -31.5q-172 -72 -172 -191q0 -78 116 -108q4 -4 7.5 -17.5t1.5 -21.5q-6 -23 -58.5 -68t-87.5 -45q-66 0 -108.5 52.5t-42.5 130.5zM430 1049q0 121 107.5 211t216.5 116q4 -4 13 -27.5t7 -31.5 q-172 -70 -172 -193q0 -35 32 -63.5t85 -42.5q14 -10 8 -39q-8 -25 -61.5 -69t-85.5 -44q-66 0 -108 51.5t-42 131.5z" />
<glyph unicode="&#x201d;" horiz-adv-x="849" d="M76 926q172 66 172 190q0 35 -32 64.5t-85 44.5q-14 8 -8 37q8 25 62.5 69.5t86.5 44.5q63 0 105.5 -52t42.5 -132q0 -121 -106.5 -210t-215.5 -116q-6 2 -15 27t-7 33zM432 926q172 66 172 190q0 78 -117 109q-4 4 -7 16t-1 21q6 23 60.5 68.5t85.5 45.5q66 0 108.5 -52 t42.5 -132q0 -123 -105.5 -210t-215.5 -116q-6 2 -15.5 27t-7.5 33z" />
<glyph unicode="&#x201e;" horiz-adv-x="866" d="M8 -295q88 80 133 149.5t45 149.5q0 61 -71 166q14 25 80.5 79t95.5 66q7 3 18 4q3 0 6 -1q16 -1 23 -5q20 -18 37.5 -67t17.5 -105q0 -135 -106.5 -279.5t-206.5 -191.5q-3 -2 -9 -1q-9 0 -24 3q-25 6 -35 17v4l-4 8v4zM369 -295q178 158 178 299q0 61 -72 166 q16 25 83 79t95 66q5 3 17 4q3 0 6 -1q16 -1 22 -5q20 -18 38 -67t18 -105q0 -141 -104.5 -281.5t-207.5 -189.5q-3 -1 -8 -1q-9 0 -24 4q-25 7 -35 16q-7 9 -8 13q1 2 2 3z" />
<glyph unicode="&#x2022;" horiz-adv-x="847" d="M172 391q0 106 80 180q72 72 176 72t176 -61q74 -72 74 -197q0 -111 -70 -182q-70 -70 -190 -70q-113 0 -176 66q-70 71 -70 192z" />
<glyph unicode="&#x2026;" horiz-adv-x="2048" d="M293 139q0 70 49 119q53 49 113 49q63 0 106 -43q51 -43 51 -129q0 -70 -43 -112q-47 -49 -125 -50q-59 0 -104 47q-47 45 -47 119zM864 139q0 70 49 119q53 49 112.5 49t107.5 -43q51 -47 51 -129q0 -70 -43 -112q-47 -49 -125 -50q-59 0 -107 47q-45 43 -45 119z M1436 139q0 70 49 119q53 49 112 49q63 0 107 -43q51 -43 51 -129q0 -70 -43 -112q-47 -49 -125 -50q-59 0 -104 47q-47 45 -47 119z" />
<glyph unicode="&#x2039;" horiz-adv-x="921" d="M145 360q6 47 19 60q147 59 334.5 169.5t267.5 170.5q10 0 10 -12q0 -16 -5 -52.5t-9 -40.5q-39 -41 -153.5 -121.5t-198.5 -130.5q-4 -2 -5.5 -6t3.5 -6q84 -45 199.5 -132t154.5 -130q6 -6 10 -43t2 -53q-10 -10 -16 -10q-57 49 -286 176.5t-327 160.5z" />
<glyph unicode="&#x203a;" horiz-adv-x="929" d="M145 35q0 18 6.5 53t10.5 39q37 39 151.5 119t204.5 133q6 6 2 12q-84 45 -199.5 132t-154.5 130q-6 6 -9 41t-1 54q0 2 5 7t9 5q57 -49 284.5 -177t329.5 -163q-10 -51 -20 -60q-150 -61 -341.5 -171.5t-264.5 -165.5q-2 0 -7.5 5t-5.5 7z" />
<glyph unicode="&#x20ac;" d="M57 475q-2 12 3.5 43t11.5 37h80q0 68 2 104h-78q-2 12 4 43t12 37h70q39 274 233 404q121 78 314 78q51 0 144 -10.5t112 -10.5q-3 -112 -3 -194q0 -41 1 -74q-4 -8 -34 -11t-36 1q-33 150 -88 190q-51 35 -119 35q-215 0 -240 -399q0 -10 11 -11h155q76 0 123 1t56 1 q1 -8 0 -16q0 -29 -11 -64h-327q-8 -2 -9 -8q-2 -22 -2 -44t2 -46q0 -8 7 -8q70 0 192.5 2t126.5 2q1 -8 1 -16q0 -29 -11 -64h-309q-6 -2 -7 -8q12 -176 81 -284.5t196 -108.5q82 0 133 59q57 59 92 141q49 -16 58 -36q-14 -61 -50 -129t-71 -101q-94 -39 -209 -39 q-221 0 -356.5 125t-159.5 379h-101z" />
<glyph unicode="&#x2122;" horiz-adv-x="1038" d="M53 1098l19 123q27 -10 78 -11h215q37 0 84 9l-17 -123h-37q-4 41 -11 54t-22 13h-57q0 -139 2 -190q0 -31 12.5 -39t63.5 -14q2 -2 0 -20.5t-4 -20.5q-6 0 -56.5 2t-70.5 2q-23 0 -74 -2t-55 -2q-2 2 -2 19t2 20q45 6 56 15t14 32q2 51 2 198h-52q-31 0 -55 -73 q-4 -2 -18.5 2t-16.5 6zM461 899.5q0 18.5 2 22.5q41 6 53 13t14 28q12 74 13 176q0 8 -1 11t-17.5 9t-49.5 10q-2 4 0 21.5t4 19.5h193l12 -36q47 -113 57 -130q25 43 64 130q8 14 12 36h184q2 -2 2.5 -19t-2.5 -22q-27 0 -40 -6t-15 -13t-2 -20v-169q0 -18 11.5 -25.5 t45.5 -11.5q4 -4 4.5 -23.5t-4.5 -21.5q-14 0 -65 2t-66 2q-16 0 -47.5 -2t-46.5 -2q-2 2 -2 22.5t2 22.5q31 4 39 11t8 26l4 163q-33 -63 -108 -241h-39l-25 66l-35 95q-17 45 -30 74q-8 -74 -8 -157q0 -31 53 -37q2 -2 2 -22.5t-2 -22.5q-12 0 -42 2t-46 2q-12 0 -41 -2 t-43 -2q-2 2 -2 20.5z" />
<glyph unicode="&#xe000;" horiz-adv-x="825" d="M0 825h825v-825h-825v825z" />
<glyph unicode="&#xfb01;" horiz-adv-x="1107" d="M34 36q0 22 5 27q63 14 78 19q37 12 37 65q2 115 2 543q0 4 -5.5 9.5t-9.5 5.5l-98 8q0 37 18 67q41 8 86 33q10 4 11 14q6 289 254 451q125 82 256 82q109 0 178 -39t94 -94q14 -31 0 -62q-31 -72 -115 -116q-37 -12 -61 4q-8 8 -72 92q-78 111 -155 110q-35 0 -68 -32 q-55 -59 -55 -312q0 -47 2 -77q0 -14 12 -15l303 2q143 0 238 27q-4 -47 -4 -361q0 -229 2 -323q0 -70 43 -84q16 -6 71 -17q4 -5 4 -16q0 -8 -2 -19q-4 -28 -12 -34q-23 0 -104.5 3t-141.5 3q-68 0 -141.5 -3t-83.5 -3q-4 8 -4 35.5t4 33.5q39 8 62 17q35 10 36 76 q4 90 4 280q0 166 -4 232q0 12 -8 25.5t-20 13.5h-244q-10 0 -10 -13q2 -127 4 -313t2 -219q2 -72 51 -86q10 -2 28.5 -5t37.5 -8q4 -8 3 -35.5t-10 -35.5q-10 0 -88.5 4t-167.5 4q-33 0 -126 -4t-111 -4q-5 10 -5 44z" />
<glyph unicode="&#xfb02;" horiz-adv-x="1114" d="M32 36q0 21 5 27q70 14 82 21q35 12 35 70q4 328 4 528q0 4 -5.5 9t-9.5 5l-96 6q0 47 19 74q45 8 84 35q8 6 8 14q4 152 64.5 262.5t189.5 194.5q121 78 229 78q113 0 190 -39q16 -8 41 0q39 12 89 37q6 -2 14 -13.5t8 -17.5q-14 -61 -14 -172q-2 -45 -2 -125t-1 -191.5 t-1 -185.5q0 -438 4 -497q2 -61 47 -76q10 -4 74 -17q3 -5 2 -18v-15q-2 -26 -9 -36q-14 0 -110 3t-154 3q-41 0 -116.5 -3t-100.5 -3q-4 8 -6 34.5t2 34.5q35 4 66 17q18 8 25 22.5t9 55.5q4 74 4 506q0 319 -2 419q0 70 -30 107q-51 66 -133 65q-39 0 -72 -32 q-53 -61 -53 -271q0 -88 2 -118q0 -14 14 -15l182 6q-8 -33 -18 -129q-31 0 -84 1t-82 1q-12 0 -12 -12l6 -522q2 -43 13 -60.5t42 -27.5q12 -4 34.5 -7t29.5 -6q4 -8 2 -35.5t-6 -35.5q-33 0 -114 4t-145 4q-33 0 -126 -4t-113 -4q-5 13 -5 44z" />
<glyph unicode="&#xfb03;" horiz-adv-x="1662" d="M30 35q0 20 5 26q74 16 84 21q35 12 35 68q2 164 2 540q0 14 -13 15l-100 8q0 37 18 67q37 8 89 33q6 4 10 18q2 113 61.5 221.5t179.5 182.5q139 84 261 84q145 0 239 -86q55 51 144.5 89t181.5 38q104 0 175 -40t93 -95q12 -27 0 -62q-31 -72 -111 -112q-17 -5 -31 -6 q-19 0 -34 10q-18 18 -74 92q-80 111 -151 110q-68 0 -96.5 -83.5t-28.5 -262.5l2 -77q0 -4 5 -9.5t9 -5.5l303 2q141 0 236 27q-4 -47 -4 -361q0 -229 2 -323q0 -70 43 -84q20 -8 71 -17q3 -5 3 -19q0 -7 -1 -16q-2 -28 -10 -34q-23 0 -106.5 3t-141.5 3q-66 0 -139.5 -3 t-83.5 -3q-4 8 -5 35.5t5 33.5q35 6 60 17q35 10 36 76q4 90 4 280q0 166 -4 232q0 12 -8 25.5t-20 13.5h-244q-10 0 -10 -13q0 -377 4 -532q2 -76 55 -86l28.5 -5t35.5 -8q4 -6 3 -32.5t-7 -38.5q-35 0 -115 4t-144 4q-31 0 -122 -4t-111 -4q-4 8 -4 36.5t4 34.5 q51 10 74 19q35 12 35 63q0 82 1 272.5t1 276.5q0 12 -11 13l-272 2q-10 0 -10 -15q0 -205 6 -530q0 -76 51 -86l64 -15q2 -8 -1.5 -35.5t-7.5 -35.5q-23 0 -95.5 4t-158.5 4q-66 0 -146.5 -4t-92.5 -4q-5 13 -5 43zM414 895v-59q4 -16 14 -17h274q8 6 9 17q6 125 53 229 q-37 70 -94.5 111t-122.5 41q-45 0 -78 -37q-55 -60 -55 -285z" />
<glyph unicode="&#xfb04;" horiz-adv-x="1662" d="M28 35q0 20 5 26q78 16 84 19q35 12 35 67q2 164 2 545q0 12 -13 13l-100 8q0 41 18 67q37 8 88 33q6 4 11 18q16 262 245 406q129 82 256 82q150 0 240 -86q57 51 141 90q80 37 153 37h7q109 0 184 -39q18 -6 41 0q29 8 88 37q4 -2 13.5 -13.5t9.5 -17.5 q-14 -45 -16 -172q-2 -45 -2 -125t-1 -191.5t-1 -185.5q0 -438 4 -497q4 -37 11 -53.5t34 -24.5q2 0 75 -15q2 -5 3 -15q0 -8 -2 -18q-3 -26 -9 -36q-14 0 -108.5 3t-153.5 3q-43 0 -118.5 -3t-98.5 -3q-4 8 -6 34.5t2 34.5q51 10 65 17q20 10 26.5 23.5t8.5 54.5 q4 74 4 506q0 340 -2 421q-6 68 -30 101q-51 70 -129 69q-74 0 -100.5 -77.5t-26.5 -227.5q0 -86 2 -116q0 -14 14 -15l182 6q-10 -37 -18 -123l-168 5q-10 0 -10 -15q0 -336 4 -528q2 -43 12 -60.5t41 -27.5q14 -4 36.5 -7t29.5 -6q2 -6 -0.5 -35.5t-4.5 -35.5 q-33 0 -113.5 4t-146.5 4q-31 0 -125 -4t-112 -4q-4 10 -5 36.5t5 34.5q70 14 82 21q35 12 35 68q2 164 2 542q0 12 -11 13h-270q-12 0 -12 -13l6 -530q0 -76 51 -86l66 -15q2 -8 -1.5 -35.5t-7.5 -35.5q-23 0 -96.5 4t-159.5 4q-66 0 -146.5 -4t-92.5 -4q-5 13 -5 43z M412 895v-59q4 -16 14 -17h274q10 6 11 17q6 125 53 229q-98 152 -219 152q-45 0 -76 -35q-57 -62 -57 -287z" />
</font>
</defs>
</svg>
