<?xml version="1.0" standalone="no"?>
<!DOCTYPE svg PUBLIC "-//W3C//DTD SVG 1.1//EN" "http://www.w3.org/Graphics/SVG/1.1/DTD/svg11.dtd" >
<svg xmlns="http://www.w3.org/2000/svg">
<metadata></metadata>
<defs>
<font id="MyriadRoman" horiz-adv-x="1050" >
<font-face units-per-em="2048" ascent="1638" descent="-410" />
<missing-glyph horiz-adv-x="434" />
<glyph unicode="&#xfb01;" horiz-adv-x="1071" d="M29 854v137h137v56q0 98 28.5 177t84 135t136.5 87t185 31q70 0 141.5 -18.5t110.5 -47.5l-51 -137q-35 23 -89.5 40t-119.5 17q-72 0 -119 -23.5t-75.5 -63.5t-41 -92t-12.5 -112v-49h578v-991h-181v854h-395v-854h-180v854h-137z" />
<glyph unicode="&#xfb02;" horiz-adv-x="1071" d="M29 854v137h137v43q0 104 35 193.5t106 148.5q57 49 135 75t183 26q88 0 164.5 -17.5t134.5 -48.5v-1411h-181v1311q-23 12 -58.5 19t-88.5 7q-72 0 -120 -23.5t-76.5 -64.5t-42 -94t-13.5 -113v-51h234v-137h-232v-854h-180v854h-137z" />
<glyph horiz-adv-x="0" />
<glyph horiz-adv-x="2048" />
<glyph unicode="&#xd;" horiz-adv-x="434" />
<glyph unicode=" "  horiz-adv-x="434" />
<glyph unicode="&#x09;" horiz-adv-x="434" />
<glyph unicode="&#xa0;" horiz-adv-x="434" />
<glyph unicode="!" horiz-adv-x="471" d="M115 104q0 55 33.5 91t87.5 36q55 0 87.5 -35.5t32.5 -91.5q0 -53 -32.5 -90t-87.5 -37h-3q-53 0 -85.5 37t-32.5 90zM137 1380h197l-29 -985h-139z" />
<glyph unicode="&#x22;" horiz-adv-x="690" d="M104 1417h177l-33 -491h-111zM410 1417h176l-33 -491h-111z" />
<glyph unicode="#" horiz-adv-x="1017" d="M76 401v121h188l39 297h-178v121h194l54 391h121l-54 -391h215l52 391h120l-51 -391h168v-121h-186l-37 -297h176v-121h-195l-53 -401h-123l54 401h-213l-52 -401h-122l53 401h-170zM385 522h213l39 297h-213z" />
<glyph unicode="$" d="M135 121l49 137q53 -37 129 -62.5t162 -25.5q111 0 178.5 56.5t67.5 144.5q0 86 -58.5 141t-173.5 102q-158 61 -247.5 142.5t-89.5 214.5q0 129 82.5 218t224.5 111v205h129v-198q92 -4 156.5 -24.5t109.5 -47.5l-51 -135q-33 18 -96.5 44.5t-161.5 26.5 q-59 0 -100.5 -16t-68 -42t-37.5 -57.5t-11 -62.5q0 -78 60.5 -127t193.5 -106q160 -66 238.5 -151t78.5 -222q0 -61 -20.5 -118.5t-61.5 -104.5t-101.5 -81t-140.5 -46v-213h-129v207q-90 2 -174 26.5t-137 63.5z" />
<glyph unicode="%" horiz-adv-x="1622" d="M61 938q0 100 26 177t69 130t101 81t126 28h2q139 0 222 -102.5t83 -295.5q0 -104 -25.5 -183t-68.5 -131t-101.5 -78.5t-121.5 -26.5t-119.5 25.5t-98.5 75.5t-68 125t-26 175zM205 944q-2 -63 9 -117.5t33.5 -94.5t55.5 -63.5t76 -23.5q88 0 130 85t42 218 q0 61 -9.5 114.5t-29.5 94.5t-53 64.5t-80 23.5h-2q-41 0 -74 -23.5t-54.5 -64.5t-32.5 -95t-11 -118zM358 -25l785 1381h114l-784 -1381h-115zM930 387q0 100 25.5 177t68.5 130.5t101.5 81t125.5 27.5h2q139 0 222.5 -102.5t83.5 -294.5q0 -104 -26 -183.5t-69 -131.5 t-101 -78.5t-122 -26.5q-63 0 -119.5 25.5t-98.5 75.5t-67.5 125t-25.5 175zM1073 393q-2 -63 9.5 -117.5t34 -94.5t55 -63.5t75.5 -23.5q88 0 130 85t42 218q0 61 -9 114.5t-29.5 94.5t-53.5 64.5t-80 23.5h-2q-41 0 -73.5 -23.5t-54 -64.5t-33 -95t-11.5 -118z" />
<glyph unicode="&#x26;" horiz-adv-x="1239" d="M63 365q0 141 76 239t195 164v6q-53 68 -85 141.5t-32 147.5q0 63 22.5 123.5t67.5 108.5t110.5 78t151.5 30q63 0 119.5 -20.5t97.5 -58.5t64.5 -92t23.5 -122q0 -111 -68.5 -199t-234.5 -170v-6q43 -51 89.5 -104t90.5 -103.5t83.5 -95.5t72.5 -82q92 141 133 404h164 q-29 -164 -75 -291t-123 -219q55 -59 110 -118.5t117 -125.5h-213q-29 29 -58.5 60.5t-70.5 72.5q-90 -82 -188.5 -119t-215.5 -37q-100 0 -179 32t-133 85t-83 123t-29 148zM238 391q0 -59 20.5 -110.5t57 -88t89 -58t113.5 -21.5h2q90 0 162 35.5t121 89.5q-31 33 -74 80 t-94 104t-106.5 120.5t-112.5 129.5q-29 -18 -60.5 -44t-57.5 -59.5t-43 -78t-17 -99.5zM385 1079q0 -74 30.5 -133t73.5 -115q106 59 168 121t62 150q0 31 -9.5 62.5t-28.5 57t-49 42t-73 16.5h-2q-86 0 -129 -60.5t-43 -140.5z" />
<glyph unicode="'" horiz-adv-x="385" d="M104 1417h177l-33 -491h-111z" />
<glyph unicode="(" horiz-adv-x="581" d="M131 584q0 150 24.5 275.5t62.5 229t85 185.5t96 147h140q-113 -154 -184.5 -356.5t-71.5 -482.5q0 -137 19.5 -255t54 -220.5t81.5 -190.5t101 -164h-140q-49 63 -96 145.5t-86 184.5t-62.5 227t-23.5 275z" />
<glyph unicode=")" horiz-adv-x="581" d="M41 -248q53 76 100 164t82 191.5t54.5 222.5t19.5 258q0 137 -19.5 256t-54.5 222t-81 190t-101 165h139q49 -63 96.5 -145t86 -184.5t62.5 -228.5t24 -275q0 -152 -25 -276t-62.5 -227t-85 -185t-96.5 -148h-139z" />
<glyph unicode="*" horiz-adv-x="849" d="M61 975v139l301 -39v4l-192 252l125 70l127 -283h4l125 285l123 -72l-195 -254v-4l309 41v-139l-309 37v-4l197 -248l-129 -72l-125 287h-4l-131 -289l-117 74l195 250v4z" />
<glyph unicode="+" horiz-adv-x="1220" d="M82 485v123h463v482h131v-482h463v-123h-463v-485h-131v485h-463z" />
<glyph unicode="," horiz-adv-x="423" d="M33 -254q16 45 34.5 107.5t35 129t30.5 133t23 122.5l200 20q-18 -66 -42.5 -138.5t-52.5 -140t-54.5 -125t-46.5 -94.5z" />
<glyph unicode="-" horiz-adv-x="628" d="M61 487v131h506v-131h-506z" />
<glyph unicode="." horiz-adv-x="423" d="M106 106q0 55 35 92.5t88 37.5t87 -36t34 -94q0 -55 -33.5 -92t-89.5 -37h-2q-53 0 -86 37t-33 92z" />
<glyph unicode="/" horiz-adv-x="702" d="M-2 -82l569 1485h142l-574 -1485h-137z" />
<glyph unicode="0" d="M74 662q0 168 34.5 296.5t96 217t146.5 133.5t188 45q211 0 325.5 -177.5t114.5 -496.5q0 -342 -121 -522.5t-340 -180.5h-2q-197 0 -317.5 176.5t-124.5 508.5zM254 672q-2 -129 16.5 -232.5t54 -175t86 -109.5t111.5 -38h2q68 0 119 39t85 110.5t50.5 175t16.5 230.5 q0 123 -15.5 223t-49.5 171t-85 109.5t-121 38.5q-61 0 -111.5 -37.5t-85 -108.5t-54 -171t-19.5 -225z" />
<glyph unicode="1" d="M213 1176l291 155h153v-1331h-174v1163h-4l-231 -125z" />
<glyph unicode="2" d="M92 0v111l141 137q127 121 220.5 217t155 177t91 153.5t29.5 148.5q0 51 -13.5 98.5t-44 83t-80.5 57t-124 21.5q-92 0 -164 -37t-119 -75l-57 127q68 57 164 96t213 39q106 0 183 -34t126 -88t72.5 -124t23.5 -141q0 -92 -31.5 -177t-92 -171.5t-145.5 -176.5t-189 -190 l-105 -98v-4h596v-150h-850z" />
<glyph unicode="3" d="M86 68l49 137q18 -12 49 -26.5t70 -27t84 -20.5t92 -8q86 0 144.5 24.5t93 62.5t49 83t14.5 88q0 70 -29.5 120t-78 82.5t-109.5 48t-127 15.5h-100v135h100q49 0 101.5 13.5t96.5 41t71.5 69.5t27.5 102q0 80 -54.5 140t-178.5 60q-80 0 -152 -28.5t-115 -59.5l-49 131 q53 39 147.5 71t202.5 32q98 0 170 -27t119 -72t69.5 -101t22.5 -118q0 -104 -61.5 -187t-183.5 -128v-4q61 -12 115.5 -40t94 -72t63.5 -101.5t24 -126.5q0 -80 -31 -152.5t-92.5 -127t-152.5 -87.5t-210 -33q-113 0 -205 29t-141 62z" />
<glyph unicode="4" d="M31 362v117l594 852h194v-829h187v-140h-187v-362h-170v362h-618zM213 502h436v446q0 104 6 209h-6q-31 -59 -56.5 -105t-53.5 -94l-326 -452v-4z" />
<glyph unicode="5" d="M86 59l45 138q41 -25 118 -49.5t169 -24.5q63 0 120.5 20.5t100.5 57.5t67.5 91t24.5 122q0 133 -91 215t-290 82q-59 0 -104 -4.5t-82 -10.5l86 635h637v-151h-508l-51 -338q23 4 47 6t61 2q78 0 152 -17.5t135 -54.5q78 -43 134 -130t56 -216q0 -98 -36.5 -181 t-102 -143.5t-157 -95.5t-199.5 -35q-111 0 -197 26t-135 56z" />
<glyph unicode="6" d="M70 545q0 199 62.5 350.5t162.5 251.5q84 82 191.5 131t234.5 65q41 6 73.5 8.5t57.5 2.5v-148q-53 2 -135 -10q-106 -16 -188.5 -61t-138.5 -108.5t-90 -142.5t-46 -161h4q47 66 130 111t194 45q88 0 161.5 -31t127 -87t83 -136t29.5 -176q0 -92 -30.5 -177.5t-87 -151 t-139.5 -104.5t-187 -39q-106 0 -192.5 40t-148 114t-95 179.5t-33.5 234.5zM248 500q0 -82 19.5 -153t56 -122t91 -79.5t126.5 -28.5h2q117 0 187.5 88t70.5 231t-75 224t-200 81q-82 0 -152.5 -45t-107.5 -118q-8 -16 -13 -35t-5 -43z" />
<glyph unicode="7" d="M117 1182v149h839v-119l-579 -1212h-184l575 1178v4h-651z" />
<glyph unicode="8" d="M76 336q0 127 69.5 216t192.5 142v6q-113 53 -163 133t-50 166q0 80 31.5 144.5t87 112t130.5 73t163 25.5h2q96 0 168.5 -28t122 -74t74 -104t24.5 -122q0 -86 -49.5 -170t-171.5 -141v-6q125 -49 196.5 -136.5t71.5 -207.5q0 -88 -35 -160t-96.5 -122t-144.5 -78 t-177 -28q-104 0 -187 29t-140.5 78t-88 113.5t-30.5 138.5zM262 360q-2 -49 15.5 -95t51 -80.5t84 -55t113.5 -20.5h2q123 0 195 66.5t72 170.5q0 121 -79 186.5t-214 104.5q-117 -35 -178.5 -107.5t-61.5 -169.5zM301 1012q-2 -100 67.5 -157.5t186.5 -88.5 q86 29 144.5 89t58.5 153q0 39 -12.5 77.5t-39 69.5t-69.5 50.5t-102 19.5h-3q-113 0 -172 -63.5t-59 -149.5z" />
<glyph unicode="9" d="M82 883q0 94 32.5 179t93 149.5t144.5 103.5t187 39q102 0 184 -40t138.5 -113t87 -176t30.5 -232q0 -221 -65.5 -375t-163.5 -252q-78 -74 -178.5 -120t-209.5 -58q-49 -6 -92 -9.5t-73 -1.5v148q29 -2 63.5 0t81.5 8q78 10 149.5 42t129.5 87q66 59 111.5 147.5 t64.5 206.5h-6q-55 -68 -134 -105.5t-182 -37.5q-90 0 -162.5 32t-124 87t-79 130t-27.5 161zM262 893q0 -125 69.5 -204t186.5 -79q92 0 159.5 40t104.5 100q6 12 10.5 27.5t4.5 37.5q0 86 -15.5 160t-49.5 127t-86 84t-122 31h-2q-57 0 -104 -25t-82 -68t-54.5 -102 t-19.5 -129z" />
<glyph unicode=":" horiz-adv-x="423" d="M106 104q0 57 34 93t87 36q55 0 88 -35.5t33 -93.5q0 -53 -32.5 -90t-88.5 -37h-2q-53 0 -86 37t-33 90zM109 827q0 57 33.5 93t86.5 36q55 0 88 -35.5t33 -93.5q0 -53 -32.5 -90t-88.5 -37h-2q-53 0 -85.5 37t-32.5 90z" />
<glyph unicode=";" horiz-adv-x="423" d="M35 -252q16 45 34.5 106.5t35 128t31 133t22.5 122.5l198 20q-18 -66 -42.5 -138.5t-52.5 -140t-54.5 -125t-46.5 -94.5zM123 827q0 57 33.5 93t87.5 36q55 0 88 -35.5t33 -93.5q0 -53 -33 -90t-88 -37h-2q-53 0 -86 37t-33 90z" />
<glyph unicode="&#x3c;" horiz-adv-x="1220" d="M135 487v111l950 489v-141l-800 -401v-4l800 -400v-141z" />
<glyph unicode="=" horiz-adv-x="1220" d="M82 289v123h1057v-123h-1057zM82 690v123h1057v-123h-1057z" />
<glyph unicode="&#x3e;" horiz-adv-x="1220" d="M135 0v141l807 400v4l-807 401v141l950 -487v-115z" />
<glyph unicode="?" horiz-adv-x="831" d="M104 1319q53 39 132 61.5t161 22.5q88 0 152.5 -25.5t106.5 -67.5t62.5 -97.5t20.5 -112.5q0 -102 -51 -185.5t-125 -169.5q-68 -80 -94.5 -151.5t-22.5 -149.5l5 -53h-162l-4 53q-10 84 19.5 173.5t107.5 181.5q70 82 106.5 146.5t36.5 131.5q0 78 -48 127t-147 49 q-55 0 -111 -16t-95 -47zM246 104q0 57 33.5 93t87.5 36q55 0 87.5 -35.5t32.5 -93.5q0 -53 -32.5 -90t-87.5 -37h-2q-53 0 -86 37t-33 90z" />
<glyph unicode="@" horiz-adv-x="1509" d="M88 616q0 158 53.5 301.5t150.5 251t235.5 171t308.5 63.5q133 0 242.5 -44t187 -123t121 -187.5t43.5 -237.5q0 -115 -30 -206t-80 -153.5t-115.5 -95t-137.5 -32.5q-31 0 -58.5 10t-49 31.5t-34 56.5t-10.5 82h-6q-111 -180 -291 -180q-45 0 -84.5 17t-70.5 51 t-48.5 81t-17.5 109q0 94 36 182t100.5 155.5t153.5 107.5t196 40q66 0 123 -12.5t96 -30.5l-68 -371q-23 -117 -7.5 -172t67.5 -57q39 -2 78.5 23.5t71.5 73.5t51.5 118t19.5 158q0 113 -33 207t-96.5 161.5t-155.5 105.5t-211 38q-125 0 -236.5 -48.5t-195.5 -136.5 t-133 -215t-49 -282q0 -127 40 -229.5t109.5 -174t165.5 -109.5t211 -38q90 0 169 18.5t140 52.5l33 -88q-86 -45 -173 -63.5t-191 -18.5q-127 0 -240 44.5t-197 127t-134 201.5t-50 266zM532 590q0 -70 34 -113t102 -43q45 0 87 25.5t75.5 65.5t57 90.5t32.5 97.5l43 229 q-16 6 -42 11t-61 5q-68 0 -128 -29.5t-104 -79.5t-70 -117.5t-26 -141.5z" />
<glyph unicode="A" horiz-adv-x="1253" d="M51 0l469 1380h215l471 -1380h-190l-148 434h-489l-143 -434h-185zM416 573h415l-137 398q-23 68 -38 130t-31 122h-7q-14 -59 -30.5 -123t-36.5 -127z" />
<glyph unicode="B" horiz-adv-x="1110" d="M156 4v1356q59 14 146 22.5t179 8.5q135 0 224.5 -24t152.5 -77q53 -41 85 -101.5t32 -141.5q0 -102 -62.5 -183.5t-171.5 -120.5v-6q49 -12 99.5 -37.5t92.5 -68.5t67.5 -102.5t25.5 -135.5q0 -90 -32.5 -157.5t-86.5 -118.5q-137 -129 -475 -129q-92 0 -161.5 5 t-114.5 11zM334 135q29 -4 65.5 -6t83.5 -2q70 0 133.5 13.5t112.5 45t79 82.5t30 127q0 70 -29 120t-77 83t-112.5 48.5t-138.5 15.5h-147v-527zM334 795h162q141 0 219 66.5t78 166.5q0 121 -83 173t-218 52q-61 0 -98.5 -4t-59.5 -8v-446z" />
<glyph unicode="C" horiz-adv-x="1187" d="M74 678q0 162 52 296t147.5 229t228.5 147.5t293 52.5q129 0 210.5 -21.5t116.5 -40.5l-45 -145q-49 25 -119.5 41t-156.5 16q-121 0 -220.5 -37.5t-170 -110.5t-109.5 -179.5t-39 -241.5q0 -127 36 -230.5t103.5 -175t166 -110.5t223.5 -39q84 0 161.5 15.5t130.5 41.5 l35 -143q-47 -25 -142 -45.5t-222 -20.5q-145 0 -270.5 45.5t-216.5 134.5t-142 220t-51 301z" />
<glyph unicode="D" horiz-adv-x="1363" d="M154 4v1358q84 12 179 20.5t202 8.5q193 0 329.5 -42t229.5 -128q94 -86 145 -208t51 -290q0 -170 -51 -305t-147 -232q-98 -98 -254 -148t-359 -50q-98 0 -177 3t-148 13zM334 139q35 -6 81 -7t99 -1h7q283 -1 431 151q150 154 150 435v7q0 243 -138 383 q-140 142 -421 142q-70 0 -122 -5t-87 -13v-1092z" />
<glyph unicode="E" horiz-adv-x="1007" d="M154 0v1380h747v-149h-567v-436h534v-148h-534v-497h598v-150h-778z" />
<glyph unicode="F" horiz-adv-x="997" d="M154 0v1380h743v-149h-563v-459h520v-147h-520v-625h-180z" />
<glyph unicode="G" horiz-adv-x="1323" d="M74 682q0 154 51 285t148.5 226t235.5 148.5t312 53.5q121 0 211 -20.5t135 -43.5l-45 -145q-55 27 -127.5 43t-177.5 16q-127 0 -229.5 -38t-174 -109.5t-111.5 -175t-40 -232.5q0 -131 38 -234.5t107.5 -175t168 -109.5t219.5 -38q88 0 147 10.5t90 26.5v412h-278v143 h454v-664q-31 -12 -74.5 -25t-98 -24.5t-119 -18.5t-134.5 -7q-158 0 -285.5 42t-230.5 140q-90 86 -141 219t-51 295z" />
<glyph unicode="H" horiz-adv-x="1335" d="M154 0v1380h180v-577h667v577h181v-1380h-181v647h-667v-647h-180z" />
<glyph unicode="I" horiz-adv-x="489" d="M154 0v1380h180v-1380h-180z" />
<glyph unicode="J" horiz-adv-x="757" d="M8 10l25 146q29 -10 66.5 -18.5t84.5 -8.5q59 0 106.5 15.5t79 54.5t49 104.5t17.5 167.5v909h180v-923q0 -137 -31.5 -229.5t-88 -147.5t-133 -79t-164.5 -24q-51 0 -104.5 9.5t-86.5 23.5z" />
<glyph unicode="K" horiz-adv-x="1110" d="M156 0v1380h178v-665h6q29 41 55.5 76.5t53.5 70.5l421 518h222l-500 -585l538 -795h-210l-453 678l-133 -152v-526h-178z" />
<glyph unicode="L" horiz-adv-x="966" d="M154 0v1380h180v-1230h590v-150h-770z" />
<glyph unicode="M" horiz-adv-x="1646" d="M119 0l96 1380h227l236 -667q43 -129 76.5 -243t62.5 -222h4q29 104 65 219t83 246l245 667h228l86 -1380h-176l-33 606q-8 145 -15.5 306t-7.5 290h-4q-37 -121 -79 -251t-95 -273l-244 -670h-135l-225 658q-49 147 -89 280t-69 256h-4q-4 -129 -10 -290.5t-16 -319.5 l-37 -592h-170z" />
<glyph unicode="N" horiz-adv-x="1347" d="M156 0v1380h196l441 -698q76 -123 137 -231.5t108 -217.5l6 3q-12 139 -16 272t-4 293v579h168v-1380h-180l-439 700q-72 117 -138 233t-118 228l-6 -2q8 -131 10.5 -264t2.5 -305v-590h-168z" />
<glyph unicode="O" horiz-adv-x="1411" d="M74 678q0 164 48 298t133 229t201.5 146.5t256.5 51.5q141 0 256.5 -51.5t196.5 -144.5t125 -221t44 -281q0 -178 -50 -313.5t-137 -227.5t-204 -139.5t-248 -47.5h-2q-137 0 -251.5 50.5t-196.5 142.5t-127 221t-45 287zM260 682q0 -109 29.5 -210t86 -179t138.5 -124 t186 -46h2q106 0 188.5 45t138.5 124t86 183.5t30 220.5q0 102 -26.5 202.5t-82 180.5t-138.5 129t-193 49q-111 0 -195 -48t-139.5 -128t-83 -183t-27.5 -216z" />
<glyph unicode="P" horiz-adv-x="1089" d="M156 0v1362q66 12 149.5 20.5t192.5 8.5q260 0 387 -115q57 -49 90 -123t33 -166q0 -186 -109 -295q-72 -76 -181.5 -113.5t-240.5 -37.5q-41 0 -76.5 2t-66.5 10v-553h-178zM334 698q29 -8 66.5 -11t80.5 -3q164 0 255 76t91 217q0 139 -89 205.5t-236 66.5 q-59 0 -102.5 -5t-65.5 -9v-537z" />
<glyph unicode="Q" horiz-adv-x="1411" d="M74 676q0 166 48 300t133 229t202.5 146.5t257.5 51.5q141 0 255.5 -52.5t195.5 -144.5t125 -220t44 -281q0 -133 -29.5 -242t-82 -192t-124 -140t-157.5 -88v-8q104 -27 209.5 -49.5t194.5 -38.5l-52 -150q-141 37 -274 78t-254 82q-23 8 -43.5 14t-40.5 6 q-123 4 -233.5 51.5t-193.5 135.5t-132 217t-49 295zM262 680q0 -111 30 -211t86 -177t138 -123t186 -46h3q106 0 188 45t138 124t86 183.5t30 220.5q0 104 -26.5 204.5t-81 179.5t-136.5 128t-192 49q-113 0 -197 -48t-140.5 -128t-84 -184t-27.5 -217z" />
<glyph unicode="R" horiz-adv-x="1101" d="M156 0v1360q68 14 159 22.5t183 8.5q143 0 239.5 -28t161.5 -87q51 -45 80 -112.5t29 -149.5q0 -68 -20.5 -124t-56.5 -100.5t-83 -76t-100 -49.5v-7q78 -29 127 -99.5t75 -178.5q35 -145 59.5 -241.5t45.5 -137.5h-185q-16 29 -38.5 115t-51.5 215q-31 143 -94 203.5 t-184 64.5h-168v-598h-178zM334 733h182q143 0 227 72t84 190q0 135 -88 195.5t-229 60.5q-66 0 -110 -5t-66 -11v-502z" />
<glyph unicode="S" horiz-adv-x="1009" d="M86 68l47 149q59 -39 142 -64.5t176 -25.5q137 0 212.5 64.5t75.5 170.5q0 94 -60.5 157t-199.5 116q-170 61 -267 154.5t-97 238.5q0 80 31.5 148.5t90 119t141.5 79t183 28.5q104 0 181 -20.5t122 -47.5l-49 -145q-33 20 -99.5 42.5t-160.5 22.5q-72 0 -121 -19 t-79.5 -49t-45 -67t-14.5 -71q0 -96 65.5 -153.5t208.5 -113.5q88 -35 153.5 -73.5t110 -87t66 -108.5t21.5 -136q0 -80 -30 -152.5t-89.5 -127t-149.5 -87.5t-213 -33q-49 0 -100 7.5t-98 19.5t-87 28.5t-67 35.5z" />
<glyph unicode="T" horiz-adv-x="1017" d="M-2 1229v151h1022v-151h-422v-1229h-180v1229h-420z" />
<glyph unicode="U" horiz-adv-x="1325" d="M154 567v813h180v-819q0 -115 24.5 -197.5t67.5 -136t101.5 -79t127.5 -25.5q152 0 244 105.5t92 332.5v819h180v-807q0 -160 -39.5 -272.5t-109.5 -184t-165 -105.5t-208 -34q-106 0 -196.5 32t-157 102.5t-104 182.5t-37.5 273z" />
<glyph unicode="V" horiz-adv-x="1142" d="M6 1380h195l215 -680q43 -141 81 -268t66 -248h4q29 121 70 250t88 264l233 682h191l-494 -1380h-196z" />
<glyph unicode="W" horiz-adv-x="1732" d="M31 1380h188l164 -698q31 -131 57.5 -254t44.5 -223h4q16 104 47 224t66 255l184 696h187l168 -700q29 -125 54.5 -244t41.5 -229h4q23 115 50.5 231.5t60.5 245.5l182 696h182l-391 -1380h-186l-174 717q-33 135 -54.5 241.5t-36.5 210.5h-4q-16 -104 -41.5 -209.5 t-64.5 -240.5l-197 -719h-186z" />
<glyph unicode="X" horiz-adv-x="1169" d="M51 0l422 698l-405 682h206l183 -323q39 -68 68.5 -123t58.5 -111h6q29 61 57.5 114.5t67.5 119.5l186 323h207l-420 -671l430 -709h-207l-178 305q-53 88 -89 150.5t-69 122.5h-4q-29 -59 -63.5 -122t-85.5 -153l-166 -303h-205z" />
<glyph unicode="Y" horiz-adv-x="1107" d="M25 1380h204l195 -381q39 -78 71.5 -145.5t65.5 -138.5h4q29 68 64 137.5t76 146.5l198 381h201l-461 -792v-588h-180v586z" />
<glyph unicode="Z" horiz-adv-x="1132" d="M61 0v104l766 1121v6h-700v149h932v-108l-762 -1116v-6h772v-150h-1008z" />
<glyph unicode="[" horiz-adv-x="581" d="M166 -229v1632h375v-113h-234v-1407h234v-112h-375z" />
<glyph unicode="\" horiz-adv-x="708" d="M4 1403h139l568 -1485h-140z" />
<glyph unicode="]" horiz-adv-x="581" d="M41 -117h233v1407h-233v113h375v-1632h-375v112z" />
<glyph unicode="^" horiz-adv-x="1220" d="M125 387l422 944h129l422 -944h-144l-342 795h-4l-342 -795h-141z" />
<glyph unicode="_" horiz-adv-x="1024" d="M0 -154h1024v-102h-1024v102z" />
<glyph unicode="`" horiz-adv-x="614" d="M45 1405h197l180 -293h-127z" />
<glyph unicode="a" horiz-adv-x="987" d="M72 262q0 180 154 276q150 94 430 93h12v20q0 31 -7.5 71t-30 76t-67.5 59.5t-121 23.5q-72 0 -139 -19.5t-121 -54.5l-41 121q61 39 147.5 62.5t180.5 23.5q115 0 188.5 -36t115.5 -93.5t58.5 -130t16.5 -146.5v-370q0 -66 3 -126.5t11 -111.5h-162l-16 125h-6 q-41 -59 -119 -103.5t-184 -44.5q-76 0 -132.5 25t-94 64.5t-57 91t-19.5 104.5zM252 283q0 -90 50 -131t118 -41q98 0 159.5 51t84.5 114q8 25 8 58v172h-30q-58 0 -118 -6q-74 -8 -135 -32t-99 -69t-38 -116z" />
<glyph unicode="b" horiz-adv-x="1165" d="M141 0q4 51 6.5 120.5t2.5 135.5v1198h180v-620h4q47 84 132 132t206 48q92 0 169 -37t132 -103.5t86 -158.5t31 -205q0 -133 -39 -233.5t-101.5 -167t-143.5 -99.5t-163 -33q-109 0 -191.5 44.5t-140.5 142.5h-4l-10 -164h-156zM330 397q0 -35 6 -65q27 -94 99.5 -152.5 t170.5 -58.5q72 0 128.5 27.5t94 77.5t58 120t20.5 156q0 76 -19.5 142.5t-56 117.5t-92 80.5t-127.5 29.5q-92 0 -168.5 -59t-103.5 -162q-10 -37 -10 -76v-178z" />
<glyph unicode="c" horiz-adv-x="917" d="M78 485q0 115 38 211.5t107.5 167t167.5 110.5t219 40q80 0 146.5 -16.5t103.5 -36.5l-41 -138q-33 16 -84 31.5t-125 15.5q-86 0 -150.5 -29.5t-109.5 -80.5t-67.5 -120t-22.5 -146q0 -86 25.5 -155t71.5 -117t109.5 -73.5t137.5 -25.5q78 0 130 15.5t91 31.5l31 -135 q-35 -16 -109.5 -37t-175.5 -21q-113 0 -204 37t-155.5 103.5t-99 160t-34.5 207.5z" />
<glyph unicode="d" horiz-adv-x="1155" d="M78 481q0 125 34.5 223.5t96 167t142.5 105.5t171 37q117 0 191.5 -45t107.5 -105h4v590h181v-1198q0 -66 2 -135.5t6 -120.5h-162l-8 172h-4q-41 -84 -127 -139.5t-209 -55.5q-90 0 -168 37t-135.5 102.5t-90 159t-32.5 205.5zM260 492q0 -76 18.5 -143.5t55.5 -118 t92 -79t127 -28.5q92 0 166 57.5t98 157.5q8 33 8 78v172q0 18 -2 38.5t-6 39.5q-20 86 -89 146t-171 60q-70 0 -125 -28.5t-93 -79.5t-58.5 -121t-20.5 -151z" />
<glyph unicode="e" horiz-adv-x="1026" d="M78 479q0 113 32.5 211t93 170t146.5 114t195 42q121 0 199.5 -47t124.5 -118t64.5 -153t18.5 -149q0 -55 -6 -86l-694 2q2 -92 29.5 -156.5t73.5 -106.5t106.5 -61.5t128.5 -19.5q98 0 161.5 14.5t112.5 34.5l33 -127q-47 -23 -130 -43t-202 -20q-115 0 -205 35.5 t-152.5 102t-96 159t-33.5 202.5zM254 594h524q0 43 -10 93t-38 95t-76 75t-124 30q-70 0 -119 -29t-82.5 -72t-51 -94t-23.5 -98z" />
<glyph unicode="f" horiz-adv-x="598" d="M29 854v137h137v47q0 104 26.5 195.5t90.5 150.5q51 49 114.5 71t124.5 22q49 0 88 -9.5t66 -19.5l-23 -139q-23 10 -49 16t-67 6q-57 0 -94 -23.5t-59 -63.5t-31 -91t-9 -109v-53h240v-137h-238v-854h-180v854h-137z" />
<glyph unicode="g" horiz-adv-x="1144" d="M78 489q0 125 38 223.5t100.5 165t143 101.5t166.5 35q63 0 113.5 -15.5t88.5 -39t64.5 -54.5t43.5 -61h4l6 147h160q-4 -53 -6.5 -115.5t-2.5 -154.5v-576q0 -172 -35.5 -280.5t-105.5 -173.5q-74 -66 -171 -92.5t-191 -26.5q-90 0 -180.5 20.5t-149.5 61.5l45 139 q49 -33 124 -56.5t167 -23.5q70 0 128 19.5t101 60.5t66.5 107.5t23.5 160.5v109h-4q-41 -70 -120 -118t-195 -48q-92 0 -170 37t-133.5 102.5t-87 153.5t-31.5 192zM260 498q0 -72 18.5 -136.5t55.5 -113.5t92 -78t127 -29q86 0 153.5 49.5t96.5 137.5q8 23 11 47t3 49v178 q0 23 -2 42.5t-8 37.5q-25 80 -88.5 136t-163.5 56q-66 0 -119 -26.5t-93 -75.5t-61.5 -118.5t-21.5 -155.5z" />
<glyph unicode="h" horiz-adv-x="1136" d="M150 0v1454h180v-618h4q23 39 55.5 71.5t73.5 55.5q84 51 184 51q49 0 109.5 -18.5t113 -65.5t88 -129t35.5 -211v-590h-180v569q0 61 -12.5 114.5t-39 93.5t-70.5 63.5t-107 23.5q-88 0 -151.5 -53t-90.5 -127q-8 -18 -10 -38.5t-2 -47.5v-598h-180z" />
<glyph unicode="i" horiz-adv-x="479" d="M123 1290q0 47 31.5 81t85.5 34q53 0 83.5 -34t30.5 -81t-31.5 -81.5t-84.5 -34.5h-2q-51 0 -82 34.5t-31 81.5zM150 0v991h180v-991h-180z" />
<glyph unicode="j" horiz-adv-x="497" d="M-94 -291q63 4 113.5 22.5t82.5 53.5q18 20 31.5 48t22 70t12.5 103.5t4 151.5v833h180v-903q0 -145 -26.5 -242.5t-92.5 -164.5q-31 -31 -68.5 -51.5t-78.5 -35t-82 -20.5t-78 -6zM145 1290q0 47 32 81t85 34t84 -34t31 -81t-31 -81.5t-86 -34.5h-2q-51 0 -82 34.5 t-31 81.5z" />
<glyph unicode="k" horiz-adv-x="960" d="M150 0v1454h180v-917h4q18 27 40.5 57.5t45.5 54.5l293 342h215l-383 -407l436 -584h-219l-340 477l-92 -104v-373h-180z" />
<glyph unicode="l" horiz-adv-x="479" d="M150 0v1454h180v-1454h-180z" />
<glyph unicode="m" horiz-adv-x="1708" d="M141 991h158l9 -160h5q20 35 49 68t67 58.5t87 41t111 15.5q100 0 172.5 -55.5t105.5 -143.5h4q23 43 52.5 75t60.5 54q45 35 95 52.5t122 17.5q49 0 106.5 -18.5t106.5 -67.5t82 -132t33 -212v-584h-176v561q0 145 -53.5 225t-161.5 80q-78 0 -134.5 -48t-80.5 -113 q-6 -20 -10.5 -44t-4.5 -47v-614h-176v594q0 121 -51 196.5t-156 75.5q-84 0 -142.5 -56t-80.5 -124q-14 -37 -14 -88v-598h-176v723q0 78 -2.5 142.5t-6.5 125.5z" />
<glyph unicode="n" horiz-adv-x="1136" d="M141 991h160l10 -162h4q18 35 49 68t72 59.5t93.5 42t113.5 15.5q51 0 112.5 -18.5t114 -65.5t88 -129t35.5 -209v-592h-180v571q0 59 -12.5 113.5t-39 94.5t-70.5 63.5t-107 23.5q-88 0 -152.5 -54t-89.5 -130q-6 -16 -9 -38.5t-3 -45.5v-598h-180v723q0 78 -2.5 142.5 t-6.5 125.5z" />
<glyph unicode="o" horiz-adv-x="1124" d="M78 487q0 125 39 222.5t105.5 165t155.5 103.5t191 36q106 0 194.5 -37t151 -104.5t97.5 -161t35 -205.5q0 -139 -44.5 -238.5t-114 -164t-157.5 -95.5t-176 -31h-2q-100 0 -186 36t-150.5 101.5t-101.5 161t-37 211.5zM260 494q0 -82 21.5 -152t61.5 -121t94.5 -79.5 t119.5 -28.5h2q63 0 118.5 28.5t96.5 79.5t63.5 123t22.5 156q0 63 -16.5 129.5t-52 122t-92 91.5t-136.5 36t-137 -34t-94 -88.5t-54.5 -124t-17.5 -138.5z" />
<glyph unicode="p" horiz-adv-x="1165" d="M141 991h162l10 -170h4q53 92 141.5 142.5t209.5 50.5q90 0 167.5 -37t134 -102.5t88.5 -158.5t32 -206q0 -133 -38 -233.5t-100.5 -167t-144.5 -99.5t-168 -33q-100 0 -180 41t-125 115h-4v-539h-180v1074q0 96 -2.5 174t-6.5 149zM330 403q0 -18 2 -37.5t6 -35.5 q23 -94 97.5 -152.5t170.5 -58.5q72 0 128.5 27.5t94 78.5t58 121t20.5 156q0 74 -19.5 141.5t-56 117.5t-91 79.5t-126.5 29.5q-92 0 -169.5 -59t-104.5 -162q-4 -18 -7 -37.5t-3 -36.5v-172z" />
<glyph unicode="q" horiz-adv-x="1153" d="M78 479q0 139 41 239.5t105.5 166t144.5 97.5t157 32q117 0 193 -50.5t112 -121.5h5l6 149h172q-4 -61 -6 -127.5t-2 -144.5v-1125h-181v558h-4q-41 -72 -122 -123.5t-201 -51.5q-86 0 -163 36t-134.5 101.5t-90 158t-32.5 206.5zM260 489q0 -74 17.5 -141t54.5 -117.5 t92 -80t129 -29.5q88 0 157.5 51t100.5 145q6 18 10 42t4 44v187q0 45 -8 76q-23 84 -89 144t-169 60q-70 0 -125 -27.5t-94 -78.5t-59.5 -121t-20.5 -154z" />
<glyph unicode="r" horiz-adv-x="669" d="M143 991h158l9 -194h5q35 100 110 158.5t167 58.5q25 0 49 -6v-168q-16 2 -30.5 3t-32.5 1q-96 0 -160 -64.5t-82 -165.5q-6 -41 -6 -86v-528h-180l2 682q0 88 -2.5 164t-6.5 145z" />
<glyph unicode="s" horiz-adv-x="811" d="M82 47l43 135q41 -25 106.5 -47t133.5 -22q98 0 144 42t46 105q0 66 -42 106t-140 76q-135 49 -199.5 120t-64.5 161q0 59 23.5 112.5t68.5 93.5t107.5 62.5t142.5 22.5q76 0 138 -17.5t103 -44.5l-43 -129q-29 16 -81 37t-122 21q-80 0 -121.5 -40t-41.5 -96 q0 -63 44 -98t142 -72q129 -47 194.5 -116.5t65.5 -182.5q0 -133 -97 -216t-272 -83q-82 0 -153.5 19.5t-124.5 50.5z" />
<glyph unicode="t" horiz-adv-x="677" d="M37 854v137h153v183l177 55v-238h258v-137h-258v-535q0 -92 29.5 -142t105.5 -50q37 0 60.5 3t43.5 9l8 -137q-27 -10 -66.5 -17.5t-92.5 -7.5q-63 0 -112.5 20.5t-82.5 55.5q-37 41 -53.5 106.5t-16.5 153.5v541h-153z" />
<glyph unicode="u" horiz-adv-x="1128" d="M143 412v579h181v-547q0 -141 50 -229t171 -88q92 0 152.5 52t84.5 114q16 39 17 92v606h180v-721q0 -78 2 -144.5t6 -125.5h-160l-10 162h-4q-16 -31 -45 -62.5t-70 -59.5t-94 -45.5t-119 -17.5q-59 0 -119.5 19.5t-109.5 69t-81 133.5t-32 213z" />
<glyph unicode="v" horiz-adv-x="985" d="M27 991h192l195 -555q25 -70 44 -132t36 -124h6q16 61 37.5 124t46.5 132l192 555h189l-390 -991h-172z" />
<glyph unicode="w" horiz-adv-x="1507" d="M37 991h184l133 -502q20 -84 39 -161.5t33 -155.5h6q16 76 40 155t48 160l162 504h152l153 -495q29 -88 50.5 -168t37.5 -156h6q12 76 32 155t44 167l141 497h179l-320 -991h-164l-151 473q-27 86 -48.5 163t-39.5 165h-4q-18 -90 -41 -170t-50 -160l-159 -471h-164z" />
<glyph unicode="x" horiz-adv-x="948" d="M16 0l353 506l-336 485h200l142 -211q29 -43 52.5 -82t47.5 -80h6q25 43 49.5 82t51.5 80l137 211h196l-337 -479l346 -512h-205l-146 223q-29 43 -54 85t-52 87h-4q-25 -45 -50.5 -86t-54.5 -86l-143 -223h-199z" />
<glyph unicode="y" horiz-adv-x="964" d="M18 991h197l215 -585q18 -49 35.5 -103.5t30.5 -99.5h4q14 45 29.5 99t33.5 108l197 581h190l-270 -706q-49 -127 -91 -225.5t-82 -173t-81 -129t-86 -95.5q-68 -57 -127 -82.5t-94 -32.5l-45 152q35 10 75.5 31.5t81.5 56.5q37 29 78 80t74 121q6 14 10 23t4 20 q0 16 -14 45z" />
<glyph unicode="z" horiz-adv-x="876" d="M37 0v104l448 584q35 41 66 78t65 78v4h-538v143h756v-112l-445 -578q-31 -41 -61.5 -79t-65.5 -75v-4h580v-143h-805z" />
<glyph unicode="{" horiz-adv-x="581" d="M57 537v104q55 0 88 13.5t50.5 35t22.5 49t5 54.5q0 43 -5 86t-11 86t-11.5 86t-5.5 84q0 141 84 204.5t215 63.5h41v-113h-34q-92 -2 -128 -47t-36 -129q0 -35 5 -71.5t9 -73.5q6 -39 11 -77t5 -79q2 -98 -38.5 -150.5t-108.5 -70.5v-4q68 -16 109 -70.5t38 -152.5 q0 -41 -5 -80t-11 -76q-4 -39 -9 -75t-5 -73q0 -86 39 -131t125 -47h34v-112h-43q-63 0 -117.5 14t-94 48t-62.5 87t-23 131q0 41 5.5 84t13.5 84q4 41 9 82t5 82q0 25 -5 51.5t-22.5 50t-50 38t-88.5 14.5z" />
<glyph unicode="|" horiz-adv-x="489" d="M176 -512v2048h137v-2048h-137z" />
<glyph unicode="}" horiz-adv-x="581" d="M51 -117h35q86 2 125 47t39 131q0 37 -5 73t-9 75q-6 37 -11.5 76t-5.5 80q-2 98 39 152t109 71v4q-68 18 -109 70.5t-39 150.5q0 41 5 79t12 77q4 37 9 73.5t5 71.5q0 84 -36 129t-128 47h-35v113h41q131 0 215 -63.5t84 -204.5q0 -41 -5 -84t-11 -86t-11.5 -86 t-5.5 -86q0 -27 5.5 -54.5t22.5 -49t50 -35t88 -13.5v-104q-55 0 -88 -14.5t-50 -38t-22.5 -50t-5.5 -51.5q0 -41 5.5 -82t11.5 -82t11 -84t5 -84q0 -78 -22.5 -131t-62.5 -87t-94 -48t-118 -14h-43v112z" />
<glyph unicode="~" horiz-adv-x="1220" d="M100 432q-4 154 67 230.5t177 76.5q33 0 62.5 -5t63.5 -16t73 -28.5t92 -42.5q78 -37 137 -61.5t117 -24.5q106 0 110 172h121q4 -86 -14.5 -144.5t-51 -95t-76.5 -53t-91 -16.5q-59 0 -125 20.5t-172 69.5q-72 35 -131.5 62.5t-114.5 27.5t-87 -40t-34 -132h-123z" />
<glyph unicode="&#xa1;" horiz-adv-x="471" d="M115 872q0 55 33.5 91t87.5 36h2q53 0 85.5 -35.5t32.5 -91.5q0 -53 -32.5 -90t-87.5 -37q-53 0 -87 37t-34 90zM137 -397l29 977h139l29 -977h-197z" />
<glyph unicode="&#xa2;" d="M137 668q0 98 29 184t83 152.5t130 109.5t170 60v206h129v-202q70 -2 128 -17.5t95 -34.5l-41 -137q-33 18 -85 34.5t-130 16.5q-76 0 -136 -28.5t-103.5 -78.5t-66 -116.5t-22.5 -142.5q0 -84 25 -150.5t69 -112.5t102 -71t126 -25q84 0 140.5 16.5t92.5 35.5l31 -131 q-29 -16 -89 -36t-136 -24v-207h-129v209q-98 10 -169 47t-126 97q-53 59 -85 146t-32 200z" />
<glyph unicode="&#xa3;" d="M113 0v102q104 53 168.5 147.5t64.5 211.5q0 37 -2 69.5t-8 73.5h-209v129h190q-8 47 -15 104.5t-7 116.5q0 90 29.5 164t82 126t124 81t157.5 29q80 0 135.5 -15.5t87.5 -35.5l-39 -136q-29 16 -73.5 28.5t-110.5 12.5q-121 0 -172 -73.5t-51 -182.5q0 -66 6 -118 t16 -101h293v-129h-276q4 -59 5 -116.5t-13 -112.5q-33 -129 -142 -221v-4h611v-150h-852z" />
<glyph unicode="&#xa4;" d="M57 1071l93 94l139 -155q45 39 106.5 61.5t128.5 22.5h2q72 0 133.5 -22.5t102.5 -59.5l145 153l92 -94l-161 -145q31 -41 51 -103.5t20 -138.5q0 -84 -21.5 -147.5t-49.5 -102.5l153 -151l-90 -90l-141 155q-47 -43 -112.5 -64.5t-127.5 -21.5q-63 0 -127.5 21.5 t-105.5 60.5l-137 -151l-89 90l148 143q-31 41 -53.5 105.5t-22.5 142.5q0 80 22.5 144.5t57.5 107.5zM281 676q0 -74 23.5 -128t58 -89t77.5 -51.5t82 -16.5q43 0 86 15.5t79 50.5t57.5 90t21.5 135q0 53 -15.5 104.5t-46 91.5t-75.5 63.5t-105 23.5h-2q-55 0 -100 -22.5 t-77 -61.5t-48 -92.5t-16 -112.5z" />
<glyph unicode="&#xa5;" d="M33 1331h192l213 -422q25 -53 44.5 -96t37.5 -90h6q16 43 36 90t46 100l221 418h189l-367 -620h267v-101h-320v-149h320v-101h-320v-360h-170v360h-317v101h317v149h-317v101h268z" />
<glyph unicode="&#xa6;" horiz-adv-x="489" d="M176 356h137v-716h-137v716zM176 664v716h137v-716h-137z" />
<glyph unicode="&#xa7;" horiz-adv-x="1062" d="M121 694q0 59 34.5 124t116.5 118q-33 23 -54 70t-21 100q0 68 29.5 122t79.5 92t119 57.5t148 19.5q86 0 158 -19.5t125 -48.5l-45 -117q-39 25 -99.5 45.5t-144.5 20.5q-92 0 -152.5 -41t-60.5 -111q0 -78 70 -117.5t186 -78.5q70 -23 131.5 -50.5t105.5 -64.5 t69.5 -87t25.5 -120q0 -82 -36 -141t-95 -107q25 -23 51.5 -70.5t26.5 -111.5q0 -80 -34 -138t-89 -95t-125 -55.5t-141 -18.5q-92 0 -177 21.5t-145 64.5l49 117q37 -27 109 -54.5t164 -27.5q98 0 162.5 43t64.5 123q0 37 -12.5 65.5t-41 53t-76.5 48t-120 48.5 q-78 27 -143.5 56.5t-112.5 66t-73.5 85t-26.5 113.5zM268 719q0 -55 47 -102.5t168 -92.5q78 -29 138.5 -52t95.5 -46q78 61 78 158q0 59 -41 107t-142 83q-59 23 -129.5 49.5t-122.5 55.5q-49 -35 -70.5 -74t-21.5 -84v-2z" />
<glyph unicode="&#xa8;" horiz-adv-x="614" d="M18 1243q0 41 30 72t73 31q41 0 69.5 -30t28.5 -73q0 -41 -26.5 -71.5t-71.5 -30.5h-2q-45 0 -73 30.5t-28 71.5zM393 1243q0 41 29 72t74 31q41 0 69.5 -30t28.5 -73q0 -41 -26.5 -71.5t-73.5 -30.5h-2q-43 0 -71 30.5t-28 71.5z" />
<glyph unicode="&#xa9;" horiz-adv-x="1386" d="M74 696q0 131 48 246t132 201t197.5 135t244.5 49h2q129 0 241 -49t195 -135t131 -201t48 -246q0 -133 -48 -248.5t-131 -201.5t-196 -135.5t-242 -49.5q-131 0 -244.5 49.5t-197.5 135.5t-132 201.5t-48 248.5zM178 690q0 -115 40 -214t109.5 -173t165 -116t205.5 -42 q109 -2 203 40t163 117t108.5 176.5t39.5 217.5q0 115 -39.5 214.5t-108.5 173t-163 116.5t-203 43h-2q-111 0 -205 -43t-163.5 -116.5t-109.5 -175t-40 -218.5zM354 684q0 88 32 158.5t86 120t125 76t148 26.5q80 0 141.5 -18.5t84.5 -36.5l-25 -82q-20 12 -73.5 30.5 t-127.5 18.5q-143 0 -213.5 -82t-70.5 -205q0 -59 18.5 -112.5t55 -92.5t90 -61.5t123.5 -22.5q63 0 118.5 15.5t89.5 38.5l25 -78q-53 -35 -120.5 -49.5t-131.5 -14.5q-90 0 -159.5 29t-116.5 79t-73 117.5t-26 145.5z" />
<glyph unicode="&#xaa;" horiz-adv-x="708" d="M68 729q0 111 106.5 174.5t304.5 59.5v20q0 12 -5 33.5t-21.5 42t-46 36t-80.5 15.5q-102 0 -174 -53l-33 86q45 33 106.5 50t126.5 17q76 0 127 -24.5t80 -64.5t41 -91t12 -106v-219q0 -41 3 -83t8 -77h-121l-10 86h-5q-31 -35 -84 -65.5t-124 -30.5q-102 0 -156.5 57 t-54.5 137zM203 739q0 -51 35.5 -78.5t83.5 -27.5q47 0 83.5 22.5t55.5 51.5q10 16 15 30.5t5 24.5v112q-49 2 -98 -3t-89 -20t-65.5 -42t-25.5 -70z" />
<glyph unicode="&#xab;" horiz-adv-x="858" d="M59 516l271 377h145l-272 -377l274 -377h-145zM395 516l271 377h145l-272 -377l274 -377h-145z" />
<glyph unicode="&#xac;" horiz-adv-x="1220" d="M82 694v123h1057v-569h-131v446h-926z" />
<glyph unicode="&#xad;" horiz-adv-x="628" d="M61 487v131h506v-131h-506z" />
<glyph unicode="&#xae;" horiz-adv-x="1044" d="M68 938q0 96 35.5 180t98 146.5t145.5 98.5t177 36h2q94 0 177 -36t144.5 -98.5t96.5 -146.5t35 -180q0 -98 -36 -182t-97.5 -146.5t-144.5 -98.5t-177 -36t-177 36t-145.5 98.5t-98 146.5t-35.5 182zM156 938q0 -82 28.5 -153.5t79.5 -124t118 -83t144 -30.5 q76 0 143.5 29.5t118 83t79 124t28.5 152.5t-28.5 152.5t-79 124t-118 84t-143.5 30.5h-2q-76 0 -143.5 -30.5t-117.5 -83t-78.5 -124t-28.5 -151.5zM356 670v514l66 8t80 4q59 0 98 -11t62 -28q47 -35 47 -106q0 -51 -30 -82t-71 -43v-4q72 -12 86 -125q10 -59 18.5 -87 t14.5 -40h-86q-18 25 -35 131q-10 49 -35.5 69.5t-74.5 20.5h-58v-221h-82zM438 954h60q51 0 88 20.5t37 67.5q0 35 -28 63t-97 28q-20 0 -34.5 -1.5t-25.5 -3.5v-174z" />
<glyph unicode="&#xaf;" horiz-adv-x="614" d="M78 1198v111h461v-111h-461z" />
<glyph unicode="&#xb0;" horiz-adv-x="651" d="M59 1128q0 57 21.5 107.5t58.5 87.5t86 58.5t107 21.5h2q63 0 112.5 -22.5t84 -59.5t53 -85t18.5 -99q0 -61 -22.5 -111.5t-61.5 -86.5t-88 -55.5t-102 -19.5q-59 0 -109.5 21.5t-85.5 57.5t-54.5 84t-19.5 101zM172 1128q0 -72 45 -119.5t115 -47.5q72 0 117 49t45 125 q0 29 -9.5 59.5t-29 55t-50 41t-73.5 16.5h-2q-39 0 -69 -15.5t-49 -41t-29.5 -57.5t-10.5 -65z" />
<glyph unicode="&#xb1;" horiz-adv-x="1220" d="M82 0v123h1057v-123h-1057zM82 649v123h463v397h131v-397h463v-123h-463v-409h-131v409h-463z" />
<glyph unicode="&#xb2;" horiz-adv-x="718" d="M90 545v76l129 118q127 119 192.5 199t65.5 158q0 59 -38 101t-117 42q-53 0 -98.5 -20.5t-73.5 -42.5l-44 94q41 35 108 59.5t144 24.5q72 0 123 -20.5t84 -53.5t48.5 -74t15.5 -82q0 -59 -20.5 -109t-57.5 -99.5t-87 -97.5t-108 -99l-61 -57v-5h348v-112h-553z" />
<glyph unicode="&#xb3;" horiz-adv-x="696" d="M72 592l37 102q25 -16 79 -34.5t111 -18.5q47 0 82 12.5t56.5 33t31.5 44t10 47.5q0 39 -18.5 65.5t-49 44t-69.5 26t-80 8.5h-55v94h57q29 0 61.5 7t60.5 22.5t46.5 40t18.5 59.5q0 39 -30 70.5t-99 31.5q-55 0 -102.5 -19.5t-72.5 -35.5l-34 98q35 23 97 43.5t138 20.5 q66 0 113 -16.5t77.5 -43t45 -61.5t14.5 -72q0 -63 -42 -111.5t-116 -74.5v-4q84 -10 137.5 -64.5t53.5 -132.5q0 -47 -21.5 -91t-62.5 -77t-101.5 -52t-138.5 -19q-74 0 -137.5 17t-97.5 40z" />
<glyph unicode="&#xb4;" horiz-adv-x="614" d="M207 1112l180 293h197l-250 -293h-127z" />
<glyph unicode="&#xb6;" horiz-adv-x="1048" d="M70 930q0 80 24.5 162t88 146.5t173 105t277.5 40.5q158 0 239 -16v-1468h-127v1362h-145v-1362h-127v641h-14q-61 0 -129 23.5t-125.5 72.5t-95 121.5t-39.5 171.5z" />
<glyph unicode="&#xb7;" horiz-adv-x="423" d="M90 559q0 57 35 93t88 36t87 -36t34 -93q0 -53 -34 -90t-89 -37h-2q-53 0 -86 37t-33 90z" />
<glyph unicode="&#xb8;" horiz-adv-x="614" d="M111 -373l30 86q53 -29 111 -28q35 0 61.5 14t26.5 49q-2 41 -45 60.5t-115 25.5l96 172h113l-67 -108q55 -6 99 -44t44 -98q0 -45 -17.5 -76.5t-47 -51t-68.5 -29t-82 -9.5q-37 0 -75 10.5t-64 26.5z" />
<glyph unicode="&#xb9;" horiz-adv-x="653" d="M125 1253l192 90h125v-798h-143v674h-4l-148 -72z" />
<glyph unicode="&#xba;" horiz-adv-x="727" d="M37 866q0 80 26.5 143.5t71.5 108.5t105.5 68.5t126.5 23.5h2q74 0 133 -25.5t101 -69.5t64.5 -105.5t22.5 -132.5q0 -88 -29.5 -153t-75.5 -107t-104.5 -62t-118.5 -20q-68 0 -127 23.5t-103 66.5t-69.5 104.5t-25.5 136.5zM176 870q0 -102 56.5 -167.5t134.5 -65.5 q82 0 135 64.5t53 170.5q0 39 -11.5 80t-34 76t-58 57.5t-86.5 22.5h-3q-49 0 -83.5 -21.5t-57 -56.5t-34 -77t-11.5 -83z" />
<glyph unicode="&#xbb;" horiz-adv-x="858" d="M47 893h146l272 -377l-272 -377h-144l273 377zM381 893h145l273 -377l-273 -377h-143l272 377z" />
<glyph unicode="&#xbc;" horiz-adv-x="1554" d="M88 1253l193 90h125v-798h-144v674h-4l-147 -72zM283 -23l778 1377h115l-777 -1377h-116zM813 211v80l395 518h150v-498h123v-100h-123v-211h-135v211h-410zM961 313l2 -2h260v242q0 35 2 67.5t4 61.5h-4q-20 -33 -35.5 -60.5t-32.5 -52.5z" />
<glyph unicode="&#xbd;" horiz-adv-x="1554" d="M59 1253l193 90h125v-798h-144v674h-4l-147 -72zM244 -23l776 1377h115l-777 -1377h-114zM901 0v76l129 119q129 117 193.5 197.5t64.5 158.5q0 59 -38 101t-117 42q-53 0 -98.5 -20.5t-73.5 -42.5l-43 94q41 35 107.5 59.5t143.5 24.5q72 0 123 -20.5t84 -53.5t48.5 -75 t15.5 -82q0 -57 -20.5 -108.5t-57.5 -99.5t-87 -96.5t-108 -99.5l-61 -57v-4h348v-113h-553z" />
<glyph unicode="&#xbe;" horiz-adv-x="1554" d="M61 592l37 102q25 -16 79 -34.5t112 -18.5q47 0 82 12.5t56.5 33t31.5 44t10 47.5q0 39 -18.5 65.5t-49 44t-70.5 26t-81 8.5h-55v94h57q29 0 61.5 7t60 22.5t46 40t18.5 59.5q0 39 -29.5 70.5t-101.5 31.5q-55 0 -101 -19.5t-69 -35.5l-37 96q35 25 96.5 45.5 t137.5 20.5q68 0 115 -16.5t77.5 -43t45 -61.5t14.5 -72q0 -63 -42 -111.5t-114 -74.5v-4q84 -10 137.5 -64.5t53.5 -132.5q0 -47 -21.5 -91t-62.5 -77t-101.5 -52t-138.5 -19q-74 0 -137.5 17t-98.5 40zM358 -23l779 1377h114l-776 -1377h-117zM836 211v80l395 518h149 v-498h123v-100h-123v-211h-135v211h-409zM981 313l2 -2h262v242q0 37 2 68.5t4 60.5h-4q-20 -35 -35.5 -61.5t-31.5 -51.5z" />
<glyph unicode="&#xbf;" horiz-adv-x="831" d="M115 -125q0 102 51 185t125 169q68 82 94.5 154t22.5 149l-5 54h162l4 -54q10 -84 -19.5 -173t-107.5 -181q-70 -84 -106.5 -147.5t-36.5 -132.5q0 -78 48 -127.5t147 -49.5q55 0 111.5 17.5t96.5 46.5l48 -129q-53 -37 -132 -60.5t-161 -23.5q-88 0 -152.5 25.5 t-106.5 67.5t-62.5 96.5t-20.5 113.5zM365 870q0 57 33.5 93t86.5 36h2q53 0 86 -35.5t33 -93.5q0 -53 -32.5 -90t-88.5 -37q-53 0 -86.5 37t-33.5 90z" />
<glyph unicode="&#xc0;" horiz-adv-x="1253" d="M51 0l469 1380h215l471 -1380h-190l-148 434h-489l-143 -434h-185zM319 1696h218l190 -240h-143zM416 573h415l-137 398q-23 68 -38 130t-31 122h-7q-14 -59 -30.5 -123t-36.5 -127z" />
<glyph unicode="&#xc1;" horiz-adv-x="1253" d="M51 0l469 1380h215l471 -1380h-190l-148 434h-489l-143 -434h-185zM416 573h415l-137 398q-23 68 -38 130t-31 122h-7q-14 -59 -30.5 -123t-36.5 -127zM532 1454l193 242h215l-262 -242h-146z" />
<glyph unicode="&#xc2;" horiz-adv-x="1253" d="M51 0l469 1380h215l471 -1380h-190l-148 434h-489l-143 -434h-185zM362 1454l209 242h131l213 -242h-147l-129 152h-4l-129 -152h-144zM416 573h415l-137 398q-23 68 -38 130t-31 122h-7q-14 -59 -30.5 -123t-36.5 -127z" />
<glyph unicode="&#xc3;" horiz-adv-x="1253" d="M53 0l467 1380h215l471 -1380h-190l-148 434h-489l-141 -434h-185zM375 1464q-4 92 32.5 147.5t100.5 55.5q35 0 64.5 -12.5t62.5 -30.5q25 -16 49.5 -26.5t46.5 -10.5q27 0 41 15.5t19 68.5h92q2 -94 -32 -144t-106 -50q-35 0 -63.5 11t-60.5 28q-29 16 -52.5 27 t-48.5 11t-37 -24.5t-16 -65.5h-92zM416 573h415l-137 398q-23 68 -38 130t-31 122h-7q-14 -59 -30.5 -123t-36.5 -127z" />
<glyph unicode="&#xc4;" horiz-adv-x="1253" d="M51 0l469 1380h217l471 -1380h-190l-150 434h-489l-143 -434h-185zM346 1579q0 43 28.5 73.5t71.5 30.5t71 -29.5t28 -74.5q0 -41 -26.5 -71.5t-72.5 -30.5h-2q-43 0 -70.5 30.5t-27.5 71.5zM416 573h418l-138 398q-23 68 -39 130t-32 122h-4q-16 -59 -33 -123t-37 -127z M723 1579q0 43 28.5 73.5t71.5 30.5t71 -29.5t28 -74.5q0 -41 -27 -71.5t-74 -30.5h-2q-43 0 -69.5 30.5t-26.5 71.5z" />
<glyph unicode="&#xc5;" horiz-adv-x="1253" d="M55 0l461 1360q-47 16 -73.5 57t-26.5 92q0 78 59.5 135.5t161.5 57.5q104 0 161.5 -54.5t57.5 -138.5q0 -53 -30.5 -95t-80.5 -58l463 -1356h-190l-148 434h-489l-141 -434h-185zM416 573h418l-140 406q-18 53 -35.5 118.5t-33.5 123.5h-4q-10 -47 -26.5 -106.5 t-33.5 -113.5zM526 1511q0 -41 29 -74.5t80 -33.5q53 0 81.5 31.5t28.5 78.5t-28.5 80t-81.5 33h-2q-53 0 -80 -33.5t-27 -81.5z" />
<glyph unicode="&#xc6;" horiz-adv-x="1613" d="M-2 0l631 1380h862v-149h-586l53 -440h515v-148h-492l61 -493h504v-150h-659l-62 485h-422l-221 -485h-184zM463 631h344l-45 397q-6 47 -13.5 108.5t-11.5 114.5h-8q-18 -49 -41.5 -106.5t-46.5 -110.5z" />
<glyph unicode="&#xc7;" horiz-adv-x="1198" d="M74 678q0 162 52 296t147.5 229t228.5 147.5t293 52.5q129 0 210.5 -21.5t116.5 -40.5l-43 -145q-51 25 -121.5 41t-156.5 16q-121 0 -220.5 -37.5t-170 -110.5t-109.5 -179.5t-39 -241.5q0 -127 36 -230.5t103.5 -175t166 -110.5t223.5 -39q82 0 160.5 15.5t131.5 41.5 l37 -143q-47 -23 -141 -43t-227 -23l-52 -79q59 -8 101.5 -47t42.5 -99q0 -43 -17.5 -73.5t-47 -50t-67.5 -29t-81 -9.5q-41 0 -79 10.5t-63 24.5l31 88q51 -29 111 -28q35 0 60.5 14t25.5 49q0 39 -43 58.5t-115 27.5l84 152q-123 14 -227.5 66t-180 139.5t-118.5 209 t-43 277.5z" />
<glyph unicode="&#xc8;" horiz-adv-x="1007" d="M154 0v1380h747v-149h-567v-436h534v-148h-534v-497h598v-150h-778zM250 1696h217l190 -240h-143z" />
<glyph unicode="&#xc9;" horiz-adv-x="1007" d="M154 0v1380h747v-149h-567v-436h534v-148h-534v-497h598v-150h-778zM426 1454l192 242h218l-265 -242h-145z" />
<glyph unicode="&#xca;" horiz-adv-x="1007" d="M154 0v1380h747v-149h-567v-436h534v-148h-534v-497h598v-150h-778zM252 1454l209 242h131l213 -242h-148l-129 152h-4l-129 -152h-143z" />
<glyph unicode="&#xcb;" horiz-adv-x="1007" d="M154 0v1380h747v-149h-567v-436h534v-148h-534v-497h598v-150h-778zM246 1581q0 41 28.5 71.5t71.5 30.5t70.5 -29.5t27.5 -72.5t-26.5 -73.5t-71.5 -30.5h-2q-43 0 -70.5 30.5t-27.5 73.5zM623 1581q0 41 28.5 71.5t71.5 30.5t70.5 -29.5t27.5 -72.5t-26.5 -73.5 t-73.5 -30.5h-2q-43 0 -69.5 30.5t-26.5 73.5z" />
<glyph unicode="&#xcc;" horiz-adv-x="489" d="M-57 1696h215l192 -240h-145zM154 0v1380h180v-1380h-180z" />
<glyph unicode="&#xcd;" horiz-adv-x="489" d="M139 1454l193 242h215l-262 -242h-146zM154 0v1380h180v-1380h-180z" />
<glyph unicode="&#xce;" horiz-adv-x="489" d="M-33 1454l209 242h131l213 -242h-147l-129 152h-4l-129 -152h-144zM154 0v1380h180v-1380h-180z" />
<glyph unicode="&#xcf;" horiz-adv-x="489" d="M-43 1579q0 43 28.5 73.5t71.5 30.5t70 -29.5t27 -74.5q0 -41 -26 -71.5t-71 -30.5h-2q-43 0 -70.5 30.5t-27.5 71.5zM154 0v1380h180v-1380h-180zM332 1579q0 43 28.5 73.5t71.5 30.5t70.5 -29.5t27.5 -74.5q0 -41 -26.5 -71.5t-73.5 -30.5h-2q-43 0 -69.5 30.5 t-26.5 71.5z" />
<glyph unicode="&#xd0;" horiz-adv-x="1374" d="M-4 629v143h168v596q84 12 179 20.5t202 8.5q377 0 557 -170q94 -86 145 -209t51 -295t-51 -307t-147 -232q-98 -98 -254 -148t-357 -50q-98 0 -177 3t-148 11v629h-168zM344 137q35 -6 81 -7t97 -1q289 0 438.5 152.5t149.5 439.5q0 125 -34 223t-103.5 168t-174 106.5 t-245.5 36.5q-70 0 -122 -5t-87 -13v-465h369v-143h-369v-492z" />
<glyph unicode="&#xd1;" horiz-adv-x="1347" d="M156 0v1380h196l441 -698q76 -123 137 -231.5t108 -217.5l6 3q-12 139 -16 272t-4 293v579h168v-1380h-180l-439 700q-72 117 -138 233t-118 228l-6 -2q8 -131 10.5 -264t2.5 -305v-590h-168zM440 1464q-4 92 33 147.5t100 55.5q35 0 65 -12.5t62 -30.5 q25 -16 49.5 -26.5t47.5 -10.5q27 0 41 15.5t18 68.5h92q2 -94 -31.5 -144t-105.5 -50q-35 0 -63.5 11t-61.5 28q-29 16 -52.5 27t-47.5 11q-25 0 -37 -24.5t-17 -65.5h-92z" />
<glyph unicode="&#xd2;" horiz-adv-x="1411" d="M74 678q0 164 48 298t133 229t201.5 146.5t256.5 51.5q141 0 256.5 -51.5t196.5 -144.5t125 -221t44 -281q0 -178 -50 -313.5t-137 -227.5t-204 -139.5t-248 -47.5h-2q-137 0 -251.5 50.5t-196.5 142.5t-127 221t-45 287zM260 682q0 -109 29.5 -210t86 -179t138.5 -124 t186 -46h2q106 0 188.5 45t138.5 124t86 183.5t30 220.5q0 102 -26.5 202.5t-82 180.5t-138.5 129t-193 49q-111 0 -195 -48t-139.5 -128t-83 -183t-27.5 -216zM395 1696h217l191 -240h-144z" />
<glyph unicode="&#xd3;" horiz-adv-x="1411" d="M74 678q0 164 48 298t133 229t201.5 146.5t256.5 51.5q141 0 256.5 -51.5t196.5 -144.5t125 -221t44 -281q0 -178 -50 -313.5t-137 -227.5t-204 -139.5t-248 -47.5h-2q-137 0 -251.5 50.5t-196.5 142.5t-127 221t-45 287zM260 682q0 -109 29.5 -210t86 -179t138.5 -124 t186 -46h2q106 0 188.5 45t138.5 124t86 183.5t30 220.5q0 102 -26.5 202.5t-82 180.5t-138.5 129t-193 49q-111 0 -195 -48t-139.5 -128t-83 -183t-27.5 -216zM618 1454l193 242h217l-264 -242h-146z" />
<glyph unicode="&#xd4;" horiz-adv-x="1411" d="M74 678q0 164 48 298t133 229t201.5 146.5t256.5 51.5q141 0 256.5 -51.5t196.5 -144.5t125 -221t44 -281q0 -178 -50 -313.5t-137 -227.5t-204 -139.5t-248 -47.5h-2q-137 0 -251.5 50.5t-196.5 142.5t-127 221t-45 287zM260 682q0 -109 29.5 -210t86 -179t138.5 -124 t186 -46h2q106 0 188.5 45t138.5 124t86 183.5t30 220.5q0 102 -26.5 202.5t-82 180.5t-138.5 129t-193 49q-111 0 -195 -48t-139.5 -128t-83 -183t-27.5 -216zM428 1454l209 242h131l213 -242h-147l-129 152h-5l-127 -152h-145z" />
<glyph unicode="&#xd5;" horiz-adv-x="1411" d="M74 678q0 164 48 298t133 229t201.5 146.5t256.5 51.5q141 0 256.5 -51.5t196.5 -144.5t125 -221t44 -281q0 -178 -50 -313.5t-137 -227.5t-204 -139.5t-248 -47.5h-2q-137 0 -251.5 50.5t-196.5 142.5t-127 221t-45 287zM260 682q0 -109 29.5 -210t86 -179t138.5 -124 t186 -46h2q106 0 188.5 45t138.5 124t86 183.5t30 220.5q0 102 -26.5 202.5t-82 180.5t-138.5 129t-193 49q-111 0 -195 -48t-139.5 -128t-83 -183t-27.5 -216zM451 1464q-4 92 32.5 147.5t102.5 55.5q35 0 63.5 -12.5t61.5 -30.5q27 -16 51 -26.5t47 -10.5q27 0 41 15.5 t18 68.5h93q2 -94 -33 -144t-107 -50q-33 0 -61.5 11t-63.5 28q-29 16 -52 27t-48 11t-37 -24.5t-16 -65.5h-92z" />
<glyph unicode="&#xd6;" horiz-adv-x="1411" d="M74 678q0 164 48 298t133 229t202.5 146.5t257.5 51.5q141 0 255.5 -51.5t195.5 -144.5t125 -221t44 -281q0 -178 -50 -313.5t-137 -227.5t-203 -139.5t-247 -47.5h-2q-139 0 -252.5 50.5t-196.5 142.5t-128 221t-45 287zM260 682q0 -109 29.5 -210t86 -179t138.5 -124 t186 -46h2q106 0 189.5 45t139.5 124t85 183.5t29 220.5q0 102 -26.5 202.5t-82 180.5t-138.5 129t-193 49q-111 0 -195 -48t-139.5 -128t-83 -183t-27.5 -216zM418 1579q0 43 28.5 73.5t71.5 30.5t70.5 -29.5t27.5 -74.5q0 -41 -26.5 -71.5t-71.5 -30.5h-2 q-43 0 -70.5 30.5t-27.5 71.5zM795 1579q0 43 28.5 73.5t71.5 30.5t70.5 -29.5t27.5 -74.5q0 -41 -26.5 -71.5t-73.5 -30.5h-2q-43 0 -69.5 30.5t-26.5 71.5z" />
<glyph unicode="&#xd7;" horiz-adv-x="1220" d="M82 90l440 449l-440 448l90 90l438 -448l439 448l90 -90l-439 -448l439 -449l-90 -90l-439 449l-438 -449z" />
<glyph unicode="&#xd8;" horiz-adv-x="1411" d="M74 682q0 164 48 297t134 227t202.5 145.5t252.5 51.5q195 0 344 -109l121 166l108 -74l-127 -176q86 -94 132 -224t46 -284q0 -180 -51 -316t-138 -226t-201 -136.5t-238 -46.5q-197 0 -349 111l-129 -176l-100 80l127 178q-86 94 -134 225t-48 287zM256 690 q0 -115 26.5 -203t73.5 -165l4 2l607 839q-53 45 -118 71t-142 26q-113 0 -197 -48.5t-140.5 -128t-85 -182t-28.5 -211.5zM446 219q51 -47 111.5 -72.5t147.5 -25.5q106 0 190 46t141.5 125t87 183.5t29.5 220.5q0 88 -21.5 178.5t-74.5 180.5h-6z" />
<glyph unicode="&#xd9;" horiz-adv-x="1325" d="M154 567v813h180v-819q0 -115 24.5 -197.5t67.5 -136t101.5 -79t127.5 -25.5q152 0 244 105.5t92 332.5v819h180v-807q0 -160 -39.5 -272.5t-109.5 -184t-165 -105.5t-208 -34q-106 0 -196.5 32t-157 102.5t-104 182.5t-37.5 273zM371 1696h217l192 -240h-145z" />
<glyph unicode="&#xda;" horiz-adv-x="1325" d="M154 567v813h180v-819q0 -115 24.5 -197.5t67.5 -136t101.5 -79t127.5 -25.5q152 0 244 105.5t92 332.5v819h180v-807q0 -160 -39.5 -272.5t-109.5 -184t-165 -105.5t-208 -34q-106 0 -196.5 32t-157 102.5t-104 182.5t-37.5 273zM569 1454l191 242h217l-264 -242h-144z " />
<glyph unicode="&#xdb;" horiz-adv-x="1325" d="M154 567v813h180v-819q0 -115 24.5 -197.5t67.5 -136t101.5 -79t127.5 -25.5q152 0 244 105.5t92 332.5v819h180v-807q0 -160 -39.5 -272.5t-109.5 -184t-165 -105.5t-208 -34q-106 0 -196.5 32t-157 102.5t-104 182.5t-37.5 273zM401 1454l207 242h131l213 -242h-147 l-129 152h-4l-127 -152h-144z" />
<glyph unicode="&#xdc;" horiz-adv-x="1325" d="M154 567v813h180v-819q0 -115 24.5 -197.5t67.5 -136t102.5 -79t128.5 -25.5q76 0 137.5 25.5t105.5 80t67.5 136t23.5 196.5v819h180v-807q0 -160 -39.5 -272.5t-109.5 -184t-165 -105.5t-208 -34q-106 0 -196.5 32t-157 102.5t-104 182.5t-37.5 273zM381 1579 q0 43 28.5 73.5t71.5 30.5t71 -29.5t28 -74.5q0 -41 -27 -71.5t-72 -30.5h-2q-43 0 -70.5 30.5t-27.5 71.5zM756 1579q0 43 28.5 73.5t71.5 30.5t70.5 -29.5t27.5 -74.5q0 -41 -26.5 -71.5t-73.5 -30.5h-2q-43 0 -69.5 30.5t-26.5 71.5z" />
<glyph unicode="&#xdd;" horiz-adv-x="1107" d="M25 1380h204l195 -381q39 -78 71.5 -145.5t65.5 -138.5h4q29 68 64 137.5t76 146.5l198 381h201l-461 -792v-588h-180v586zM479 1454l193 242h215l-262 -242h-146z" />
<glyph unicode="&#xde;" horiz-adv-x="1087" d="M156 0v1380h176v-268q41 8 91 11t105 3q240 0 365 -112q53 -49 83 -119t30 -147q0 -111 -39 -193t-109 -136t-164 -82t-207 -28q-43 0 -82.5 3t-72.5 7v-319h-176zM332 465q35 -8 73.5 -10t79.5 -2q166 0 254 73.5t88 200.5q0 133 -88 195.5t-227 62.5q-61 0 -108.5 -5 t-71.5 -11v-504z" />
<glyph unicode="&#xdf;" horiz-adv-x="1122" d="M150 0v926q0 176 38.5 280.5t108.5 165.5q113 104 297 105q74 0 140.5 -22.5t116.5 -67t80 -109t30 -148.5q0 -53 -15.5 -97t-32.5 -70q-70 -29 -108.5 -71t-38.5 -95t28.5 -91t75.5 -88q31 -31 61 -63.5t53.5 -69t37.5 -82t14 -100.5q0 -145 -97 -235.5t-269 -90.5 q-59 0 -115.5 10.5t-101.5 32.5l32 138q82 -41 172 -41q98 0 149.5 50t51.5 122q0 66 -28.5 113t-81.5 98q-66 61 -113 123.5t-47 148.5q0 78 46 143.5t136 108.5q18 37 18 88q0 106 -59 164.5t-154 58.5q-119 0 -182 -92t-63 -309v-934h-180z" />
<glyph unicode="&#xe0;" horiz-adv-x="987" d="M72 262q0 180 153.5 275.5t442.5 93.5v20q0 31 -7.5 71t-30 76t-67.5 59.5t-121 23.5q-72 0 -139 -19.5t-121 -54.5l-41 121q61 39 147.5 62.5t180.5 23.5q115 0 188.5 -36t115.5 -93.5t58.5 -130t16.5 -146.5v-370q0 -66 3 -126.5t11 -111.5h-162l-16 125h-6 q-41 -59 -119 -103.5t-184 -44.5q-76 0 -132.5 25t-94 64.5t-57 91t-19.5 104.5zM195 1405h197l180 -293h-127zM252 283q0 -90 50 -131t118 -41q98 0 159.5 51t84.5 114q8 25 8 58v172q-74 2 -148.5 -6t-135 -32t-98.5 -69t-38 -116z" />
<glyph unicode="&#xe1;" horiz-adv-x="987" d="M72 262q0 180 153.5 275.5t442.5 93.5v20q0 31 -7.5 71t-30 76t-67.5 59.5t-121 23.5q-72 0 -139 -19.5t-121 -54.5l-41 121q61 39 147.5 62.5t180.5 23.5q115 0 188.5 -36t115.5 -93.5t58.5 -130t16.5 -146.5v-370q0 -66 3 -126.5t11 -111.5h-162l-16 125h-6 q-41 -59 -119 -103.5t-184 -44.5q-76 0 -132.5 25t-94 64.5t-57 91t-19.5 104.5zM252 283q0 -90 50 -131t118 -41q98 0 159.5 51t84.5 114q8 25 8 58v172q-74 2 -148.5 -6t-135 -32t-98.5 -69t-38 -116zM385 1112l180 293h197l-250 -293h-127z" />
<glyph unicode="&#xe2;" horiz-adv-x="987" d="M72 262q0 180 153.5 275.5t442.5 93.5v20q0 31 -7.5 71t-30 76t-67.5 59.5t-121 23.5q-72 0 -139 -19.5t-121 -54.5l-41 121q61 39 147.5 62.5t180.5 23.5q115 0 188.5 -36t115.5 -93.5t58.5 -130t16.5 -146.5v-370q0 -66 3 -126.5t11 -111.5h-162l-16 125h-6 q-41 -59 -119 -103.5t-184 -44.5q-76 0 -132.5 25t-94 64.5t-57 91t-19.5 104.5zM231 1112l193 293h119l196 -293h-135l-119 193h-4l-119 -193h-131zM252 283q0 -90 50 -131t118 -41q98 0 159.5 51t84.5 114q8 25 8 58v172q-74 2 -148.5 -6t-135 -32t-98.5 -69t-38 -116z " />
<glyph unicode="&#xe3;" horiz-adv-x="987" d="M72 262q0 180 153.5 275.5t442.5 93.5v20q0 31 -7.5 71t-30 76t-67.5 59.5t-121 23.5q-72 0 -139 -19.5t-121 -54.5l-41 121q61 39 147.5 62.5t180.5 23.5q115 0 188.5 -36t115.5 -93.5t58.5 -130t16.5 -146.5v-370q0 -66 3 -126.5t11 -111.5h-162l-16 125h-6 q-41 -59 -119 -103.5t-184 -44.5q-76 0 -132.5 25t-94 64.5t-57 91t-19.5 104.5zM237 1149q0 94 33 145q39 59 100 60q37 0 66 -13.5t66 -33.5q23 -14 45 -24.5t47 -10.5q23 0 36 17.5t17 68.5h90q2 -94 -31.5 -145.5t-105.5 -51.5q-35 0 -64.5 13.5t-60.5 31.5 q-31 16 -51.5 25.5t-40.5 9.5q-23 0 -36 -24.5t-17 -67.5h-93zM252 283q0 -90 50 -131t118 -41q98 0 159.5 51t84.5 114q8 25 8 58v172q-74 2 -148.5 -6t-135 -32t-98.5 -69t-38 -116z" />
<glyph unicode="&#xe4;" horiz-adv-x="987" d="M72 262q0 180 153.5 275.5t442.5 93.5v20q0 31 -7.5 71t-30 76t-67.5 59.5t-121 23.5q-72 0 -139 -19.5t-121 -54.5l-41 121q61 39 147.5 62.5t180.5 23.5q115 0 188.5 -36t115.5 -93.5t58.5 -130t16.5 -146.5v-370q0 -66 3 -126.5t11 -111.5h-162l-16 125h-6 q-41 -59 -119 -103.5t-184 -44.5q-76 0 -132.5 25t-94 64.5t-57 91t-19.5 104.5zM204 1243q0 41 30 72t73 31q41 0 69.5 -30t28.5 -73q0 -41 -26.5 -71.5t-71.5 -30.5h-2q-45 0 -73 30.5t-28 71.5zM252 283q0 -90 50 -131t118 -41q98 0 159.5 51t84.5 114q8 25 8 58v172 q-74 2 -148.5 -6t-135 -32t-98.5 -69t-38 -116zM579 1243q0 41 29 72t74 31q41 0 69.5 -30t28.5 -73q0 -41 -26.5 -71.5t-73.5 -30.5h-2q-43 0 -71 30.5t-28 71.5z" />
<glyph unicode="&#xe5;" horiz-adv-x="987" d="M72 262q0 180 153.5 275.5t442.5 93.5v20q0 31 -7.5 71t-30 76t-67.5 59.5t-121 23.5q-72 0 -139 -19.5t-121 -54.5l-41 121q61 39 147.5 62.5t180.5 23.5q115 0 188.5 -36t115.5 -93.5t58.5 -130t16.5 -146.5v-370q0 -66 3 -126.5t11 -111.5h-162l-16 125h-6 q-41 -59 -119 -103.5t-184 -44.5q-76 0 -132.5 25t-94 64.5t-57 91t-19.5 104.5zM252 283q0 -90 50 -131t118 -41q98 0 159.5 51t84.5 114q8 25 8 58v172q-74 2 -148.5 -6t-135 -32t-98.5 -69t-38 -116zM283 1282q0 80 56 136.5t153 56.5h2q92 0 147 -55.5t55 -137.5 q0 -80 -58 -134t-146 -54q-92 0 -150.5 55t-58.5 133zM387 1282q0 -41 27.5 -76t75.5 -35q49 0 77.5 33t28.5 80t-28.5 80t-77.5 33h-2q-47 0 -74 -34t-27 -81z" />
<glyph unicode="&#xe6;" horiz-adv-x="1583" d="M74 260q0 174 153.5 269.5t442.5 91.5v41q0 18 -7.5 55t-32 73.5t-69.5 64.5t-121 28q-72 0 -140.5 -21.5t-113.5 -52.5l-43 119q66 41 151 64.5t159 23.5q135 0 211.5 -56.5t107.5 -152.5h4q49 98 138.5 153.5t207.5 55.5q113 0 187.5 -48t120 -119t62.5 -149.5 t17 -140.5q0 -51 -6 -82l-665 2q-2 -88 20.5 -155.5t65.5 -112.5t102 -68.5t129 -23.5q104 0 166.5 18.5t103.5 36.5l33 -127q-59 -31 -143 -49t-182 -18q-129 0 -231.5 56t-145.5 163h-6q-47 -104 -142.5 -161.5t-224.5 -57.5q-78 0 -136.5 23.5t-96 62t-57 90t-19.5 104.5 zM252 276q0 -78 50 -120.5t122 -42.5q98 -2 157.5 49t82.5 121q10 37 10 71v146q-72 2 -146.5 -5.5t-136 -32t-100.5 -68.5t-39 -118zM838 608h499q2 37 -9 86t-37.5 92t-73 73t-113.5 30q-68 0 -117 -27.5t-82 -69.5t-49 -91.5t-18 -92.5z" />
<glyph unicode="&#xe7;" horiz-adv-x="915" d="M78 485q0 115 38 211.5t106.5 167t166.5 110.5t219 40q80 0 147.5 -16.5t104.5 -36.5l-41 -138q-33 16 -84 31.5t-127 15.5q-84 0 -149.5 -29.5t-109.5 -80.5t-66.5 -120t-22.5 -146q0 -86 25.5 -155t71.5 -117t109.5 -73.5t137.5 -25.5q76 0 130 15.5t91 31.5l33 -133 q-35 -16 -103.5 -35.5t-162.5 -21.5l-51 -82q55 -8 99 -45t44 -97q0 -45 -17.5 -76.5t-47 -51t-68.5 -29t-82 -9.5q-35 0 -74 10.5t-63 26.5l28 86q51 -29 111 -28q35 0 61.5 14t26.5 51q-2 41 -44 59.5t-116 24.5l86 152q-92 12 -167.5 53t-129 106.5t-82 151.5t-28.5 188z " />
<glyph unicode="&#xe8;" horiz-adv-x="1026" d="M78 479q0 113 32.5 211t93 170t146.5 114t195 42q121 0 199.5 -47t124.5 -118t64.5 -153t18.5 -149q0 -55 -6 -86l-694 2q2 -92 29.5 -156.5t73.5 -106.5t106.5 -61.5t128.5 -19.5q98 0 161.5 14.5t112.5 34.5l33 -127q-47 -23 -130 -43t-202 -20q-115 0 -205 35.5 t-152.5 102t-96 159t-33.5 202.5zM254 594h524q0 43 -10 93t-38 95t-76 75t-124 30q-70 0 -119 -29t-82.5 -72t-51 -94t-23.5 -98zM276 1405h197l180 -293h-127z" />
<glyph unicode="&#xe9;" horiz-adv-x="1026" d="M78 479q0 113 32.5 211t93 170t146.5 114t195 42q121 0 199.5 -47t124.5 -118t64.5 -153t18.5 -149q0 -55 -6 -86l-694 2q2 -92 29.5 -156.5t73.5 -106.5t106.5 -61.5t128.5 -19.5q98 0 161.5 14.5t112.5 34.5l33 -127q-47 -23 -130 -43t-202 -20q-115 0 -205 35.5 t-152.5 102t-96 159t-33.5 202.5zM254 594h524q0 43 -10 93t-38 95t-76 75t-124 30q-70 0 -119 -29t-82.5 -72t-51 -94t-23.5 -98zM445 1112l180 293h197l-250 -293h-127z" />
<glyph unicode="&#xea;" horiz-adv-x="1026" d="M78 479q0 113 32.5 211t93 170t146.5 114t195 42q121 0 199.5 -47t124.5 -118t64.5 -153t18.5 -149q0 -55 -6 -86l-694 2q2 -92 29.5 -156.5t73.5 -106.5t106.5 -61.5t128.5 -19.5q98 0 161.5 14.5t112.5 34.5l33 -127q-47 -23 -130 -43t-202 -20q-115 0 -205 35.5 t-152.5 102t-96 159t-33.5 202.5zM254 594h524q0 43 -10 93t-38 95t-76 75t-124 30q-70 0 -119 -29t-82.5 -72t-51 -94t-23.5 -98zM286 1112l193 293h119l196 -293h-135l-119 193h-4l-119 -193h-131z" />
<glyph unicode="&#xeb;" horiz-adv-x="1026" d="M78 479q0 113 32.5 211t93 170t146.5 114t195 42q121 0 199.5 -47t124.5 -118t64.5 -153t18.5 -149q0 -55 -6 -86l-694 2q2 -92 29.5 -156.5t73.5 -106.5t106.5 -61.5t128.5 -19.5q98 0 161.5 14.5t112.5 34.5l33 -127q-47 -23 -130 -43t-202 -20q-115 0 -205 35.5 t-152.5 102t-96 159t-33.5 202.5zM254 594h524q0 43 -10 93t-38 95t-76 75t-124 30q-70 0 -119 -29t-82.5 -72t-51 -94t-23.5 -98zM262 1243q0 41 30 72t73 31q41 0 69.5 -30t28.5 -73q0 -41 -26.5 -71.5t-71.5 -30.5h-2q-45 0 -73 30.5t-28 71.5zM637 1243q0 41 29 72 t74 31q41 0 69.5 -30t28.5 -73q0 -41 -26.5 -71.5t-73.5 -30.5h-2q-43 0 -71 30.5t-28 71.5z" />
<glyph unicode="&#xec;" horiz-adv-x="479" d="M-55 1405h197l180 -293h-127zM150 0v991h180v-991h-180z" />
<glyph unicode="&#xed;" horiz-adv-x="479" d="M150 0v991h180v-991h-180zM152 1112l180 293h197l-250 -293h-127z" />
<glyph unicode="&#xee;" horiz-adv-x="479" d="M-13 1112l193 293h119l196 -293h-135l-119 193h-4l-119 -193h-131zM150 0v991h180v-991h-180z" />
<glyph unicode="&#xef;" horiz-adv-x="479" d="M-48 1243q0 41 30 72t73 31q41 0 69.5 -30t28.5 -73q0 -41 -26.5 -71.5t-71.5 -30.5h-2q-45 0 -73 30.5t-28 71.5zM150 0v991h180v-991h-180zM327 1243q0 41 29 72t74 31q41 0 69.5 -30t28.5 -73q0 -41 -26.5 -71.5t-73.5 -30.5h-2q-43 0 -71 30.5t-28 71.5z" />
<glyph unicode="&#xf0;" horiz-adv-x="1107" d="M80 483q0 119 39 213.5t102.5 160t145.5 100t170 34.5q59 0 115.5 -17.5t115.5 -70.5l4 6q-45 72 -104.5 138.5t-137.5 126.5l-290 -136l-39 88l237 113q-45 35 -100 64.5t-113 58.5l80 113q72 -33 146.5 -76t140.5 -90l260 125l45 -91l-217 -102q170 -139 260 -326 q43 -86 65.5 -184t22.5 -215q0 -141 -42 -243.5t-109.5 -168t-153.5 -96.5t-174 -31q-100 0 -186.5 36t-148.5 101.5t-98 159t-36 209.5zM262 485q0 -78 21.5 -146.5t59.5 -118.5t90 -78.5t114 -28.5h2q68 0 121 28.5t92 79.5t59.5 122t20.5 155q0 98 -15.5 162.5 t-54.5 111.5q-35 39 -87 67.5t-130 28.5q-80 0 -135 -36.5t-91 -93t-51.5 -124t-15.5 -129.5z" />
<glyph unicode="&#xf1;" horiz-adv-x="1136" d="M141 991h160l10 -162h4q18 35 49 68t72 59.5t93.5 42t113.5 15.5q51 0 112.5 -18.5t114 -65.5t88 -129t35.5 -209v-592h-180v571q0 59 -12.5 113.5t-39 94.5t-70.5 63.5t-107 23.5q-88 0 -152.5 -54t-89.5 -130q-6 -16 -9 -38.5t-3 -45.5v-598h-180v723q0 78 -2.5 142.5 t-6.5 125.5zM321 1149q0 94 33 145q39 59 100 60q37 0 66 -13.5t66 -33.5q23 -14 45 -24.5t47 -10.5q23 0 36 17.5t17 68.5h90q2 -94 -31.5 -145.5t-105.5 -51.5q-35 0 -64.5 13.5t-60.5 31.5q-31 16 -51.5 25.5t-40.5 9.5q-23 0 -36 -24.5t-17 -67.5h-93z" />
<glyph unicode="&#xf2;" horiz-adv-x="1124" d="M78 487q0 125 39 222.5t105.5 165t155.5 103.5t191 36q106 0 194.5 -37t151 -104.5t97.5 -161t35 -205.5q0 -139 -44.5 -238.5t-114 -164t-157.5 -95.5t-176 -31h-2q-100 0 -186 36t-150.5 101.5t-101.5 161t-37 211.5zM260 494q0 -82 21.5 -152t61.5 -121t94.5 -79.5 t119.5 -28.5h2q63 0 118.5 28.5t96.5 79.5t63.5 123t22.5 156q0 63 -16.5 129.5t-52 122t-92 91.5t-136.5 36t-137 -34t-94 -88.5t-54.5 -124t-17.5 -138.5zM293 1405h197l180 -293h-127z" />
<glyph unicode="&#xf3;" horiz-adv-x="1124" d="M78 487q0 125 39 222.5t105.5 165t155.5 103.5t191 36q106 0 194.5 -37t151 -104.5t97.5 -161t35 -205.5q0 -139 -44.5 -238.5t-114 -164t-157.5 -95.5t-176 -31h-2q-100 0 -186 36t-150.5 101.5t-101.5 161t-37 211.5zM260 494q0 -82 21.5 -152t61.5 -121t94.5 -79.5 t119.5 -28.5h2q63 0 118.5 28.5t96.5 79.5t63.5 123t22.5 156q0 63 -16.5 129.5t-52 122t-92 91.5t-136.5 36t-137 -34t-94 -88.5t-54.5 -124t-17.5 -138.5zM457 1112l180 293h197l-250 -293h-127z" />
<glyph unicode="&#xf4;" horiz-adv-x="1124" d="M78 487q0 125 39 222.5t105.5 165t155.5 103.5t191 36q106 0 194.5 -37t151 -104.5t97.5 -161t35 -205.5q0 -139 -44.5 -238.5t-114 -164t-157.5 -95.5t-176 -31h-2q-100 0 -186 36t-150.5 101.5t-101.5 161t-37 211.5zM260 494q0 -82 21.5 -152t61.5 -121t94.5 -79.5 t119.5 -28.5h2q63 0 118.5 28.5t96.5 79.5t63.5 123t22.5 156q0 63 -16.5 129.5t-52 122t-92 91.5t-136.5 36t-137 -34t-94 -88.5t-54.5 -124t-17.5 -138.5zM309 1112l193 293h119l196 -293h-135l-119 193h-4l-119 -193h-131z" />
<glyph unicode="&#xf5;" horiz-adv-x="1124" d="M78 487q0 125 39 222.5t105.5 165t155.5 103.5t191 36q106 0 194.5 -37t151 -104.5t97.5 -161t35 -205.5q0 -139 -44.5 -238.5t-114 -164t-157.5 -95.5t-176 -31h-2q-100 0 -186 36t-150.5 101.5t-101.5 161t-37 211.5zM260 494q0 -82 21.5 -152t61.5 -121t94.5 -79.5 t119.5 -28.5h2q63 0 118.5 28.5t96.5 79.5t63.5 123t22.5 156q0 63 -16.5 129.5t-52 122t-92 91.5t-136.5 36t-137 -34t-94 -88.5t-54.5 -124t-17.5 -138.5zM313 1149q0 94 33 145q39 59 100 60q37 0 66 -13.5t66 -33.5q23 -14 45 -24.5t47 -10.5q23 0 36 17.5t17 68.5h90 q2 -94 -31.5 -145.5t-105.5 -51.5q-35 0 -64.5 13.5t-60.5 31.5q-31 16 -51.5 25.5t-40.5 9.5q-23 0 -36 -24.5t-17 -67.5h-93z" />
<glyph unicode="&#xf6;" horiz-adv-x="1124" d="M78 487q0 125 39 222.5t105.5 165t155.5 103.5t191 36q106 0 194.5 -37t151 -104.5t97.5 -161t35 -205.5q0 -139 -44.5 -238.5t-114 -164t-157.5 -95.5t-176 -31h-2q-100 0 -186 36t-150.5 101.5t-101.5 161t-37 211.5zM260 494q0 -82 21.5 -152t61.5 -121t94.5 -79.5 t119.5 -28.5h2q63 0 118.5 28.5t96.5 79.5t63.5 123t22.5 156q0 63 -16.5 129.5t-52 122t-92 91.5t-136.5 36t-137 -34t-94 -88.5t-54.5 -124t-17.5 -138.5zM274 1243q0 41 30 72t73 31q41 0 69.5 -30t28.5 -73q0 -41 -26.5 -71.5t-71.5 -30.5h-2q-45 0 -73 30.5t-28 71.5z M649 1243q0 41 29 72t74 31q41 0 69.5 -30t28.5 -73q0 -41 -26.5 -71.5t-73.5 -30.5h-2q-43 0 -71 30.5t-28 71.5z" />
<glyph unicode="&#xf7;" horiz-adv-x="1220" d="M80 485v123h1057v-123h-1057zM500 186q0 51 30.5 83t77.5 32q49 0 79 -31.5t30 -83.5q0 -47 -30 -79.5t-79 -32.5h-2q-47 0 -76.5 32.5t-29.5 79.5zM502 905q0 51 30.5 83t77.5 32q49 0 79 -32t30 -83q0 -47 -30 -79.5t-79 -32.5h-2q-47 0 -76.5 32.5t-29.5 79.5z" />
<glyph unicode="&#xf8;" horiz-adv-x="1124" d="M78 489q0 123 38 220.5t104.5 165t154.5 103.5t190 36h2q66 0 130.5 -17.5t119.5 -52.5l86 123l80 -55l-88 -127q72 -72 112 -168t40 -213q0 -137 -43 -236.5t-112 -164t-156 -95.5t-173 -31q-70 0 -134 17.5t-118 52.5l-90 -125l-76 62l86 122q-72 66 -112.5 163.5 t-40.5 219.5zM256 494q0 -66 16.5 -130.5t55.5 -117.5l4 -2l405 575q-70 59 -174 60q-82 0 -140 -35t-95 -90.5t-54.5 -124t-17.5 -135.5zM393 170q37 -31 78 -44t88 -13q70 0 128 28.5t99 79.5t63.5 122t22.5 155q0 51 -14 116.5t-55 124.5l-4 2z" />
<glyph unicode="&#xf9;" horiz-adv-x="1128" d="M143 412v579h181v-547q0 -141 50 -229t171 -88q92 0 152.5 52t84.5 114q16 39 17 92v606h180v-721q0 -78 2 -144.5t6 -125.5h-160l-10 162h-4q-16 -31 -45 -62.5t-70 -59.5t-94 -45.5t-119 -17.5q-59 0 -119.5 19.5t-109.5 69t-81 133.5t-32 213zM299 1405h197l180 -293 h-127z" />
<glyph unicode="&#xfa;" horiz-adv-x="1128" d="M143 412v579h181v-547q0 -141 50 -229t171 -88q92 0 152.5 52t84.5 114q16 39 17 92v606h180v-721q0 -78 2 -144.5t6 -125.5h-160l-10 162h-4q-16 -31 -45 -62.5t-70 -59.5t-94 -45.5t-119 -17.5q-59 0 -119.5 19.5t-109.5 69t-81 133.5t-32 213zM479 1112l180 293h197 l-250 -293h-127z" />
<glyph unicode="&#xfb;" horiz-adv-x="1128" d="M143 412v579h181v-547q0 -141 50 -229t171 -88q92 0 152.5 52t84.5 114q16 39 17 92v606h180v-721q0 -78 2 -144.5t6 -125.5h-160l-10 162h-4q-16 -31 -45 -62.5t-70 -59.5t-94 -45.5t-119 -17.5q-59 0 -119.5 19.5t-109.5 69t-81 133.5t-32 213zM311 1112l193 293h119 l196 -293h-135l-119 193h-4l-119 -193h-131z" />
<glyph unicode="&#xfc;" horiz-adv-x="1128" d="M143 412v579h181v-547q0 -141 50 -229t171 -88q92 0 152.5 52t84.5 114q16 39 17 92v606h180v-721q0 -78 2 -144.5t6 -125.5h-160l-10 162h-4q-16 -31 -45 -62.5t-70 -59.5t-94 -45.5t-119 -17.5q-59 0 -119.5 19.5t-109.5 69t-81 133.5t-32 213zM282 1243q0 41 30 72 t73 31q41 0 69.5 -30t28.5 -73q0 -41 -26.5 -71.5t-71.5 -30.5h-2q-45 0 -73 30.5t-28 71.5zM657 1243q0 41 29 72t74 31q41 0 69.5 -30t28.5 -73q0 -41 -26.5 -71.5t-73.5 -30.5h-2q-43 0 -71 30.5t-28 71.5z" />
<glyph unicode="&#xfd;" horiz-adv-x="964" d="M18 991h197l215 -585q18 -49 35.5 -103.5t30.5 -99.5h4q14 45 29.5 99t33.5 108l197 581h190l-270 -706q-49 -127 -91 -225.5t-82 -173t-81 -129t-86 -95.5q-68 -57 -127 -82.5t-94 -32.5l-45 152q35 10 75.5 31.5t81.5 56.5q37 29 78 80t74 121q6 14 10 23t4 20 q0 16 -14 45zM410 1112l180 293h197l-250 -293h-127z" />
<glyph unicode="&#xfe;" horiz-adv-x="1165" d="M150 -406v1778h180v-536h4q49 80 131 129t205 49q88 0 163.5 -35t133 -101.5t90.5 -159.5t33 -210q0 -135 -39 -235.5t-102.5 -166t-144.5 -97.5t-165 -32q-98 0 -178 41t-127 115h-4v-539h-180zM330 391q0 -23 4 -46t14 -44q31 -86 101.5 -134t162.5 -48 q133 0 214 103.5t81 283.5q0 74 -19.5 140.5t-56 115.5t-91 78.5t-124.5 29.5q-88 0 -161.5 -51t-106.5 -143q-6 -23 -12 -50.5t-6 -50.5v-184z" />
<glyph unicode="&#xff;" horiz-adv-x="964" d="M18 991h197l215 -585q18 -49 35.5 -103.5t30.5 -99.5h4q14 45 29.5 99t33.5 108l197 581h190l-270 -706q-49 -127 -91 -225.5t-82 -173t-81 -129t-86 -95.5q-68 -57 -127 -82.5t-94 -32.5l-45 152q35 10 75.5 31.5t81.5 56.5q37 29 78 80t74 121q6 14 10 23t4 20 q0 16 -14 45zM219 1243q0 41 30 72t73 31q41 0 69.5 -30t28.5 -73q0 -41 -26.5 -71.5t-71.5 -30.5h-2q-45 0 -73 30.5t-28 71.5zM594 1243q0 41 29 72t74 31q41 0 69.5 -30t28.5 -73q0 -41 -26.5 -71.5t-73.5 -30.5h-2q-43 0 -71 30.5t-28 71.5z" />
<glyph unicode="&#x152;" horiz-adv-x="1830" d="M74 680q0 170 50 304t140 227.5t215 142.5t275 49q53 0 97 -3t83 -7t70.5 -8.5t60.5 -4.5h659v-149h-567v-438h535v-148h-535v-495h598v-150h-706q-31 0 -65 -4t-71 -8q-39 -4 -80.5 -7.5t-89.5 -3.5q-162 0 -286.5 54.5t-209.5 148.5t-129 223t-44 277zM262 688 q0 -127 35 -230.5t100.5 -178t160.5 -115.5t218 -41q57 0 111.5 7t89.5 22v1075q-41 14 -92 22t-127 8q-115 0 -207 -40.5t-156.5 -116.5t-98.5 -180.5t-34 -231.5z" />
<glyph unicode="&#x153;" horiz-adv-x="1767" d="M78 492q0 121 37 218t101.5 164.5t150.5 104.5t186 37q127 0 226.5 -61.5t146.5 -176.5h4q55 121 150.5 179.5t211.5 58.5q119 0 197 -48t124 -119t63.5 -152t17.5 -146q0 -27 -1 -49.5t-5 -36.5l-674 2q0 -170 93 -259t236 -89q92 0 154 17.5t113 37.5l32 -127 q-31 -16 -68.5 -29.5t-80.5 -21.5t-87 -12t-85 -4q-129 0 -231.5 55t-161.5 178h-4q-29 -61 -71 -105.5t-92 -73t-106.5 -41.5t-113.5 -13q-98 0 -183.5 35.5t-146.5 102t-97 162t-36 212.5zM262 496q0 -80 21.5 -150t60.5 -121t93.5 -80.5t117.5 -29.5q66 0 119 27.5 t92 77.5t59.5 121t20.5 157q0 70 -17.5 139.5t-52.5 122.5t-90 87t-131 34h-2q-80 0 -136.5 -36t-90 -92.5t-49 -125t-15.5 -131.5zM1010 596h508q0 41 -9.5 92t-36 95t-74.5 74t-122 30q-68 0 -116 -28t-79.5 -71t-49 -94t-21.5 -98z" />
<glyph unicode="&#x178;" horiz-adv-x="1107" d="M25 1380h204l195 -381q39 -78 71.5 -145.5t65.5 -138.5h4q29 68 64 137.5t76 146.5l198 381h201l-461 -792v-588h-180v586zM272 1579q0 43 29 73.5t72 30.5t70.5 -29.5t27.5 -74.5q0 -41 -26.5 -71.5t-71.5 -30.5h-2q-43 0 -71 30.5t-28 71.5zM649 1579q0 43 29 73.5 t72 30.5t70.5 -29.5t27.5 -74.5q0 -41 -26.5 -71.5t-73.5 -30.5h-3q-43 0 -69.5 30.5t-26.5 71.5z" />
<glyph unicode="&#x2c6;" horiz-adv-x="614" d="M53 1112l193 293h119l196 -293h-135l-119 193h-4l-119 -193h-131z" />
<glyph unicode="&#x2dc;" horiz-adv-x="614" d="M57 1149q0 94 33 145q39 59 100 60q37 0 66 -13.5t66 -33.5q23 -14 45 -24.5t47 -10.5q23 0 36 17.5t17 68.5h90q2 -94 -31.5 -145.5t-105.5 -51.5q-35 0 -64.5 13.5t-60.5 31.5q-31 16 -51.5 25.5t-40.5 9.5q-23 0 -36 -24.5t-17 -67.5h-93z" />
<glyph unicode="&#x2000;" horiz-adv-x="851" />
<glyph unicode="&#x2001;" horiz-adv-x="1702" />
<glyph unicode="&#x2002;" horiz-adv-x="851" />
<glyph unicode="&#x2003;" horiz-adv-x="1702" />
<glyph unicode="&#x2004;" horiz-adv-x="567" />
<glyph unicode="&#x2005;" horiz-adv-x="425" />
<glyph unicode="&#x2006;" horiz-adv-x="283" />
<glyph unicode="&#x2007;" horiz-adv-x="283" />
<glyph unicode="&#x2008;" horiz-adv-x="212" />
<glyph unicode="&#x2009;" horiz-adv-x="340" />
<glyph unicode="&#x200a;" horiz-adv-x="94" />
<glyph unicode="&#x2010;" horiz-adv-x="628" d="M61 487v131h506v-131h-506z" />
<glyph unicode="&#x2011;" horiz-adv-x="628" d="M61 487v131h506v-131h-506z" />
<glyph unicode="&#x2012;" horiz-adv-x="628" d="M61 487v131h506v-131h-506z" />
<glyph unicode="&#x2013;" horiz-adv-x="1024" d="M61 459v123h902v-123h-902z" />
<glyph unicode="&#x2014;" horiz-adv-x="2048" d="M61 459v123h1926v-123h-1926z" />
<glyph unicode="&#x2018;" horiz-adv-x="423" d="M72 918q18 63 41.5 134.5t50 138t52.5 123t46 91.5l115 12q-16 -45 -33.5 -105.5t-34 -125t-31 -129t-22.5 -119.5z" />
<glyph unicode="&#x2019;" horiz-adv-x="423" d="M70 918q16 45 33.5 105t34 124.5t30.5 129t22 120.5l185 20q-18 -66 -42 -136.5t-50.5 -137t-52 -122.5t-46.5 -91z" />
<glyph unicode="&#x201a;" horiz-adv-x="423" d="M43 -242q16 45 33.5 105.5t34 125t31 129t22.5 120.5l184 20q-18 -66 -41.5 -136.5t-50.5 -137t-52.5 -123t-45.5 -90.5z" />
<glyph unicode="&#x201c;" horiz-adv-x="724" d="M72 918q18 63 41.5 134.5t50 138t52.5 123t46 91.5l115 12q-16 -45 -33.5 -105.5t-34 -125t-31 -129t-22.5 -119.5zM375 918q18 63 41.5 134.5t50.5 138t52.5 123t45.5 91.5l115 12q-16 -45 -34.5 -105.5t-35 -125t-30 -129t-21.5 -119.5z" />
<glyph unicode="&#x201d;" horiz-adv-x="724" d="M70 918q16 45 34.5 105t35 124.5t29.5 129t21 120.5l185 20q-18 -66 -42 -136.5t-50.5 -137t-52 -122.5t-46.5 -91zM373 918q16 45 33.5 105t34 124.5t30.5 129t23 120.5l184 20q-18 -66 -42 -136.5t-50.5 -137t-52 -122.5t-46.5 -91z" />
<glyph unicode="&#x201e;" horiz-adv-x="729" d="M41 -242q16 45 34.5 105.5t35 125t30 129t21.5 120.5l184 20q-18 -66 -41.5 -136.5t-50.5 -137t-52.5 -123t-45.5 -90.5zM344 -242q16 45 33.5 105.5t34 125t31 129t22.5 120.5l184 20q-18 -66 -41.5 -136.5t-50.5 -137t-52.5 -123t-45.5 -90.5z" />
<glyph unicode="&#x2022;" horiz-adv-x="577" d="M74 705q0 45 16 83.5t46 67.5t69 46.5t84 17.5t84 -16.5t67.5 -46.5t46 -68.5t17.5 -83.5t-17.5 -84t-46 -69t-67.5 -46.5t-84 -16.5h-2q-43 0 -82 16.5t-69 46.5t-46 68.5t-16 84.5z" />
<glyph unicode="&#x2026;" horiz-adv-x="2048" d="M219 106q0 55 35 92.5t88 37.5t87 -36t34 -94q0 -55 -34 -92t-89 -37h-2q-53 0 -86 37t-33 92zM899 106q0 55 35 92.5t88 37.5t87 -36t34 -94q0 -55 -34 -92t-89 -37h-2q-53 0 -86 37t-33 92zM1579 106q0 55 35 92.5t88 37.5t87 -36t34 -94q0 -55 -34 -92t-89 -37h-2 q-53 0 -86 37t-33 92z" />
<glyph unicode="&#x202f;" horiz-adv-x="340" />
<glyph unicode="&#x2039;" horiz-adv-x="522" d="M59 516l271 377h145l-272 -377l274 -377h-145z" />
<glyph unicode="&#x203a;" horiz-adv-x="522" d="M47 893h146l272 -377l-272 -377h-144l273 377z" />
<glyph unicode="&#x205f;" horiz-adv-x="425" />
<glyph unicode="&#x2122;" horiz-adv-x="1642" d="M31 1276v104h620v-104h-250v-711h-122v711h-248zM680 565l63 815h162l160 -442q16 -47 28.5 -97t28.5 -108h4q14 57 27.5 109.5t30.5 97.5l159 440h160l62 -815h-125l-33 492q-4 47 -2 104.5t0 116.5h-6q-16 -57 -33.5 -118.5t-36.5 -115.5l-170 -469h-94l-166 482 q-16 49 -30.5 106.5t-28.5 114.5h-6q-2 -59 -1 -112.5t-4 -108.5l-30 -492h-119z" />
<glyph unicode="&#xe000;" horiz-adv-x="993" d="M0 0v993h993v-993h-993z" />
</font>
</defs>
</svg>
