<?xml version="1.0" standalone="no"?>
<!DOCTYPE svg PUBLIC "-//W3C//DTD SVG 1.1//EN" "http://www.w3.org/Graphics/SVG/1.1/DTD/svg11.dtd" >
<svg xmlns="http://www.w3.org/2000/svg">
<metadata></metadata>
<defs>
<font id="geometric_415_literegular" horiz-adv-x="1024" >
<font-face units-per-em="2048" ascent="1638" descent="-410" />
<missing-glyph horiz-adv-x="583" />
<glyph horiz-adv-x="2048" />
<glyph horiz-adv-x="2048" />
<glyph unicode="&#xd;" horiz-adv-x="2048" />
<glyph unicode=" "  horiz-adv-x="583" />
<glyph unicode="&#x09;" horiz-adv-x="583" />
<glyph unicode="&#xa0;" horiz-adv-x="583" />
<glyph unicode="!" horiz-adv-x="638" d="M211 84q0 44 32 76.5t76 32.5q46 0 77.5 -31.5t31.5 -77.5q0 -44 -32.5 -76.5t-76.5 -32.5q-43 0 -75.5 33t-32.5 76zM223 1440l193 33q2 -39 2 -119q0 -339 -72 -977l-51 -2q-70 767 -72 1065z" />
<glyph unicode="&#x22;" horiz-adv-x="589" d="M94 881v553h117v-553h-117zM377 881v553h119v-553h-119z" />
<glyph unicode="#" horiz-adv-x="1574" d="M104 467l43 123h320l96 272h-342l43 123h344l168 471h146l-166 -471h260l168 471h143l-164 -471h307l-43 -123h-311l-94 -272h330l-43 -123h-332l-166 -469h-145l168 469h-265l-168 -469h-143l166 469h-320zM614 590h263l96 272h-264z" />
<glyph unicode="$" horiz-adv-x="1165" d="M143 268q108 -69 197.5 -107t187.5 -46v587l-53 25q-163 76 -239 173t-76 235q0 135 101 233.5t267 110.5v200h103v-200q142 -15 278 -90v-179q-140 106 -278 131v-522q387 -156 387 -448q0 -157 -105 -268.5t-282 -131.5v-256h-103v254q-164 3 -370 107zM307 1135 q0 -87 53 -149.5t168 -117.5v473q-100 -9 -160.5 -67t-60.5 -139zM631 121q110 22 171.5 89.5t61.5 164.5q0 179 -233 278v-532z" />
<glyph unicode="%" horiz-adv-x="1536" d="M53 1157q0 140 100 240t242 100t242 -99.5t100 -240.5q0 -142 -101 -242t-241 -100q-141 0 -241.5 100.5t-100.5 241.5zM184 1155q0 -87 63 -150t148 -63q87 0 149 61.5t62 151.5q0 91 -61.5 154t-149.5 63t-149.5 -64t-61.5 -153zM233 -47l947 1544h120l-944 -1544h-123 zM799 295q0 140 100 240t242 100t241 -99.5t99 -240.5q0 -142 -100 -242t-240 -100q-141 0 -241.5 100.5t-100.5 241.5zM930 293q0 -88 62 -151.5t147 -63.5q87 0 149 62.5t62 152.5t-61.5 152.5t-149.5 62.5t-148.5 -63t-60.5 -152z" />
<glyph unicode="&#x26;" horiz-adv-x="1421" d="M84 358q0 283 346 500q-178 200 -178 344q0 129 93.5 214t234.5 85q144 0 241 -90.5t97 -224.5q0 -96 -62.5 -181t-191.5 -169l397 -455q93 110 145 248l135 -56q-58 -163 -178 -309l232 -264h-203l-137 154q-254 -201 -510 -201q-203 0 -332 113.5t-129 291.5zM254 377 q0 -117 85.5 -195t215.5 -78q206 0 397 164l-417 471q-144 -93 -212.5 -179.5t-68.5 -182.5zM410 1206q0 -48 39 -115.5t114 -142.5q104 72 152.5 132.5t48.5 125.5q0 70 -51 118t-133 48q-72 0 -121 -46t-49 -120z" />
<glyph unicode="'" horiz-adv-x="305" d="M94 881v553h117v-553h-117z" />
<glyph unicode="(" horiz-adv-x="663" d="M127 575q0 433 283 875h159q-145 -240 -216.5 -449t-71.5 -426t71.5 -426.5t216.5 -449.5h-159q-283 442 -283 876z" />
<glyph unicode=")" horiz-adv-x="663" d="M96 -301q145 239 216 449t71 427t-71 426.5t-216 448.5h158q283 -442 283 -875q0 -434 -283 -876h-158z" />
<glyph unicode="*" d="M109 1145l47 149l315 -143l-29 346h140l-29 -346l315 143l47 -149l-337 -72l235 -256l-129 -96l-172 305l-172 -305l-129 96l235 256z" />
<glyph unicode="+" horiz-adv-x="1705" d="M254 553v117h541v551h118v-551h539v-117h-539v-553h-118v553h-541z" />
<glyph unicode="," horiz-adv-x="583" d="M57 -340l187 518h180l-219 -518h-148z" />
<glyph unicode="-" horiz-adv-x="663" d="M76 379v143h512v-143h-512z" />
<glyph unicode="." horiz-adv-x="583" d="M182 84q0 44 32.5 76.5t76.5 32.5q46 0 78 -31.5t32 -77.5q0 -44 -33 -76.5t-77 -32.5q-43 0 -76 33t-33 76z" />
<glyph unicode="/" horiz-adv-x="569" d="M-27 -190l541 1687h109l-539 -1687h-111z" />
<glyph unicode="0" horiz-adv-x="1165" d="M80 725q0 358 140 565t362 207q223 0 363 -207.5t140 -564.5q0 -358 -139.5 -565t-363.5 -207q-223 0 -362.5 207t-139.5 565zM254 725q0 -293 89 -457t239 -164q151 0 240 163.5t89 457.5t-89 457.5t-240 163.5q-150 0 -239 -164t-89 -457z" />
<glyph unicode="1" horiz-adv-x="1165" d="M330 1321l22 129h342v-1450h-166v1321h-198z" />
<glyph unicode="2" horiz-adv-x="1165" d="M41 0l569 612q130 140 190 240.5t60 208.5q0 127 -85 210t-222 83q-118 0 -208.5 -76.5t-123.5 -208.5l-135 82q61 168 184.5 257t290.5 89q204 0 337.5 -126.5t133.5 -307.5q0 -73 -19.5 -140.5t-61.5 -135.5t-93.5 -130.5t-130.5 -144.5l-342 -354h721l-14 -158h-1051z " />
<glyph unicode="3" horiz-adv-x="1165" d="M88 291l156 49q86 -231 311 -231q139 0 224 82t85 212q0 139 -91.5 217t-260.5 78h-31v146h13q160 0 246.5 69.5t86.5 192.5q0 109 -73.5 179.5t-192.5 70.5q-175 0 -264 -168l-150 43q121 270 426 270q183 0 302.5 -114t119.5 -285q0 -214 -211 -322q128 -63 191 -156 t63 -223q0 -194 -135 -321t-348 -127q-167 0 -286.5 86t-180.5 252z" />
<glyph unicode="4" horiz-adv-x="1165" d="M23 315l854 1182h26v-1024h184v-158h-184v-315h-166v315h-714zM313 473h428l17 647z" />
<glyph unicode="5" horiz-adv-x="1165" d="M47 172l115 109q153 -170 354 -170q161 0 265 102t104 258q0 160 -105 261.5t-278 101.5q-77 0 -166 -28t-166 -81l25 725h763l-12 -143h-610l-14 -353q95 33 219 33q226 0 372 -144t146 -368q0 -145 -70.5 -265t-193 -188.5t-269.5 -68.5q-287 0 -479 219z" />
<glyph unicode="6" horiz-adv-x="1165" d="M82 436q0 204 151 444.5t465 569.5h224q-299 -287 -500 -582q112 31 194 31q196 0 329.5 -134t133.5 -335q0 -209 -140.5 -342t-367.5 -133q-213 0 -351 134t-138 347zM252 426q0 -138 92.5 -229t230.5 -91q150 0 243 90.5t93 231.5q0 139 -92 230.5t-237 91.5 q-144 0 -237 -92t-93 -232z" />
<glyph unicode="7" horiz-adv-x="1165" d="M98 1300v150h1020l-743 -1450h-193l682 1300h-766z" />
<glyph unicode="8" horiz-adv-x="1165" d="M104 373q0 141 68 239t213 164q-227 114 -227 338q0 164 118 270.5t308 106.5t307 -106t117 -271q0 -224 -228 -338q145 -66 214 -164t69 -239q0 -176 -135 -296t-344 -120t-344.5 120t-135.5 296zM276 387q0 -121 88 -201t220 -80t219.5 80t87.5 201q0 113 -76 188.5 t-231 118.5q-308 -85 -308 -307zM319 1114q0 -93 64 -159.5t201 -110.5q134 43 199 108.5t65 161.5q0 103 -73.5 168.5t-190.5 65.5t-191 -65.5t-74 -168.5z" />
<glyph unicode="9" horiz-adv-x="1165" d="M82 1020q0 209 140.5 343t367.5 134q212 0 350.5 -134.5t138.5 -348.5q0 -204 -151 -445.5t-465 -568.5h-225q308 299 501 582q-112 -31 -194 -31q-196 0 -329.5 134t-133.5 335zM250 1022q0 -139 92.5 -230.5t237.5 -91.5q144 0 236.5 93t92.5 233q0 137 -92 227 t-231 90q-150 0 -243 -90t-93 -231z" />
<glyph unicode=":" horiz-adv-x="630" d="M207 84q0 44 32 76.5t76 32.5q46 0 77.5 -31.5t31.5 -77.5q0 -44 -32.5 -76.5t-76.5 -32.5q-43 0 -75.5 33t-32.5 76zM207 795q0 44 32 76t76 32q46 0 77.5 -31t31.5 -77q0 -44 -32.5 -76.5t-76.5 -32.5q-43 0 -75.5 33t-32.5 76z" />
<glyph unicode=";" horiz-adv-x="630" d="M33 -340l186 518h180l-219 -518h-147zM211 795q0 44 32 76t76 32q46 0 77.5 -31t31.5 -77q0 -44 -32.5 -76.5t-76.5 -32.5q-43 0 -75.5 33t-32.5 76z" />
<glyph unicode="&#x3c;" horiz-adv-x="1705" d="M264 559v103l1178 483v-127l-1000 -408l1000 -405v-129z" />
<glyph unicode="=" horiz-adv-x="1705" d="M254 360v117h1198v-117h-1198zM254 743v117h1198v-117h-1198z" />
<glyph unicode="&#x3e;" horiz-adv-x="1705" d="M264 76v129l1000 405l-1000 408v127l1178 -483v-103z" />
<glyph unicode="?" horiz-adv-x="995" d="M190 1307l9 141q143 20 209 20q206 0 329 -112.5t123 -282.5q0 -188 -123 -315.5t-358 -179.5v-166l-143 -43v319q225 30 342.5 127t117.5 246q0 118 -83.5 193t-223.5 75q-60 0 -199 -22zM201 84q0 44 33 76.5t77 32.5q46 0 77.5 -31.5t31.5 -77.5q0 -44 -32.5 -76.5 t-76.5 -32.5q-43 0 -76.5 33t-33.5 76z" />
<glyph unicode="@" horiz-adv-x="2048" d="M113 522q0 331 200 578q145 176 348.5 267t454.5 91q167 0 312.5 -44.5t246.5 -123.5q129 -99 195.5 -230t66.5 -282q0 -171 -63 -310t-182 -235q-139 -112 -312 -112q-198 0 -198 155q0 3 1 11t1 12q-103 -178 -297 -178q-153 0 -233.5 85t-80.5 247q0 232 137.5 390 t331.5 158q182 0 250 -157l58 121h110l-141 -568q-12 -49 -12 -80q0 -90 110 -90q42 0 97.5 23t105.5 65q87 74 138.5 194.5t51.5 256.5q0 173 -86.5 306.5t-249 208.5t-378.5 75q-338 0 -572 -205q-282 -246 -282 -637q0 -173 60 -304t187 -230q100 -79 239 -123.5 t296 -44.5q171 0 334 48t297 140l45 -66q-296 -221 -660 -221q-383 0 -624 185q-303 233 -303 624zM713 446q0 -110 51 -169.5t145 -59.5q101 0 182.5 70t110.5 186l60 242q-17 90 -72 140t-135 50q-147 0 -244.5 -132t-97.5 -327z" />
<glyph unicode="A" horiz-adv-x="1327" d="M-25 0l678 1487h21l676 -1487h-187l-162 369h-686l-161 -369h-179zM379 508h561l-278 639z" />
<glyph unicode="B" horiz-adv-x="1218" d="M195 0v1450h372q242 0 369 -90t127 -250q0 -243 -262 -326q299 -80 299 -372q0 -196 -154.5 -304t-453.5 -108h-297zM362 141h170q188 0 291 75.5t103 211.5q0 129 -102.5 203t-293.5 74h-168v-564zM362 842h189q162 0 253 67t91 181q0 116 -87.5 169.5t-268.5 53.5h-177 v-471z" />
<glyph unicode="C" horiz-adv-x="1327" d="M86 725q0 165 56 309t153 246t232.5 160.5t289.5 58.5q226 0 424 -137l-18 -180q-191 161 -404 161q-242 0 -400.5 -174.5t-158.5 -443.5q0 -131 41.5 -244.5t114 -194.5t175.5 -127t222 -46q227 0 444 184l-14 -203q-195 -141 -432 -141q-252 0 -446 158 q-134 108 -206.5 267t-72.5 347z" />
<glyph unicode="D" horiz-adv-x="1464" d="M195 0v1450h317q206 0 370.5 -52t273.5 -147.5t166.5 -229t57.5 -296.5q0 -202 -90.5 -358.5t-267.5 -257.5q-109 -62 -230 -85.5t-280 -23.5h-317zM365 160h178q316 0 488.5 151t172.5 414t-173 415t-488 152h-178v-1132z" />
<glyph unicode="E" horiz-adv-x="1128" d="M195 0v1450h796v-145h-629v-474h543v-147h-543v-528h637v-156h-804z" />
<glyph unicode="F" horiz-adv-x="1095" d="M195 0v1450h806v-152h-636v-501h577v-152h-577v-645h-170z" />
<glyph unicode="G" horiz-adv-x="1497" d="M86 725q0 223 97 400t270.5 276.5t390.5 99.5q254 0 467 -125l-11 -184q-245 162 -456 162q-123 0 -231 -47t-185.5 -129t-122.5 -199.5t-45 -253.5q0 -177 71 -316t201.5 -217.5t298.5 -78.5q174 0 371 96v373h-436v149h608v-631q-303 -149 -538 -149 q-216 0 -387.5 99.5t-267 276t-95.5 398.5z" />
<glyph unicode="H" horiz-adv-x="1536" d="M195 0v1450h170v-606h806v606h170v-1450h-170v688h-806v-688h-170z" />
<glyph unicode="I" horiz-adv-x="567" d="M197 0v1450h172v-1450h-172z" />
<glyph unicode="J" horiz-adv-x="757" d="M18 180q94 -49 175 -49q125 0 179 95.5t54 297.5v926h172v-1001q0 -227 -111.5 -352.5t-300.5 -125.5q-61 0 -155 23z" />
<glyph unicode="K" horiz-adv-x="1337" d="M195 0v1450h170v-698l692 698h221l-690 -696l782 -754h-237l-768 729v-729h-170z" />
<glyph unicode="L" horiz-adv-x="1052" d="M195 0v1450h172v-1294h682v-156h-854z" />
<glyph unicode="M" horiz-adv-x="1763" d="M72 0l295 1497h16l500 -1178l501 1178h17l287 -1497h-170l-185 999l-440 -1048h-23l-446 1044l-193 -995h-159z" />
<glyph unicode="N" horiz-adv-x="1550" d="M195 0v1497h22l971 -1135v1088h168v-1497h-23l-971 1134v-1087h-167z" />
<glyph unicode="O" horiz-adv-x="1593" d="M86 725q0 329 209 553q99 105 230 162t272 57t270.5 -57t230.5 -164q209 -224 209 -551q0 -274 -145 -475q-101 -140 -250.5 -218.5t-314.5 -78.5q-140 0 -271 57.5t-231 163.5q-209 224 -209 551zM260 725q0 -173 71.5 -313.5t194.5 -219.5t271 -79t270 78t193 218.5 t71 315.5t-71 315.5t-193 218.5t-270 78t-271 -78.5t-194.5 -219t-71.5 -314.5z" />
<glyph unicode="P" horiz-adv-x="1175" d="M195 0v1450h307q155 0 260.5 -21t191.5 -83q81 -58 124.5 -143.5t43.5 -180.5q0 -215 -159 -337t-457 -122q-61 0 -141 2v-565h-170zM365 709h147q216 0 327 78.5t111 226.5q0 157 -114.5 226t-352.5 69h-118v-600z" />
<glyph unicode="Q" horiz-adv-x="1593" d="M84 719q0 277 147 481q101 141 250.5 219t315.5 78q141 0 270.5 -57t230.5 -164q100 -106 154.5 -245.5t54.5 -289.5q0 -203 -76 -364.5t-219 -267.5q-92 -67 -196 -103.5t-203 -36.5q-37 0 -113 6l-6 -16q47 -19 136.5 -58t141.5 -60t125.5 -46t142 -36t138.5 -11h13 l-33 -143q-223 6 -463 114q-58 26 -168.5 82.5t-207 100t-191.5 71.5l61 119q-147 104 -226 266.5t-79 360.5zM260 725q0 -173 71.5 -313.5t194.5 -219.5t271 -79t270 78t193 218.5t71 315.5t-71 315.5t-193 218.5t-270 78t-271 -78.5t-194.5 -219t-71.5 -314.5z" />
<glyph unicode="R" horiz-adv-x="1294" d="M195 0v1450h307q308 0 464 -109t156 -313q0 -156 -102 -268.5t-277 -141.5l527 -618h-217l-506 596h-182v-596h-170zM365 729h147q216 0 327 76.5t111 218.5q0 152 -114.5 218.5t-352.5 66.5h-118v-580z" />
<glyph unicode="S" horiz-adv-x="1110" d="M109 264q128 -78 227.5 -116.5t193.5 -38.5q138 0 222 71.5t84 186.5q0 55 -18.5 99t-58.5 80.5t-88.5 65.5t-121.5 62l-100 45q-324 148 -324 409q0 160 116.5 264.5t303.5 104.5q184 0 346 -98v-185q-184 138 -354 138q-116 0 -185 -60t-69 -155q0 -90 65.5 -156.5 t206.5 -128.5l102 -45q169 -75 256.5 -187.5t87.5 -252.5q0 -182 -128.5 -299t-335.5 -117q-198 0 -414 110z" />
<glyph unicode="T" horiz-adv-x="1218" d="M10 1294v156h1198v-156h-512v-1294h-174v1294h-512z" />
<glyph unicode="U" horiz-adv-x="1492" d="M178 575v875h172v-848q0 -243 103.5 -366t304.5 -123q198 0 300.5 124.5t102.5 370.5v842h156v-870q0 -299 -151.5 -463t-407.5 -164q-275 0 -427.5 160.5t-152.5 461.5z" />
<glyph unicode="V" horiz-adv-x="1261" d="M-12 1450h184l461 -1133l473 1133h170l-637 -1507h-25z" />
<glyph unicode="W" horiz-adv-x="1810" d="M14 1450h181l342 -1079l378 1126h19l354 -1126l340 1079h170l-510 -1511h-20l-350 1124l-377 -1124h-23z" />
<glyph unicode="X" horiz-adv-x="1441" d="M31 0l590 752l-537 698h211l434 -563l442 563h197l-543 -690l580 -760h-211l-475 625l-490 -625h-198z" />
<glyph unicode="Y" horiz-adv-x="1232" d="M-45 1450h201l450 -666l486 666h190l-596 -811v-639h-172v625z" />
<glyph unicode="Z" horiz-adv-x="1327" d="M72 0l882 1298h-755l22 152h1026l-880 -1296h870l-25 -154h-1140z" />
<glyph unicode="[" horiz-adv-x="663" d="M176 -301v1751h438v-90h-284v-1571h284v-90h-438z" />
<glyph unicode="\" horiz-adv-x="569" d="M-27 1497h109l541 -1687h-109z" />
<glyph unicode="]" horiz-adv-x="663" d="M51 -211h283v1571h-283v90h436v-1751h-436v90z" />
<glyph unicode="^" horiz-adv-x="2048" d="M422 901l520 557h162l520 -557h-158l-442 438l-442 -438h-160z" />
<glyph unicode="_" d="M0 -365h1024v-118h-1024v118z" />
<glyph unicode="`" d="M262 1403h178l209 -348h-106z" />
<glyph unicode="a" horiz-adv-x="1118" d="M72 438q0 221 131.5 356.5t351.5 135.5q112 0 252 -45l162 16v-702q0 -86 18 -199l-143 -43q-14 37 -25 96q-168 -94 -309 -94q-193 0 -315.5 132.5t-122.5 346.5zM238 434q0 -164 83.5 -258t221.5 -94q103 0 264 84v577q-127 62 -234 62q-151 0 -243 -101.5t-92 -269.5z " />
<glyph unicode="b" horiz-adv-x="1118" d="M147 -43v1470l162 43v-641q136 103 309 103q183 0 304.5 -131.5t121.5 -339.5q0 -225 -137 -363.5t-362 -138.5q-132 0 -260 64zM309 147q125 -61 234 -61q151 0 243.5 101.5t92.5 269.5q0 162 -82.5 257t-216.5 95q-136 0 -271 -123v-539z" />
<glyph unicode="c" horiz-adv-x="962" d="M74 440q0 228 136 366t365 138q156 0 324 -80l-20 -145q-162 90 -301 90q-156 0 -249 -96t-93 -258q0 -167 91 -264t240 -97q163 0 340 137l-22 -176q-158 -96 -336 -96q-210 0 -342.5 135t-132.5 346z" />
<glyph unicode="d" horiz-adv-x="1118" d="M72 422q0 222 143.5 368t359.5 146q123 0 232 -59v550l162 43v-1470l-140 -43l-10 109q-154 -109 -313 -109q-189 0 -311.5 130.5t-122.5 334.5zM238 434q0 -160 81.5 -256t204.5 -96q151 0 283 123v538q-127 62 -234 62q-151 0 -243 -101.5t-92 -269.5z" />
<glyph unicode="e" horiz-adv-x="1042" d="M78 422q0 229 140.5 374.5t350.5 145.5q187 0 297.5 -112.5t110.5 -311.5q0 -6 -1 -19t-1 -20l-19 -41l-720 -24q14 -155 96 -238.5t221 -83.5q173 0 369 158l-9 -162q-169 -129 -368 -129q-204 0 -335.5 130.5t-131.5 332.5zM246 528l581 23q-4 125 -77.5 198.5 t-188.5 73.5q-118 0 -206.5 -81.5t-108.5 -213.5z" />
<glyph unicode="f" horiz-adv-x="602" d="M-4 772v129h188v152q0 272 199 387l244 30v-73q-160 -27 -218.5 -115t-58.5 -270v-111h252v-129h-252v-772h-166v772h-188z" />
<glyph unicode="g" horiz-adv-x="1118" d="M72 438q0 219 130.5 355.5t342.5 136.5q114 0 307 -51l117 22v-788q0 -138 -12.5 -221t-55.5 -150q-56 -85 -158 -131.5t-239 -46.5q-174 0 -346 90l-27 196l121 -79q43 -28 115.5 -49t142.5 -21q142 0 219.5 70.5t77.5 201.5v70q-147 -84 -291 -84q-199 0 -321.5 131.5 t-122.5 347.5zM238 434q0 -164 83.5 -258t221.5 -94q103 0 264 84v577q-127 62 -234 62q-151 0 -243 -101.5t-92 -269.5z" />
<glyph unicode="h" horiz-adv-x="1128" d="M147 0v1427l162 43v-753q67 99 167.5 154t207.5 55q152 0 234.5 -94t82.5 -275v-557h-161v537q0 126 -46 186.5t-147 60.5q-63 0 -122 -22.5t-108 -65.5t-78.5 -114.5t-29.5 -161.5v-420h-162z" />
<glyph unicode="i" horiz-adv-x="468" d="M115 1235q0 51 33.5 86t84.5 35t86 -35t35 -86t-35 -85t-86 -34q-50 0 -84 34t-34 85zM152 0v901l165 43v-944h-165z" />
<glyph unicode="j" horiz-adv-x="468" d="M16 -432q92 99 125 192.5t33 227.5v913l166 43v-946q0 -266 -92 -397zM137 1235q0 51 34 86t85 35t86 -35t35 -86t-35 -85t-86 -34q-50 0 -84.5 34t-34.5 85z" />
<glyph unicode="k" horiz-adv-x="976" d="M147 0v1427l162 43v-1470h-162zM311 496l398 405h182l-391 -395l530 -506h-209z" />
<glyph unicode="l" horiz-adv-x="468" d="M152 0v1427l165 43v-1470h-165z" />
<glyph unicode="m" horiz-adv-x="1726" d="M147 0v901h158v-180q166 205 352 205q101 0 175 -54.5t106 -154.5q90 106 176.5 157.5t183.5 51.5q291 0 291 -369v-557h-159v537q0 127 -42 186t-139 59q-56 0 -108.5 -22t-97 -64.5t-71 -114t-26.5 -161.5v-420h-155v537q0 126 -42.5 185.5t-138.5 59.5 q-56 0 -108.5 -22t-97 -64.5t-71 -114t-26.5 -161.5v-420h-160z" />
<glyph unicode="n" horiz-adv-x="1128" d="M147 0v901h162v-182q165 207 375 207q153 0 235 -93.5t82 -275.5v-557h-161v537q0 126 -46 186.5t-147 60.5q-63 0 -122 -22.5t-108 -65.5t-78.5 -114.5t-29.5 -161.5v-420h-162z" />
<glyph unicode="o" horiz-adv-x="1110" d="M74 451q0 216 137 353.5t344 137.5q208 0 344.5 -138t136.5 -353q0 -216 -136.5 -354t-344.5 -138q-207 0 -344 138.5t-137 353.5zM238 451q0 -169 88 -271t227 -102q140 0 228.5 102.5t88.5 270.5t-88.5 270t-228.5 102q-139 0 -227 -101.5t-88 -270.5z" />
<glyph unicode="p" horiz-adv-x="1112" d="M147 -436v1337h162v-45q155 76 283 76q206 0 329 -131t123 -348q0 -221 -131.5 -356.5t-351.5 -135.5q-112 0 -252 45v-399zM309 147q125 -61 234 -61q151 0 243.5 101.5t92.5 269.5q0 164 -83 258t-221 94q-105 0 -266 -84v-578z" />
<glyph unicode="q" horiz-adv-x="1089" d="M72 426q0 222 145.5 359t386.5 137q89 0 203 -21h162v-1294l-162 -43v436q-136 -43 -262 -43q-218 0 -345.5 128.5t-127.5 340.5zM238 434q0 -168 85.5 -261t239.5 -93q119 0 244 61v627q-121 39 -201 39q-174 0 -271 -99t-97 -274z" />
<glyph unicode="r" horiz-adv-x="649" d="M145 0v901h162v-137q163 166 365 166v-162q-201 -15 -281 -89.5t-80 -242.5v-436h-166z" />
<glyph unicode="s" horiz-adv-x="819" d="M76 74l20 151q184 -135 326 -135q74 0 119 35t45 90q0 32 -10 55.5t-35 41.5t-48.5 30t-68.5 31q-7 3 -10 4l-86 35q-123 50 -177.5 107.5t-54.5 156.5q0 123 77 195.5t210 72.5q150 0 313 -94l-32 -141q-153 112 -277 112q-65 0 -103 -32t-38 -84q0 -59 37 -88t143 -70 l72 -29q128 -50 186.5 -115t58.5 -165q0 -128 -86.5 -204.5t-236.5 -76.5q-190 0 -344 117z" />
<glyph unicode="t" horiz-adv-x="602" d="M-4 772v129h188v279l166 43v-322h252v-129h-252v-407q0 -66 3 -107t13.5 -85t31 -74.5t56 -60t87.5 -56.5h-230q-36 25 -60.5 55.5t-37.5 58.5t-19.5 72.5t-8 79t-1.5 96.5v428h-188z" />
<glyph unicode="u" horiz-adv-x="1128" d="M137 326v575h162v-557q0 -126 46 -186t147 -60q63 0 122 22.5t107.5 65.5t78 115t29.5 162v438h162v-901l-147 -43l-10 203q-176 -203 -379 -203q-154 0 -236 94t-82 275z" />
<glyph unicode="v" horiz-adv-x="868" d="M-2 901h178l270 -647l293 647h140l-435 -944h-34z" />
<glyph unicode="w" horiz-adv-x="1384" d="M10 901h172l254 -625l266 668h19l264 -668l252 625h139l-389 -944h-35l-258 629l-256 -629h-35z" />
<glyph unicode="x" horiz-adv-x="882" d="M-18 0l372 463l-344 438h199l244 -313l256 313h161l-338 -418l377 -483h-192l-285 360l-289 -360h-161z" />
<glyph unicode="y" horiz-adv-x="868" d="M-2 901h174l270 -708l297 708h140l-430 -993q-105 -238 -164 -344h-179q65 67 110.5 142t90.5 173l58 125z" />
<glyph unicode="z" horiz-adv-x="829" d="M-14 0l573 772h-514l29 129h755l-571 -774h565l-18 -127h-819z" />
<glyph unicode="{" d="M172 467v127q8 0 23 -1t22 -1q136 0 190 62t54 214v244q0 134 18 203t82 110q80 52 262 52h35v-127q-8 0 -23 1t-22 1q-67 0 -107 -12t-62.5 -42.5t-30 -73.5t-7.5 -116v-242q0 -156 -39.5 -230t-158.5 -106q119 -32 158.5 -105.5t39.5 -229.5v-242q0 -73 8 -116 t31.5 -73.5t64.5 -41.5t109 -11h39v-125h-35q-182 0 -262 52q-63 41 -81.5 111t-18.5 202v244q0 150 -54 212t-190 62q-7 0 -22 -1t-23 -1z" />
<glyph unicode="|" d="M449 -483v2048h126v-2048h-126z" />
<glyph unicode="}" d="M166 -289q8 0 23 -1t22 -1q66 0 106.5 12t63 43.5t30 74.5t7.5 116v240q0 156 39.5 229.5t158.5 105.5q-119 32 -158.5 106t-39.5 230v242q0 73 -8 116.5t-31.5 74t-64.5 42t-109 11.5h-39v125h35q184 0 264 -52q62 -41 80 -110t18 -203v-244q0 -151 55 -213.5t191 -62.5 q7 0 22 1t23 1v-127q-8 0 -23 1t-22 1q-136 0 -191 -62.5t-55 -213.5v-242q0 -134 -18 -204.5t-80 -111.5q-43 -29 -103.5 -39t-154.5 -10h-41v125z" />
<glyph unicode="~" horiz-adv-x="1705" d="M178 461v133q210 145 387 145q50 0 104.5 -10.5t91 -22t95.5 -32.5q13 -5 47 -17.5t49.5 -18t45.5 -14.5t49.5 -13t46 -7.5t51.5 -3.5q88 0 179.5 39t205.5 119v-131q-202 -144 -387 -144q-88 0 -191 35q-29 10 -99 35t-104.5 35.5t-87.5 21.5t-98 11q-87 0 -178.5 -39.5 t-206.5 -120.5z" />
<glyph unicode="&#xa1;" horiz-adv-x="638" d="M211 1364q0 44 32 76.5t76 32.5q43 0 76 -33t33 -76q0 -44 -32.5 -77.5t-76.5 -33.5q-45 0 -76.5 32.5t-31.5 78.5zM221 90q0 322 74 981h51q70 -737 72 -1063l-195 -33q-2 37 -2 115z" />
<glyph unicode="&#xa2;" horiz-adv-x="1165" d="M141 479q0 227 137.5 365.5t360.5 138.5q50 0 125 -10l86 254h113l-95 -283q57 -20 101 -41l-23 -143q-55 32 -121 57l-227 -682q12 -2 39 -2q160 0 338 137l-21 -176q-154 -96 -325 -96q-14 0 -76 4l-88 -270h-113l94 293q-145 54 -225 173.5t-80 280.5zM303 485 q0 -118 50 -201t141 -122l227 682q-50 6 -78 6q-154 0 -247 -99t-93 -266z" />
<glyph unicode="&#xa3;" horiz-adv-x="1165" d="M92 -35v182q114 56 175 153t61 224q0 51 -27 178h-209v103h184q-47 180 -47 289q0 179 110.5 287t291.5 108q150 0 256.5 -76t150.5 -215l-153 -43q-59 182 -246 182q-110 0 -176 -65.5t-66 -179.5q0 -83 49 -287h363v-103h-344q16 -98 16 -165q0 -161 -69 -293 q207 -115 319 -115q74 0 124.5 40.5t94.5 129.5l144 -63q-53 -139 -132.5 -206t-195.5 -67q-178 0 -440 168q-119 -137 -234 -166z" />
<glyph unicode="&#xa4;" horiz-adv-x="1165" d="M0 512l23 111h122q-4 33 -4 102q0 61 6 117h-147l23 110h143q54 246 213 395.5t371 149.5q191 0 356 -137l-19 -176q-158 162 -335 162q-153 0 -261.5 -106.5t-150.5 -287.5h657l-22 -110h-653q-7 -65 -7 -117q0 -69 4 -102h596l-22 -111h-555q41 -191 144.5 -299.5 t262.5 -108.5q193 0 375 185l-16 -201q-156 -135 -369 -135q-120 1 -217 41t-166.5 114.5t-116.5 175t-73 228.5h-162z" />
<glyph unicode="&#xa5;" horiz-adv-x="1208" d="M-43 1450h203l454 -684l480 684h190l-369 -498h220v-110h-293l-148 -219h441v-111h-445v-512h-174v512h-444v111h444l-149 219h-295v110h221z" />
<glyph unicode="&#xa6;" d="M449 -350v758h126v-758h-126zM449 674v758h126v-758h-126z" />
<glyph unicode="&#xa7;" d="M141 799q0 103 58.5 161t162.5 58h7q-119 128 -119 244q0 103 70.5 169t185.5 66q85 0 162.5 -46t122.5 -126l-101 -70q-40 62 -87.5 94.5t-90.5 32.5q-58 0 -94.5 -33t-36.5 -83q0 -51 47 -109.5t166 -175.5q80 -79 124 -126.5t87 -105.5t60.5 -109.5t17.5 -107.5 q0 -88 -62.5 -145.5t-167.5 -58.5q121 -136 121 -269q0 -116 -75.5 -182.5t-186.5 -66.5q-92 0 -174.5 47.5t-134.5 132.5l100 73q42 -63 97.5 -98t103.5 -35q62 0 101.5 37.5t39.5 89.5q0 59 -41.5 118t-134.5 155q-21 22 -62 64t-59 61t-50 53.5t-46.5 53t-37 47.5 t-32.5 49t-21.5 45t-15.5 48.5t-4 47.5zM270 815q0 -79 138 -229q150 -162 229 -162q47 0 80 31.5t33 79.5q0 44 -27 88.5t-88 115.5q-85 98 -144.5 144.5t-105.5 46.5q-44 0 -79.5 -34.5t-35.5 -80.5z" />
<glyph unicode="&#xa8;" d="M238 1212q0 40 29.5 70.5t68.5 30.5q40 0 70 -30.5t30 -70.5q0 -42 -29 -71t-71 -29q-41 0 -69.5 28.5t-28.5 71.5zM588 1212q0 40 30 70.5t70 30.5q39 0 68.5 -30.5t29.5 -70.5q0 -43 -28.5 -71.5t-69.5 -28.5q-42 0 -71 29t-29 71z" />
<glyph unicode="&#xa9;" horiz-adv-x="1705" d="M119 725q0 146 56.5 280t162.5 242q102 103 233.5 158t280.5 55q150 0 284.5 -55t239.5 -160q103 -103 157 -236.5t54 -283.5q0 -308 -211 -516q-109 -106 -244 -162.5t-280 -56.5q-299 0 -516 217q-106 106 -161.5 239t-55.5 279zM207 725q0 -127 49 -244t141 -211 q92 -92 209 -141t246 -49q128 0 248 49.5t215 142.5q186 183 186 453q0 131 -48.5 249.5t-139.5 209.5q-188 188 -461 188q-270 0 -453 -186q-93 -95 -142.5 -214t-49.5 -247zM465 721q0 210 108 333.5t287 123.5q137 0 230 -75t104 -192h-129q-15 77 -71 120.5t-138 43.5 q-117 0 -182.5 -91.5t-65.5 -260.5q0 -162 67 -253t181 -91q87 0 145.5 48t73.5 134h129q-11 -128 -108.5 -207.5t-245.5 -79.5q-174 0 -279.5 120.5t-105.5 326.5z" />
<glyph unicode="&#xaa;" horiz-adv-x="839" d="M53 1128q0 155 99 250t264 95q78 0 190 -33l121 12v-491q0 -61 14 -140l-108 -30q-15 42 -19 67q-124 -65 -231 -65q-146 0 -238 92.5t-92 242.5zM178 1124q0 -114 63 -179.5t167 -65.5q80 0 198 59v403q-93 43 -176 43q-113 0 -182.5 -71t-69.5 -189z" />
<glyph unicode="&#xab;" horiz-adv-x="923" d="M88 451l254 313h152l-244 -313l244 -314h-152zM428 451l254 313h154l-246 -313l246 -314h-154z" />
<glyph unicode="&#xac;" horiz-adv-x="1705" d="M254 741v117h1198v-502h-115v385h-1083z" />
<glyph unicode="&#xad;" horiz-adv-x="663" d="M76 379v143h512v-143h-512z" />
<glyph unicode="&#xae;" horiz-adv-x="1705" d="M119 725q0 146 57 281.5t164 242.5q208 211 512 211q307 0 524 -217q102 -102 156.5 -236t54.5 -282q0 -309 -213 -516q-109 -106 -243.5 -162.5t-278.5 -56.5q-146 0 -279 56.5t-239 162.5q-104 104 -159.5 237t-55.5 279zM207 725q0 -127 49 -244t141 -211 q91 -93 208.5 -141.5t244.5 -48.5q270 0 463 190q188 185 188 451q0 133 -48 252t-138 209q-190 190 -463 190q-270 0 -451 -184q-95 -95 -144.5 -214t-49.5 -249zM561 317v840h311q351 0 351 -231q0 -88 -52.5 -148.5t-144.5 -75.5l188 -385h-157l-176 365h-179v-365h-141z M702 774h148q120 0 173.5 31.5t53.5 109.5q0 81 -55.5 115.5t-175.5 34.5h-144v-291z" />
<glyph unicode="&#xaf;" d="M254 1149v125h516v-125h-516z" />
<glyph unicode="&#xb0;" horiz-adv-x="673" d="M55 1171q0 119 82.5 201t200.5 82q117 0 200 -83t83 -200q0 -116 -83 -199t-202 -83q-118 0 -199.5 81.5t-81.5 200.5zM135 1171q0 -85 59.5 -143.5t143.5 -58.5q85 0 143 59t58 143t-58.5 142.5t-142.5 58.5t-143.5 -58.5t-59.5 -142.5z" />
<glyph unicode="&#xb1;" horiz-adv-x="1705" d="M254 41v117h1198v-117h-1198zM254 719v117h541v344h118v-344h539v-117h-539v-344h-118v344h-541z" />
<glyph unicode="&#xb2;" horiz-adv-x="770" d="M27 580l376 366q85 85 124.5 146t39.5 125q0 76 -55.5 126t-146.5 50q-77 0 -137 -46.5t-83 -125.5l-88 49q39 100 121.5 154.5t192.5 54.5q134 0 222.5 -76.5t88.5 -185.5q0 -83 -48.5 -156t-154.5 -174l-225 -213h475l-8 -94h-694z" />
<glyph unicode="&#xb3;" horiz-adv-x="770" d="M57 754l105 30q56 -139 205 -139q91 0 147.5 49.5t56.5 126.5q0 84 -60.5 131t-172.5 47h-21v86h9q105 0 163 42.5t58 115.5q0 65 -49.5 107.5t-126.5 42.5q-114 0 -174 -101l-99 27q78 162 281 162q121 0 199.5 -69t78.5 -171q0 -127 -139 -192q168 -76 168 -228 q0 -116 -89.5 -193t-229.5 -77q-110 0 -189.5 51.5t-120.5 151.5z" />
<glyph unicode="&#xb4;" d="M375 1055l209 348h178l-281 -348h-106z" />
<glyph unicode="&#xb5;" horiz-adv-x="1128" d="M-111 -426l316 1495h157l-126 -596q-15 -68 -15 -137q0 -108 56.5 -167.5t160.5 -59.5q126 0 209 101.5t127 307.5l121 551h156l-162 -754q-23 -103 -23 -135q0 -65 72 -65q17 0 35 2l-27 -125q-44 -10 -92 -10q-70 0 -104.5 35t-40.5 112q-40 -69 -116 -108t-173 -39 q-174 0 -262 137l-113 -545h-156z" />
<glyph unicode="&#xb6;" d="M76 1130q0 156 106.5 252.5t286.5 96.5h479v-78h-125v-1401h-94v1401h-184v-1401h-94v782q-173 7 -274 102t-101 246z" />
<glyph unicode="&#xb7;" horiz-adv-x="583" d="M182 725q0 44 32.5 76.5t76.5 32.5q46 0 78 -31.5t32 -77.5q0 -44 -33 -76.5t-77 -32.5q-43 0 -76 33t-33 76z" />
<glyph unicode="&#xb8;" d="M262 -336q161 -37 248 -37q121 0 121 84q0 52 -32 75.5t-101 23.5q-18 0 -58 -3v193h72v-106h23q112 0 169.5 -45t57.5 -132q0 -89 -63.5 -135.5t-186.5 -46.5q-95 0 -250 41v88z" />
<glyph unicode="&#xb9;" horiz-adv-x="770" d="M217 1372l14 78h226v-870h-109v792h-131z" />
<glyph unicode="&#xba;" horiz-adv-x="833" d="M55 1137q0 151 103 247.5t258 96.5q158 0 260 -96.5t102 -247.5t-102 -247.5t-260 -96.5q-155 0 -258 96.5t-103 247.5zM178 1137q0 -118 67 -189t171 -71t170.5 71t66.5 189t-66.5 189t-170.5 71t-171 -71t-67 -189z" />
<glyph unicode="&#xbb;" horiz-adv-x="923" d="M88 137l244 314l-244 313h152l254 -313l-254 -314h-152zM428 137l246 314l-246 313h154l254 -313l-254 -314h-154z" />
<glyph unicode="&#xbc;" horiz-adv-x="1810" d="M207 1378l14 72h217v-811h-104v739h-127zM393 -47l901 1544h123l-899 -1544h-125zM1092 176l538 662h17v-574h116v-88h-116v-176h-105v176h-450zM1274 264h270l10 363z" />
<glyph unicode="&#xbd;" horiz-adv-x="1810" d="M207 1378l14 72h217v-811h-104v739h-127zM393 -47l901 1544h123l-899 -1544h-125zM1104 0l358 342q82 78 120 135t38 117q0 71 -54 117.5t-141 46.5q-74 0 -130 -43t-78 -117l-87 47q40 93 118.5 143t183.5 50q129 0 213 -70.5t84 -171.5q0 -79 -45.5 -146.5 t-147.5 -162.5l-217 -199h455l-9 -88h-661z" />
<glyph unicode="&#xbe;" horiz-adv-x="1810" d="M55 803l99 26q55 -129 196 -129q87 0 141 46t54 118q0 78 -58 122t-165 44h-19v82h8q101 0 156 38.5t55 106.5q0 62 -47 102t-121 40q-108 0 -168 -94l-94 24q78 150 268 150q116 0 191.5 -64t75.5 -160q0 -119 -133 -180q159 -69 159 -211q0 -108 -84.5 -180t-218.5 -72 q-106 0 -181.5 48.5t-113.5 142.5zM391 -47l901 1544h123l-899 -1544h-125zM1090 176l538 662h17v-574h116v-88h-116v-176h-105v176h-450zM1272 264h270l10 363z" />
<glyph unicode="&#xbf;" horiz-adv-x="995" d="M127 369q0 188 123 315.5t358 179.5v164l144 45v-321q-226 -31 -343.5 -126.5t-117.5 -244.5q0 -118 83.5 -193t223.5 -75q63 0 199 22l-9 -143q-136 -19 -210 -19q-206 0 -328.5 113t-122.5 283zM567 1356q0 44 32.5 77t76.5 33q43 0 76.5 -33.5t33.5 -76.5 q0 -44 -33 -76.5t-77 -32.5q-46 0 -77.5 31.5t-31.5 77.5z" />
<glyph unicode="&#xc0;" horiz-adv-x="1327" d="M-25 0l678 1487h21l676 -1487h-187l-162 369h-686l-161 -369h-179zM379 508h561l-278 639zM414 1958h178l209 -348h-107z" />
<glyph unicode="&#xc1;" horiz-adv-x="1327" d="M-25 0l678 1487h21l676 -1487h-187l-162 369h-686l-161 -369h-179zM379 508h561l-278 639zM526 1610l209 348h178l-280 -348h-107z" />
<glyph unicode="&#xc2;" horiz-adv-x="1327" d="M-25 0l678 1487h21l676 -1487h-187l-162 369h-686l-161 -369h-179zM377 1610l196 348h179l196 -348h-106l-178 243l-181 -243h-106zM379 508h561l-278 639z" />
<glyph unicode="&#xc3;" horiz-adv-x="1327" d="M-25 0l678 1487h21l676 -1487h-187l-162 369h-686l-161 -369h-179zM373 1667q22 91 73 138.5t125 47.5q36 0 60 -8l78 -28q37 -11 61 -11q71 0 96 72h88q-25 -94 -76 -143t-122 -49q-33 0 -66 10l-80 26q-27 9 -53 9q-68 0 -96 -64h-88zM379 508h561l-278 639z" />
<glyph unicode="&#xc4;" horiz-adv-x="1327" d="M-25 0l678 1487h21l676 -1487h-187l-162 369h-686l-161 -369h-179zM379 508h561l-278 639zM389 1767q0 40 29.5 70.5t68.5 30.5q40 0 70.5 -30.5t30.5 -70.5q0 -42 -29.5 -71t-71.5 -29q-41 0 -69.5 28.5t-28.5 71.5zM739 1767q0 40 30.5 70.5t70.5 30.5q39 0 68.5 -30.5 t29.5 -70.5q0 -43 -28.5 -71.5t-69.5 -28.5q-42 0 -71.5 29t-29.5 71z" />
<glyph unicode="&#xc5;" horiz-adv-x="1327" d="M-25 0l678 1487h21l676 -1487h-187l-162 369h-686l-161 -369h-179zM379 508h561l-278 639zM422 1729q0 102 71 172.5t173 70.5t172.5 -70.5t70.5 -172.5q0 -101 -71 -171.5t-172 -70.5t-172.5 70.5t-71.5 171.5zM522 1731q0 -60 42.5 -102t101.5 -42q60 0 100.5 42 t40.5 102q0 59 -40.5 100t-100.5 41q-59 0 -101.5 -41.5t-42.5 -99.5z" />
<glyph unicode="&#xc6;" horiz-adv-x="1849" d="M-45 0l842 1450h913v-145h-627v-474h543v-147h-543v-528h637v-156h-805v369h-567l-213 -369h-180zM428 508h487v797h-28z" />
<glyph unicode="&#xc7;" horiz-adv-x="1327" d="M86 725q0 165 56 309t153 246t232.5 160.5t289.5 58.5q226 0 424 -137l-18 -180q-191 161 -404 161q-242 0 -400.5 -174.5t-158.5 -443.5q0 -131 41.5 -244.5t114 -194.5t175.5 -127t222 -46q227 0 444 184l-14 -203q-195 -141 -432 -141q-252 0 -446 158 q-134 108 -206.5 267t-72.5 347zM528 -336q161 -37 248 -37q121 0 121 84q0 52 -32 75.5t-101 23.5q-16 0 -57 -3v193h71v-106h23q112 0 169.5 -45t57.5 -132q0 -89 -63.5 -135.5t-186.5 -46.5q-95 0 -250 41v88z" />
<glyph unicode="&#xc8;" horiz-adv-x="1128" d="M195 0v1450h796v-145h-629v-474h543v-147h-543v-528h637v-156h-804zM340 1958h178l209 -348h-106z" />
<glyph unicode="&#xc9;" horiz-adv-x="1128" d="M195 0v1450h796v-145h-629v-474h543v-147h-543v-528h637v-156h-804zM453 1610l209 348h178l-281 -348h-106z" />
<glyph unicode="&#xca;" horiz-adv-x="1128" d="M195 0v1450h796v-145h-629v-474h543v-147h-543v-528h637v-156h-804zM303 1610l197 348h178l196 -348h-106l-178 243l-180 -243h-107z" />
<glyph unicode="&#xcb;" horiz-adv-x="1128" d="M195 0v1450h796v-145h-629v-474h543v-147h-543v-528h637v-156h-804zM315 1767q0 40 29.5 70.5t69.5 30.5t70 -30.5t30 -70.5q0 -42 -29 -71t-71 -29t-70.5 28.5t-28.5 71.5zM666 1767q0 40 30 70.5t70 30.5q39 0 68.5 -30.5t29.5 -70.5q0 -43 -28.5 -71.5t-69.5 -28.5 q-42 0 -71 29t-29 71z" />
<glyph unicode="&#xcc;" horiz-adv-x="567" d="M35 1958h178l209 -348h-107zM197 0v1450h172v-1450h-172z" />
<glyph unicode="&#xcd;" horiz-adv-x="567" d="M147 1610l209 348h179l-281 -348h-107zM197 0v1450h172v-1450h-172z" />
<glyph unicode="&#xce;" horiz-adv-x="567" d="M-2 1610l197 348h178l196 -348h-106l-178 243l-181 -243h-106zM197 0v1450h172v-1450h-172z" />
<glyph unicode="&#xcf;" horiz-adv-x="567" d="M10 1767q0 40 29.5 70.5t69.5 30.5t70 -30.5t30 -70.5q0 -42 -29 -71t-71 -29q-41 0 -70 28.5t-29 71.5zM197 0v1450h172v-1450h-172zM360 1767q0 40 30.5 70.5t70.5 30.5q39 0 68.5 -30.5t29.5 -70.5q0 -43 -28.5 -71.5t-69.5 -28.5q-42 0 -71.5 29t-29.5 71z" />
<glyph unicode="&#xd0;" horiz-adv-x="1464" d="M-10 692v146h205v612h317q206 0 370.5 -52t273.5 -147.5t166.5 -229t57.5 -296.5q0 -202 -90.5 -358.5t-267.5 -257.5q-109 -62 -230 -85.5t-280 -23.5h-317v692h-205zM365 160h178q316 0 488.5 151t172.5 414t-173 415t-488 152h-178v-454h364v-146h-364v-532z" />
<glyph unicode="&#xd1;" horiz-adv-x="1550" d="M195 0v1497h22l971 -1135v1088h168v-1497h-23l-971 1134v-1087h-167zM502 1667q22 91 73 138.5t125 47.5q36 0 60 -8l78 -28q37 -11 61 -11q71 0 96 72h88q-25 -94 -76 -143t-122 -49q-33 0 -66 10l-80 26q-27 9 -53 9q-68 0 -96 -64h-88z" />
<glyph unicode="&#xd2;" horiz-adv-x="1593" d="M86 725q0 329 209 553q99 105 230 162t272 57t270.5 -57t230.5 -164q209 -224 209 -551q0 -274 -145 -475q-101 -140 -250.5 -218.5t-314.5 -78.5q-140 0 -271 57.5t-231 163.5q-209 224 -209 551zM260 725q0 -173 71.5 -313.5t194.5 -219.5t271 -79t270 78t193 218.5 t71 315.5t-71 315.5t-193 218.5t-270 78t-271 -78.5t-194.5 -219t-71.5 -314.5zM547 1958h178l209 -348h-107z" />
<glyph unicode="&#xd3;" horiz-adv-x="1593" d="M86 725q0 329 209 553q99 105 230 162t272 57t270.5 -57t230.5 -164q209 -224 209 -551q0 -274 -145 -475q-101 -140 -250.5 -218.5t-314.5 -78.5q-140 0 -271 57.5t-231 163.5q-209 224 -209 551zM260 725q0 -173 71.5 -313.5t194.5 -219.5t271 -79t270 78t193 218.5 t71 315.5t-71 315.5t-193 218.5t-270 78t-271 -78.5t-194.5 -219t-71.5 -314.5zM659 1610l209 348h179l-281 -348h-107z" />
<glyph unicode="&#xd4;" horiz-adv-x="1593" d="M86 725q0 329 209 553q99 105 230 162t272 57t270.5 -57t230.5 -164q209 -224 209 -551q0 -274 -145 -475q-101 -140 -250.5 -218.5t-314.5 -78.5q-140 0 -271 57.5t-231 163.5q-209 224 -209 551zM260 725q0 -173 71.5 -313.5t194.5 -219.5t271 -79t270 78t193 218.5 t71 315.5t-71 315.5t-193 218.5t-270 78t-271 -78.5t-194.5 -219t-71.5 -314.5zM510 1610l197 348h178l196 -348h-106l-178 243l-181 -243h-106z" />
<glyph unicode="&#xd5;" horiz-adv-x="1593" d="M86 725q0 329 209 553q99 105 230 162t272 57t270.5 -57t230.5 -164q209 -224 209 -551q0 -274 -145 -475q-101 -140 -250.5 -218.5t-314.5 -78.5q-140 0 -271 57.5t-231 163.5q-209 224 -209 551zM260 725q0 -173 71.5 -313.5t194.5 -219.5t271 -79t270 78t193 218.5 t71 315.5t-71 315.5t-193 218.5t-270 78t-271 -78.5t-194.5 -219t-71.5 -314.5zM506 1667q22 91 73.5 138.5t125.5 47.5q35 0 59 -8l78 -28q37 -11 61 -11q71 0 96 72h88q-25 -94 -76 -143t-122 -49q-33 0 -66 10l-80 26q-27 9 -53 9q-68 0 -96 -64h-88z" />
<glyph unicode="&#xd6;" horiz-adv-x="1593" d="M86 725q0 329 209 553q99 105 230 162t272 57t270.5 -57t230.5 -164q209 -224 209 -551q0 -274 -145 -475q-101 -140 -250.5 -218.5t-314.5 -78.5q-140 0 -271 57.5t-231 163.5q-209 224 -209 551zM260 725q0 -173 71.5 -313.5t194.5 -219.5t271 -79t270 78t193 218.5 t71 315.5t-71 315.5t-193 218.5t-270 78t-271 -78.5t-194.5 -219t-71.5 -314.5zM522 1767q0 40 29.5 70.5t69.5 30.5t70 -30.5t30 -70.5q0 -42 -29 -71t-71 -29q-41 0 -70 28.5t-29 71.5zM872 1767q0 40 30.5 70.5t70.5 30.5q39 0 68.5 -30.5t29.5 -70.5q0 -43 -28.5 -71.5 t-69.5 -28.5q-42 0 -71.5 29t-29.5 71z" />
<glyph unicode="&#xd7;" horiz-adv-x="1705" d="M301 135l475 475l-475 477l80 82l477 -477l475 477l82 -82l-475 -477l475 -475l-82 -82l-475 475l-477 -475z" />
<glyph unicode="&#xd8;" horiz-adv-x="1593" d="M23 -57l239 274q-178 202 -178 508q0 158 52.5 299t152.5 248q101 110 231.5 168.5t272.5 58.5q247 0 448 -168l131 148h164l-207 -236q178 -221 178 -514q0 -318 -190 -536q-101 -116 -236 -178t-286 -62q-272 0 -447 172l-158 -182h-167zM260 711q0 -205 115 -365 l762 864q-163 129 -344 129q-110 0 -208 -46t-170 -127.5t-113.5 -199.5t-41.5 -255zM453 246q133 -133 350 -133q145 0 266 78t191.5 218.5t70.5 313.5q0 113 -32.5 221t-81.5 172z" />
<glyph unicode="&#xd9;" horiz-adv-x="1492" d="M178 575v875h172v-848q0 -243 103.5 -366t304.5 -123q198 0 300.5 124.5t102.5 370.5v842h156v-870q0 -299 -151.5 -463t-407.5 -164q-275 0 -427.5 160.5t-152.5 461.5zM512 1958h178l209 -348h-106z" />
<glyph unicode="&#xda;" horiz-adv-x="1492" d="M178 575v875h172v-848q0 -243 103.5 -366t304.5 -123q198 0 300.5 124.5t102.5 370.5v842h156v-870q0 -299 -151.5 -463t-407.5 -164q-275 0 -427.5 160.5t-152.5 461.5zM625 1610l209 348h178l-281 -348h-106z" />
<glyph unicode="&#xdb;" horiz-adv-x="1492" d="M178 575v875h172v-848q0 -243 103.5 -366t304.5 -123q198 0 300.5 124.5t102.5 370.5v842h156v-870q0 -299 -151.5 -463t-407.5 -164q-275 0 -427.5 160.5t-152.5 461.5zM475 1610l197 348h178l197 -348h-107l-178 243l-180 -243h-107z" />
<glyph unicode="&#xdc;" horiz-adv-x="1492" d="M178 575v875h172v-848q0 -243 103.5 -366t304.5 -123q198 0 300.5 124.5t102.5 370.5v842h156v-870q0 -299 -151.5 -463t-407.5 -164q-275 0 -427.5 160.5t-152.5 461.5zM487 1767q0 40 29.5 70.5t69.5 30.5t70 -30.5t30 -70.5q0 -42 -29 -71t-71 -29t-70.5 28.5 t-28.5 71.5zM838 1767q0 40 30 70.5t70 30.5q39 0 68.5 -30.5t29.5 -70.5q0 -43 -28.5 -71.5t-69.5 -28.5q-42 0 -71 29t-29 71z" />
<glyph unicode="&#xdd;" horiz-adv-x="1232" d="M-45 1450h201l450 -666l486 666h190l-596 -811v-639h-172v625zM479 1610l209 348h178l-280 -348h-107z" />
<glyph unicode="&#xde;" horiz-adv-x="1185" d="M195 0v1450h170v-283h137q157 0 262 -21t190 -83q81 -58 124.5 -143.5t43.5 -180.5q0 -218 -163 -340.5t-467 -122.5q-48 0 -127 7v-283h-170zM365 426h147q216 0 327 78.5t111 226.5q0 157 -114.5 226t-352.5 69h-118v-600z" />
<glyph unicode="&#xdf;" horiz-adv-x="1124" d="M147 0v854q0 132 9.5 220t38.5 155q46 111 147.5 176t235.5 65q154 0 259 -101t105 -253q0 -93 -44 -166t-138 -139q143 -44 219 -150.5t76 -263.5q0 -190 -108 -313t-275 -123q-92 0 -157 43.5t-116 138.5l121 88q33 -71 71.5 -104t92.5 -33q90 0 146.5 85.5t56.5 236.5 q0 150 -87.5 234.5t-246.5 84.5h-27v125h15q115 0 180 66.5t65 179.5q0 117 -59.5 182.5t-163.5 65.5q-135 0 -194.5 -105t-59.5 -321v-928h-162z" />
<glyph unicode="&#xe0;" horiz-adv-x="1118" d="M72 438q0 221 131.5 356.5t351.5 135.5q112 0 252 -45l162 16v-702q0 -86 18 -199l-143 -43q-14 37 -25 96q-168 -94 -309 -94q-193 0 -315.5 132.5t-122.5 346.5zM238 434q0 -164 83.5 -258t221.5 -94q103 0 264 84v577q-127 62 -234 62q-151 0 -243 -101.5t-92 -269.5z M350 1403h178l209 -348h-106z" />
<glyph unicode="&#xe1;" horiz-adv-x="1118" d="M72 438q0 221 131.5 356.5t351.5 135.5q112 0 252 -45l162 16v-702q0 -86 18 -199l-143 -43q-14 37 -25 96q-168 -94 -309 -94q-193 0 -315.5 132.5t-122.5 346.5zM238 434q0 -164 83.5 -258t221.5 -94q103 0 264 84v577q-127 62 -234 62q-151 0 -243 -101.5t-92 -269.5z M463 1055l209 348h178l-281 -348h-106z" />
<glyph unicode="&#xe2;" horiz-adv-x="1118" d="M72 438q0 221 131.5 356.5t351.5 135.5q112 0 252 -45l162 16v-702q0 -86 18 -199l-143 -43q-14 37 -25 96q-168 -94 -309 -94q-193 0 -315.5 132.5t-122.5 346.5zM238 434q0 -164 83.5 -258t221.5 -94q103 0 264 84v577q-127 62 -234 62q-151 0 -243 -101.5t-92 -269.5z M313 1055l197 348h178l197 -348h-107l-178 243l-180 -243h-107z" />
<glyph unicode="&#xe3;" horiz-adv-x="1118" d="M72 438q0 221 131.5 356.5t351.5 135.5q112 0 252 -45l162 16v-702q0 -86 18 -199l-143 -43q-14 37 -25 96q-168 -94 -309 -94q-193 0 -315.5 132.5t-122.5 346.5zM238 434q0 -164 83.5 -258t221.5 -94q103 0 264 84v577q-127 62 -234 62q-151 0 -243 -101.5t-92 -269.5z M309 1112q22 91 73.5 138.5t125.5 47.5q35 0 59 -8l78 -28q37 -11 62 -11q71 0 96 72h88q-25 -94 -76.5 -143.5t-122.5 -49.5q-28 0 -65 11l-80 26q-27 9 -53 9q-69 0 -97 -64h-88z" />
<glyph unicode="&#xe4;" horiz-adv-x="1118" d="M72 438q0 221 131.5 356.5t351.5 135.5q112 0 252 -45l162 16v-702q0 -86 18 -199l-143 -43q-14 37 -25 96q-168 -94 -309 -94q-193 0 -315.5 132.5t-122.5 346.5zM238 434q0 -164 83.5 -258t221.5 -94q103 0 264 84v577q-127 62 -234 62q-151 0 -243 -101.5t-92 -269.5z M326 1212q0 40 29.5 70.5t68.5 30.5q40 0 70 -30.5t30 -70.5q0 -42 -29 -71t-71 -29q-41 0 -69.5 28.5t-28.5 71.5zM676 1212q0 40 30 70.5t70 30.5q39 0 68.5 -30.5t29.5 -70.5q0 -43 -28.5 -71.5t-69.5 -28.5q-42 0 -71 29t-29 71z" />
<glyph unicode="&#xe5;" horiz-adv-x="1118" d="M72 438q0 221 131.5 356.5t351.5 135.5q112 0 252 -45l162 16v-702q0 -86 18 -199l-143 -43q-14 37 -25 96q-168 -94 -309 -94q-193 0 -315.5 132.5t-122.5 346.5zM238 434q0 -164 83.5 -258t221.5 -94q103 0 264 84v577q-127 62 -234 62q-151 0 -243 -101.5t-92 -269.5z M340 1239q0 102 71 173t173 71t172.5 -70.5t70.5 -173.5q0 -101 -71 -172.5t-172 -71.5t-172.5 71.5t-71.5 172.5zM440 1239q0 -60 42.5 -101.5t101.5 -41.5q60 0 100.5 41.5t40.5 101.5q0 59 -41 101t-100 42t-101.5 -42.5t-42.5 -100.5z" />
<glyph unicode="&#xe6;" horiz-adv-x="1658" d="M41 207q0 292 496 313l165 6v84q0 96 -53.5 148.5t-148.5 52.5q-140 0 -336 -115l10 150q213 98 346 98q208 0 303 -160q155 158 363 158q187 0 297 -112.5t110 -311.5q0 -6 -1 -19t-1 -20l-18 -41l-711 -22q2 -151 84.5 -237.5t224.5 -86.5q173 0 369 158l-10 -162 q-166 -129 -381 -129q-227 0 -352 164q-208 -166 -437 -166q-155 0 -237 66t-82 184zM199 215q0 -61 44.5 -97t125.5 -36q180 0 333 123v205l-165 -7q-172 -6 -255 -50.5t-83 -137.5zM868 528l576 23q-4 125 -77.5 198.5t-188.5 73.5q-120 0 -208.5 -82.5t-101.5 -212.5z " />
<glyph unicode="&#xe7;" horiz-adv-x="962" d="M74 440q0 228 136 366t365 138q156 0 324 -80l-20 -145q-162 90 -301 90q-156 0 -249 -96t-93 -258q0 -167 91 -264t240 -97q163 0 340 137l-22 -176q-158 -96 -336 -96q-210 0 -342.5 135t-132.5 346zM281 -336q161 -37 247 -37q121 0 121 84q0 52 -32 75.5t-101 23.5 q-16 0 -57 -3v193h71v-106h23q112 0 169.5 -45t57.5 -132q0 -89 -63.5 -135.5t-186.5 -46.5q-94 0 -249 41v88z" />
<glyph unicode="&#xe8;" horiz-adv-x="1042" d="M78 422q0 229 140.5 374.5t350.5 145.5q187 0 297.5 -112.5t110.5 -311.5q0 -6 -1 -19t-1 -20l-19 -41l-720 -24q14 -155 96 -238.5t221 -83.5q173 0 369 158l-9 -162q-169 -129 -368 -129q-204 0 -335.5 130.5t-131.5 332.5zM246 528l581 23q-4 125 -77.5 198.5 t-188.5 73.5q-118 0 -206.5 -81.5t-108.5 -213.5zM336 1403h178l209 -348h-107z" />
<glyph unicode="&#xe9;" horiz-adv-x="1042" d="M78 422q0 229 140.5 374.5t350.5 145.5q187 0 297.5 -112.5t110.5 -311.5q0 -6 -1 -19t-1 -20l-19 -41l-720 -24q14 -155 96 -238.5t221 -83.5q173 0 369 158l-9 -162q-169 -129 -368 -129q-204 0 -335.5 130.5t-131.5 332.5zM246 528l581 23q-4 125 -77.5 198.5 t-188.5 73.5q-118 0 -206.5 -81.5t-108.5 -213.5zM449 1055l208 348h179l-281 -348h-106z" />
<glyph unicode="&#xea;" horiz-adv-x="1042" d="M78 422q0 229 140.5 374.5t350.5 145.5q187 0 297.5 -112.5t110.5 -311.5q0 -6 -1 -19t-1 -20l-19 -41l-720 -24q14 -155 96 -238.5t221 -83.5q173 0 369 158l-9 -162q-169 -129 -368 -129q-204 0 -335.5 130.5t-131.5 332.5zM246 528l581 23q-4 125 -77.5 198.5 t-188.5 73.5q-118 0 -206.5 -81.5t-108.5 -213.5zM299 1055l197 348h178l196 -348h-106l-178 243l-180 -243h-107z" />
<glyph unicode="&#xeb;" horiz-adv-x="1042" d="M78 422q0 229 140.5 374.5t350.5 145.5q187 0 297.5 -112.5t110.5 -311.5q0 -6 -1 -19t-1 -20l-19 -41l-720 -24q14 -155 96 -238.5t221 -83.5q173 0 369 158l-9 -162q-169 -129 -368 -129q-204 0 -335.5 130.5t-131.5 332.5zM246 528l581 23q-4 125 -77.5 198.5 t-188.5 73.5q-118 0 -206.5 -81.5t-108.5 -213.5zM311 1212q0 40 29.5 70.5t69.5 30.5t70 -30.5t30 -70.5q0 -42 -29 -71t-71 -29t-70.5 29t-28.5 71zM662 1212q0 40 30 70.5t70 30.5q39 0 68.5 -30.5t29.5 -70.5q0 -43 -28.5 -71.5t-69.5 -28.5q-42 0 -71 29t-29 71z" />
<glyph unicode="&#xec;" horiz-adv-x="468" d="M-14 1403h178l209 -348h-107zM152 0v901l165 43v-944h-165z" />
<glyph unicode="&#xed;" horiz-adv-x="468" d="M98 1055l209 348h178l-280 -348h-107zM152 0v901l165 43v-944h-165z" />
<glyph unicode="&#xee;" horiz-adv-x="468" d="M-51 1055l196 348h179l196 -348h-106l-178 243l-181 -243h-106zM152 0v901l165 43v-944h-165z" />
<glyph unicode="&#xef;" horiz-adv-x="468" d="M-39 1212q0 40 29.5 70.5t68.5 30.5q40 0 70.5 -30.5t30.5 -70.5q0 -42 -29.5 -71t-71.5 -29q-41 0 -69.5 28.5t-28.5 71.5zM152 0v901l165 43v-944h-165zM311 1212q0 40 30.5 70.5t70.5 30.5q39 0 68.5 -30.5t29.5 -70.5q0 -43 -28.5 -71.5t-69.5 -28.5q-42 0 -71.5 29 t-29.5 71z" />
<glyph unicode="&#xf0;" horiz-adv-x="1110" d="M74 451q0 106 37.5 199t100 156t145.5 99.5t173 36.5q147 0 244 -72q-85 143 -223 281l-293 -152l-43 84l262 136q-86 74 -178 139l66 98q128 -82 235 -168l246 133l45 -82l-219 -118q366 -366 366 -750q0 -229 -136 -370.5t-347 -141.5q-207 0 -344 138t-137 354z M238 451q0 -169 88 -271t227 -102q140 0 228.5 102.5t88.5 270.5q0 181 -79.5 276.5t-225.5 95.5q-149 0 -238 -100t-89 -272z" />
<glyph unicode="&#xf1;" horiz-adv-x="1128" d="M147 0v901h162v-182q165 207 375 207q153 0 235 -93.5t82 -275.5v-557h-161v537q0 126 -46 186.5t-147 60.5q-63 0 -122 -22.5t-108 -65.5t-78.5 -114.5t-29.5 -161.5v-420h-162zM297 1112q22 91 73.5 138.5t125.5 47.5q35 0 59 -8l78 -28q37 -11 61 -11q72 0 97 72h88 q-25 -94 -76.5 -143.5t-122.5 -49.5q-29 0 -66 11l-79 26q-27 9 -54 9q-68 0 -96 -64h-88z" />
<glyph unicode="&#xf2;" horiz-adv-x="1110" d="M74 451q0 216 137 353.5t344 137.5q208 0 344.5 -138t136.5 -353q0 -216 -136.5 -354t-344.5 -138q-207 0 -344 138.5t-137 353.5zM238 451q0 -169 88 -271t227 -102q140 0 228.5 102.5t88.5 270.5t-88.5 270t-228.5 102q-139 0 -227 -101.5t-88 -270.5zM315 1403h179 l208 -348h-106z" />
<glyph unicode="&#xf3;" horiz-adv-x="1110" d="M74 451q0 216 137 353.5t344 137.5q208 0 344.5 -138t136.5 -353q0 -216 -136.5 -354t-344.5 -138q-207 0 -344 138.5t-137 353.5zM238 451q0 -169 88 -271t227 -102q140 0 228.5 102.5t88.5 270.5t-88.5 270t-228.5 102q-139 0 -227 -101.5t-88 -270.5zM428 1055 l209 348h178l-280 -348h-107z" />
<glyph unicode="&#xf4;" horiz-adv-x="1110" d="M74 451q0 216 137 353.5t344 137.5q208 0 344.5 -138t136.5 -353q0 -216 -136.5 -354t-344.5 -138q-207 0 -344 138.5t-137 353.5zM238 451q0 -169 88 -271t227 -102q140 0 228.5 102.5t88.5 270.5t-88.5 270t-228.5 102q-139 0 -227 -101.5t-88 -270.5zM279 1055 l196 348h178l197 -348h-107l-178 243l-180 -243h-106z" />
<glyph unicode="&#xf5;" horiz-adv-x="1110" d="M74 451q0 216 137 353.5t344 137.5q208 0 344.5 -138t136.5 -353q0 -216 -136.5 -354t-344.5 -138q-207 0 -344 138.5t-137 353.5zM238 451q0 -169 88 -271t227 -102q140 0 228.5 102.5t88.5 270.5t-88.5 270t-228.5 102q-139 0 -227 -101.5t-88 -270.5zM274 1112 q22 91 73.5 138.5t125.5 47.5q35 0 59 -8l78 -28q37 -11 62 -11q71 0 96 72h88q-25 -94 -76.5 -143.5t-122.5 -49.5q-28 0 -65 11l-80 26q-27 9 -53 9q-69 0 -97 -64h-88z" />
<glyph unicode="&#xf6;" horiz-adv-x="1110" d="M74 451q0 216 137 353.5t344 137.5q208 0 344.5 -138t136.5 -353q0 -216 -136.5 -354t-344.5 -138q-207 0 -344 138.5t-137 353.5zM238 451q0 -169 88 -271t227 -102q140 0 228.5 102.5t88.5 270.5t-88.5 270t-228.5 102q-139 0 -227 -101.5t-88 -270.5zM291 1212 q0 40 29.5 70.5t68.5 30.5q40 0 70 -30.5t30 -70.5q0 -42 -29 -71t-71 -29q-41 0 -69.5 28.5t-28.5 71.5zM641 1212q0 40 30 70.5t70 30.5t69.5 -30.5t29.5 -70.5q0 -42 -29 -71t-70 -29q-42 0 -71 29t-29 71z" />
<glyph unicode="&#xf7;" horiz-adv-x="1705" d="M254 553v117h1198v-117h-1198zM739 250q0 49 34 82t81 33q46 0 80.5 -34t34.5 -81t-33 -81t-82 -34q-47 0 -81 34t-34 81zM739 971q0 47 34.5 80.5t80.5 33.5q47 0 81 -33.5t34 -80.5t-33 -81t-82 -34t-82 33.5t-33 81.5z" />
<glyph unicode="&#xf8;" horiz-adv-x="1110" d="M6 -72l176 199q-108 136 -108 324q0 216 137 353.5t344 137.5q158 0 285 -90l112 121h154l-180 -201q110 -136 110 -321q0 -216 -136.5 -354t-344.5 -138q-155 0 -291 90l-106 -121h-152zM238 451q0 -119 47 -213l467 514q-84 71 -199 71q-139 0 -227 -101.5t-88 -270.5z M352 145q100 -67 201 -67q140 0 228.5 101.5t88.5 271.5q0 124 -47 208z" />
<glyph unicode="&#xf9;" horiz-adv-x="1128" d="M137 326v575h162v-557q0 -126 46 -186t147 -60q63 0 122 22.5t107.5 65.5t78 115t29.5 162v438h162v-901l-147 -43l-10 203q-176 -203 -379 -203q-154 0 -236 94t-82 275zM319 1403h179l209 -348h-107z" />
<glyph unicode="&#xfa;" horiz-adv-x="1128" d="M137 326v575h162v-557q0 -126 46 -186t147 -60q63 0 122 22.5t107.5 65.5t78 115t29.5 162v438h162v-901l-147 -43l-10 203q-176 -203 -379 -203q-154 0 -236 94t-82 275zM432 1055l209 348h178l-280 -348h-107z" />
<glyph unicode="&#xfb;" horiz-adv-x="1128" d="M137 326v575h162v-557q0 -126 46 -186t147 -60q63 0 122 22.5t107.5 65.5t78 115t29.5 162v438h162v-901l-147 -43l-10 203q-176 -203 -379 -203q-154 0 -236 94t-82 275zM283 1055l196 348h178l197 -348h-106l-179 243l-180 -243h-106z" />
<glyph unicode="&#xfc;" horiz-adv-x="1128" d="M137 326v575h162v-557q0 -126 46 -186t147 -60q63 0 122 22.5t107.5 65.5t78 115t29.5 162v438h162v-901l-147 -43l-10 203q-176 -203 -379 -203q-154 0 -236 94t-82 275zM295 1212q0 40 29.5 70.5t68.5 30.5q40 0 70.5 -30.5t30.5 -70.5q0 -42 -29.5 -71t-71.5 -29 q-41 0 -69.5 28.5t-28.5 71.5zM645 1212q0 40 30 70.5t70 30.5t69.5 -30.5t29.5 -70.5q0 -42 -29 -71t-70 -29q-42 0 -71 29t-29 71z" />
<glyph unicode="&#xfd;" horiz-adv-x="868" d="M-2 901h174l270 -708l297 708h140l-430 -993q-105 -238 -164 -344h-179q65 67 110.5 142t90.5 173l58 125zM297 1055l209 348h178l-281 -348h-106z" />
<glyph unicode="&#xfe;" horiz-adv-x="1112" d="M147 -436v1863l162 43v-614q155 76 283 76q206 0 329 -131t123 -348q0 -221 -131.5 -356.5t-351.5 -135.5q-112 0 -252 45v-399zM309 147q131 -61 234 -61q151 0 243.5 101.5t92.5 269.5q0 162 -83.5 257t-220.5 95q-105 0 -266 -84v-578z" />
<glyph unicode="&#xff;" horiz-adv-x="868" d="M-2 901h174l270 -708l297 708h140l-430 -993q-105 -238 -164 -344h-179q65 67 110.5 142t90.5 173l58 125zM160 1212q0 40 29.5 70.5t68.5 30.5q40 0 70 -30.5t30 -70.5q0 -42 -29 -71t-71 -29q-41 0 -69.5 28.5t-28.5 71.5zM510 1212q0 40 30 70.5t70 30.5t69.5 -30.5 t29.5 -70.5q0 -42 -28.5 -71t-70.5 -29t-71 29t-29 71z" />
<glyph unicode="&#x152;" horiz-adv-x="1849" d="M86 725q0 195 79 354t222 256q102 69 223 92t299 23h797v-145h-629v-474h543v-147h-543v-528h637v-156h-805q-173 0 -298.5 26.5t-223.5 92.5q-145 97 -223 253.5t-78 352.5zM262 731q0 -266 153 -420.5t421 -154.5h73v1149h-82q-263 0 -414 -155t-151 -419z" />
<glyph unicode="&#x153;" horiz-adv-x="1830" d="M74 451q0 216 137 353.5t344 137.5q261 0 399 -209q153 209 402 209q187 0 297 -112.5t110 -311.5q0 -6 -1 -19t-1 -20l-18 -41l-713 -22q1 -151 84.5 -237.5t226.5 -86.5q171 0 367 158l-8 -162q-170 -129 -369 -129q-238 0 -385 193q-156 -193 -391 -193 q-207 0 -344 138t-137 354zM238 451q0 -169 88 -271t227 -102q140 0 228.5 102.5t88.5 270.5t-88.5 270t-228.5 102q-139 0 -227 -101.5t-88 -270.5zM1036 528l578 23q-4 123 -77.5 197.5t-182.5 74.5q-121 0 -213 -82t-105 -213z" />
<glyph unicode="&#x178;" horiz-adv-x="1232" d="M-45 1450h201l450 -666l486 666h190l-596 -811v-639h-172v625zM342 1767q0 40 29.5 70.5t68.5 30.5q40 0 70.5 -30.5t30.5 -70.5q0 -42 -29.5 -71t-71.5 -29q-41 0 -69.5 28.5t-28.5 71.5zM692 1767q0 40 30.5 70.5t70.5 30.5q39 0 68.5 -30.5t29.5 -70.5 q0 -43 -28.5 -71.5t-69.5 -28.5q-42 0 -71.5 29t-29.5 71z" />
<glyph unicode="&#x2c6;" d="M225 1055l197 348h178l197 -348h-107l-178 243l-180 -243h-107z" />
<glyph unicode="&#x2dc;" d="M221 1112q22 91 73.5 138.5t125.5 47.5q35 0 59 -8l78 -28q37 -11 61 -11q72 0 97 72h88q-25 -94 -76.5 -143.5t-122.5 -49.5q-28 0 -65 11l-80 26q-27 9 -53 9q-69 0 -97 -64h-88z" />
<glyph unicode="&#x2000;" horiz-adv-x="986" />
<glyph unicode="&#x2001;" horiz-adv-x="1972" />
<glyph unicode="&#x2002;" horiz-adv-x="986" />
<glyph unicode="&#x2003;" horiz-adv-x="1972" />
<glyph unicode="&#x2004;" horiz-adv-x="657" />
<glyph unicode="&#x2005;" horiz-adv-x="493" />
<glyph unicode="&#x2006;" horiz-adv-x="328" />
<glyph unicode="&#x2007;" horiz-adv-x="328" />
<glyph unicode="&#x2008;" horiz-adv-x="246" />
<glyph unicode="&#x2009;" horiz-adv-x="394" />
<glyph unicode="&#x200a;" horiz-adv-x="109" />
<glyph unicode="&#x2010;" horiz-adv-x="663" d="M76 379v143h512v-143h-512z" />
<glyph unicode="&#x2011;" horiz-adv-x="663" d="M76 379v143h512v-143h-512z" />
<glyph unicode="&#x2012;" horiz-adv-x="663" d="M76 379v143h512v-143h-512z" />
<glyph unicode="&#x2013;" d="M0 397v105h1024v-105h-1024z" />
<glyph unicode="&#x2014;" horiz-adv-x="2048" d="M0 397v105h2048v-105h-2048z" />
<glyph unicode="&#x2018;" horiz-adv-x="583" d="M106 932l222 518h147l-188 -518h-181z" />
<glyph unicode="&#x2019;" horiz-adv-x="583" d="M106 932l222 518h147l-188 -518h-181z" />
<glyph unicode="&#x201a;" horiz-adv-x="583" d="M47 -340l219 518h148l-187 -518h-180z" />
<glyph unicode="&#x201c;" horiz-adv-x="948" d="M106 932l220 518h147l-186 -518h-181zM473 932l217 518h150l-189 -518h-178z" />
<glyph unicode="&#x201d;" horiz-adv-x="948" d="M106 932l220 518h147l-186 -518h-181zM473 932l217 518h150l-189 -518h-178z" />
<glyph unicode="&#x201e;" horiz-adv-x="948" d="M47 -340l219 518h148l-187 -518h-180zM414 -340l217 518h149l-188 -518h-178z" />
<glyph unicode="&#x2022;" horiz-adv-x="1208" d="M307 762q0 123 87 209t210 86q122 0 208.5 -86t86.5 -209q0 -122 -87 -209.5t-210 -87.5t-209 87t-86 210z" />
<glyph unicode="&#x2026;" horiz-adv-x="2048" d="M231 84q0 44 32.5 76.5t76.5 32.5q46 0 78.5 -31.5t32.5 -77.5q0 -44 -33.5 -76.5t-77.5 -32.5q-43 0 -76 33t-33 76zM913 84q0 44 32.5 76.5t76.5 32.5q46 0 78.5 -31.5t32.5 -77.5q0 -44 -33.5 -76.5t-77.5 -32.5q-43 0 -76 33t-33 76zM1597 84q0 44 32.5 76.5 t76.5 32.5q46 0 78.5 -31.5t32.5 -77.5q0 -44 -33.5 -76.5t-77.5 -32.5q-43 0 -76 33t-33 76z" />
<glyph unicode="&#x202f;" horiz-adv-x="394" />
<glyph unicode="&#x2039;" horiz-adv-x="583" d="M88 451l254 313h152l-244 -313l244 -314h-152z" />
<glyph unicode="&#x203a;" horiz-adv-x="583" d="M88 137l244 314l-244 313h152l254 -313l-254 -314h-152z" />
<glyph unicode="&#x205f;" horiz-adv-x="493" />
<glyph unicode="&#x20ac;" horiz-adv-x="1165" d="M0 512l23 111h122q-4 33 -4 102q0 61 6 117h-147l23 110h143q54 246 213 395.5t371 149.5q191 0 356 -137l-19 -176q-158 162 -335 162q-153 0 -261.5 -106.5t-150.5 -287.5h657l-22 -110h-653q-7 -65 -7 -117q0 -69 4 -102h596l-22 -111h-555q41 -191 144.5 -299.5 t262.5 -108.5q193 0 375 185l-16 -201q-156 -135 -369 -135q-120 1 -217 41t-166.5 114.5t-116.5 175t-73 228.5h-162z" />
<glyph unicode="&#x2122;" horiz-adv-x="1705" d="M254 1389v67h440v-67h-172v-467h-94v467h-174zM819 922v534h129l160 -405l149 405h132v-534h-82v458l-172 -458h-54l-180 458v-458h-82z" />
<glyph unicode="&#xe000;" horiz-adv-x="901" d="M0 0v901h901v-901h-901z" />
<glyph unicode="&#xfb01;" horiz-adv-x="1071" d="M-4 772v129h188v152q0 139 49 233.5t150 153.5l238 30v-73q-160 -27 -217.5 -114.5t-57.5 -270.5v-111h250v-129h-250v-772h-162v772h-188zM731 1235q0 51 35 86t86 35t86 -35t35 -86t-35 -85t-86 -34q-50 0 -85.5 34.5t-35.5 84.5zM774 0v901l160 43v-944h-160z" />
<glyph unicode="&#xfb02;" horiz-adv-x="1071" d="M-4 772v129h188v152q0 139 49 233.5t150 153.5l238 30v-73q-160 -27 -217.5 -114.5t-57.5 -270.5v-111h250v-129h-250v-772h-162v772h-188zM774 0v1427l160 43v-1470h-160z" />
</font>
</defs>
</svg>
